<svg width="42" height="42" viewBox="0 0 42 42" fill="none" xmlns="http://www.w3.org/2000/svg">
<path fill-rule="evenodd" clip-rule="evenodd" d="M18.339 11.9402H21.2689V21.0736L28.5213 25.3952L27.0069 27.9103L18.339 22.7336V11.9402ZM36.921 12.3311C36.09 10.8661 35.0488 9.50711 33.7952 8.25353C30.2466 4.70472 25.9811 2.93 21.0004 2.93C16.0024 2.93 11.7456 4.70472 8.23036 8.25353C4.69722 11.7692 2.93113 16.0184 2.93113 21.0003C2.93113 25.9812 4.69722 30.2387 8.23036 33.7708C9.49943 35.041 10.8671 36.0898 12.3318 36.9208C14.9199 38.3532 17.8092 39.0692 21.0008 39.0692C25.9815 39.0692 30.2468 37.303 33.7956 33.7708C37.3115 30.2379 39.0696 25.9808 39.0696 21.0003C39.0696 17.8096 38.3537 14.9191 36.9216 12.331L36.921 12.3311ZM35.8708 6.17757C37.3357 7.64248 38.5403 9.22246 39.485 10.9151C41.1614 13.9262 42 17.2885 42 21.0006C42 26.796 39.9569 31.7453 35.8708 35.8465C31.7521 39.9492 26.7951 42 20.9999 42C17.2883 42 13.926 41.1624 10.9148 39.4859C9.22114 38.5412 7.63461 37.3279 6.15325 35.8465C2.05073 31.7449 0 26.796 0 21.0006C0 15.2052 2.05073 10.2639 6.15325 6.17766C10.2393 2.05945 15.1875 0 20.9995 0C26.7947 0 31.7516 2.05945 35.8704 6.17766L35.8708 6.17757Z" fill="#0D0D0D"/>
</svg>
