<svg width="40" height="48" viewBox="0 0 40 48" fill="none" xmlns="http://www.w3.org/2000/svg">
<path d="M28.8646 0.547793C28.0181 -0.182251 26.8799 -0.182944 26.0328 0.547793L12.5921 12.1322H4.18124C1.85856 12.1322 0 14.5399 0 17.5501V30.4498C0 33.4601 1.85856 35.8677 4.18124 35.8677H12.5928L26 47.423C26.0103 47.4327 26.0212 47.4424 26.0321 47.4521C26.456 47.8171 26.9522 48 27.4483 48C27.9445 48 28.4406 47.8171 28.8639 47.4521C29.5754 46.8391 30 45.7905 30 44.6462V3.35299C30 2.20944 29.5754 1.16078 28.8646 0.547793ZM28.091 44.6469C28.091 45.2876 27.8593 45.7738 27.6296 45.9719C27.4988 46.0848 27.4163 46.0911 27.2902 45.9906C27.2827 45.9844 27.2759 45.9775 27.2684 45.9713L13.0399 33.8043H1.59276V14.1963H13.0372L27.267 2.02797C27.4061 1.90814 27.4906 1.90814 27.6289 2.02797C27.8586 2.22606 28.0903 2.7123 28.0903 3.35299V44.6469H28.091Z" fill="#0D0D0D"/>
<path d="M35.8463 33C35.6192 33 35.4069 32.9104 35.2473 32.7477C34.9176 32.4116 34.9176 31.864 35.2473 31.5278C37.2201 29.516 38.3063 26.8426 38.3063 24.0007C38.3063 21.1589 37.2201 18.484 35.2473 16.4736C34.9176 16.1375 34.9176 15.5899 35.2473 15.2537C35.4069 15.0903 35.6192 15 35.8449 15C36.0713 15 36.2843 15.0903 36.4453 15.2544C38.7373 17.5917 40 20.698 40 24.0007C40 27.3034 38.7373 30.4097 36.4453 32.747C36.2836 32.9097 36.0713 32.9993 35.8463 32.9993V33Z" fill="#0D0D0D"/>
</svg>
