<svg width="52" height="48" viewBox="0 0 52 48" fill="none" xmlns="http://www.w3.org/2000/svg">
<path d="M28.538 0.926448L28.538 0.926426C27.879 0.358093 27.0187 0.357631 26.3593 0.926403L26.3592 0.926531L12.9186 12.511L12.7779 12.6322H12.5921H4.18124C3.34004 12.6322 2.53411 13.0212 1.89194 13.6963H12.8525L26.9406 1.64922C26.9409 1.64897 26.9412 1.64871 26.9415 1.64846C27.0325 1.57012 27.2058 1.4381 27.4482 1.4381C27.692 1.4381 27.8655 1.57142 27.9563 1.65002C28.3287 1.97184 28.5903 2.61762 28.5903 3.35299V44.1469H28.591V44.6469C28.591 45.3828 28.329 46.029 27.9562 46.3506M28.538 0.926448L27.6296 45.9719M28.538 0.926448C29.115 1.42399 29.5 2.32031 29.5 3.35299V44.6462C29.5 45.6796 29.115 46.5758 28.5375 47.0733L28.5373 47.0735C28.1998 47.3646 27.8181 47.5 27.4483 47.5C27.0796 47.5 26.6989 47.3654 26.3612 47.0757M28.538 0.926448L1.23257 34.3043M27.9562 46.3506L27.6296 45.9719M27.9562 46.3506C27.9562 46.3505 27.9562 46.3505 27.9562 46.3505L27.6296 45.9719M27.9562 46.3506C27.8699 46.425 27.7106 46.5472 27.4876 46.5604C27.2511 46.5744 27.0768 46.4599 26.9787 46.3817L26.9705 46.3752L26.9705 46.3751C26.9624 46.3684 26.9557 46.3624 26.9509 46.3581L26.9434 46.3513M27.6296 45.9719C27.4988 46.0848 27.4163 46.0911 27.2902 45.9906C27.2865 45.9875 27.2829 45.9842 27.2793 45.9809C27.2757 45.9777 27.2721 45.9744 27.2684 45.9713L13.0399 33.8043M26.9434 46.3513L26.9487 46.3557L26.9435 46.3512L26.9409 46.349L12.8553 34.3043M26.9434 46.3513L26.9434 46.3513L26.9419 46.3499L26.9434 46.3513ZM12.8553 34.3043H13.0399V33.8043M12.8553 34.3043L12.7149 34.1843L13.0399 33.8043M12.8553 34.3043H1.8926M13.0399 33.8043H2.09276M2.09276 33.8043L1.09276 14.8587M2.09276 33.8043H1.59276V33.3043V14.6963V14.1963H2.09276H13.0372L27.267 2.02797C27.4061 1.90814 27.4906 1.90814 27.6289 2.02797C27.8586 2.22606 28.0903 2.7123 28.0903 3.35299V44.1469L2.09276 33.8043ZM1.8926 34.3043C1.78814 34.1945 1.68801 34.0772 1.59276 33.9527C1.55572 33.9043 1.51942 33.8548 1.48389 33.8043C1.34018 33.5999 1.20909 33.3783 1.09276 33.1412M1.8926 34.3043H1.59276H1.23257M1.8926 34.3043C2.53466 34.979 3.34033 35.3677 4.18124 35.3677H12.5928H12.7785L12.9192 35.4889L26.3265 47.0443L26.3355 47.0521L26.3441 47.0603C26.3472 47.0632 26.3515 47.067 26.3612 47.0757M1.09276 33.1412V14.8587M1.09276 33.1412C0.720987 32.3836 0.5 31.4677 0.5 30.4498V17.5501C0.5 16.5322 0.720987 15.6164 1.09276 14.8587M1.09276 33.1412V33.8043V34.1158C0.41293 33.1537 0 31.8687 0 30.4498V17.5501C0 16.1312 0.41293 14.8462 1.09276 13.8841V14.1963V14.8587M1.23257 34.3043C1.98652 35.2726 3.02653 35.8677 4.18124 35.8677H12.5928L26 47.423C26.0047 47.4275 26.0096 47.4319 26.0145 47.4364C26.0203 47.4416 26.0262 47.4469 26.0321 47.4521C26.456 47.8171 26.9522 48 27.4483 48C27.9445 48 28.4406 47.8171 28.8639 47.4521C29.5754 46.8391 30 45.7905 30 44.6462V3.35299C30 2.20944 29.5754 1.16078 28.8646 0.547793C28.0181 -0.182251 26.8799 -0.182944 26.0328 0.547793L1.23257 34.3043ZM26.3612 47.0757C26.3602 47.0749 26.3593 47.074 26.3583 47.0732L26.0321 47.4521L26.3643 47.0785C26.3632 47.0775 26.3622 47.0766 26.3612 47.0757ZM28.0414 45.1469H28.0903H28.091V44.6469L28.0414 45.1469Z" fill="#0D0D0D" stroke="#0D0D0D"/>
<path d="M35 16L42.75 23.75M50.5 31.5L42.75 23.75M42.75 23.75L50.5 16L35 31.5" stroke="#0D0D0D" stroke-width="2" stroke-linecap="round" stroke-linejoin="round"/>
</svg>
