<svg width="68" height="77" viewBox="0 0 68 77" fill="none" xmlns="http://www.w3.org/2000/svg">
<path d="M28.06 6.48C29.86 3.23 31.95 1.37 34.18 1.37C40.89 1.37 46.33 18.17 46.33 38.89C46.33 59.61 40.89 76.41 34.18 76.41C27.47 76.41 22.03 59.61 22.03 38.89C22.03 29.34 23.18 20.63 25.09 14.01" stroke="#00ff3c" strokemitterlimit="10"/>
<path d="M63.79 47.47C66.94 51.63 68.14 55.26 66.75 57.65C63.39 63.45 46.09 59.75 28.11 49.39C10.13 39.03 -1.74001 25.93 1.61999 20.13C4.97999 14.33 22.28 18.03 40.26 28.39C47.47 32.54 53.69 37.14 58.35 41.52" stroke="#00ff3c" strokemitterlimit="10"/>
<path d="M10.88 60.29C6.24002 60.7 2.91001 59.87 1.62001 57.65C-1.73999 51.85 10.12 38.75 28.11 28.39C46.1 18.03 63.4 14.33 66.75 20.13C70.11 25.93 58.25 39.03 40.26 49.39C32.67 53.76 25.19 56.95 18.84 58.74" stroke="#00ff3c" strokemitterlimit="10"/>
<path d="M34.19 44.45C37.2662 44.45 39.76 41.9607 39.76 38.89C39.76 35.8193 37.2662 33.33 34.19 33.33C31.1138 33.33 28.62 35.8193 28.62 38.89C28.62 41.9607 31.1138 44.45 34.19 44.45Z" stroke="#00ff3c" strokemitterlimit="10"/>
<path d="M26.37 14.21C28.6123 14.21 30.43 12.3967 30.43 10.16C30.43 7.92324 28.6123 6.10999 26.37 6.10999C24.1277 6.10999 22.31 7.92324 22.31 10.16C22.31 12.3967 24.1277 14.21 26.37 14.21Z" stroke="#00ff3c" strokemitterlimit="10"/>
<path d="M14.9 63.73C17.1423 63.73 18.96 61.9167 18.96 59.68C18.96 57.4432 17.1423 55.63 14.9 55.63C12.6577 55.63 10.84 57.4432 10.84 59.68C10.84 61.9167 12.6577 63.73 14.9 63.73Z" stroke="#00ff3c" strokemitterlimit="10"/>
<path d="M61.16 48.5C63.4023 48.5 65.22 46.6868 65.22 44.45C65.22 42.2132 63.4023 40.4 61.16 40.4C58.9177 40.4 57.1 42.2132 57.1 44.45C57.1 46.6868 58.9177 48.5 61.16 48.5Z" stroke="#00ff3c" strokemitterlimit="10"/>
</svg>
