<svg width="76" height="25" viewBox="0 0 76 25" fill="none" xmlns="http://www.w3.org/2000/svg">
<path d="M55.39 2.62999C52.12 2.24999 48.85 1.95998 45.58 1.86998C42.31 1.72998 39.03 1.71999 35.76 1.84999C29.23 2.09999 22.69 2.72 16.35 4.21C13.19 4.93 10.04 5.83 7.14002 7.21C5.70002 7.9 4.31 8.71999 3.2 9.77999C2.1 10.83 1.33 12.21 1.64 13.61C1.95 15.02 3.09001 16.22 4.35001 17.15C5.63001 18.1 7.06999 18.85 8.54999 19.52C11.51 20.88 14.68 21.78 17.86 22.61C14.61 22.09 11.39 21.32 8.29001 20.16C6.75001 19.55 5.23 18.83 3.83 17.88C2.46 16.93 1.08 15.69 0.580005 13.86C0.370005 12.95 0.440006 11.96 0.800006 11.11C1.16001 10.25 1.73 9.53999 2.34 8.91999C3.6 7.69999 5.07001 6.82 6.57001 6.07C9.59001 4.59 12.8 3.62999 16.02 2.84999C22.51 1.44999 29.12 0.799987 35.72 0.779987C42.34 0.769987 48.95 1.28999 55.39 2.62999Z" fill="black"/>
<path d="M20.76 23.14C24.03 23.52 27.3 23.81 30.57 23.9C33.84 24.04 37.12 24.05 40.39 23.92C46.92 23.67 53.46 23.05 59.8 21.56C62.96 20.84 66.11 19.94 69.01 18.56C70.45 17.87 71.84 17.05 72.95 15.99C74.05 14.94 74.82 13.56 74.51 12.16C74.2 10.75 73.06 9.54996 71.8 8.61996C70.52 7.66996 69.08 6.91997 67.6 6.24997C64.64 4.88997 61.47 3.98997 58.29 3.15997C61.54 3.67997 64.76 4.44997 67.86 5.60997C69.4 6.21997 70.92 6.93997 72.32 7.88997C73.69 8.83997 75.07 10.08 75.57 11.91C75.78 12.82 75.71 13.81 75.35 14.66C74.99 15.52 74.42 16.23 73.81 16.85C72.55 18.07 71.08 18.95 69.58 19.7C66.56 21.18 63.35 22.14 60.13 22.92C53.64 24.32 47.03 24.97 40.43 24.99C33.81 25.01 27.2 24.49 20.76 23.14Z" fill="black"/>
</svg>
