<svg width="76" height="76" viewBox="0 0 76 76" fill="none" xmlns="http://www.w3.org/2000/svg">
<path d="M70.4 47.9C70.46 47.7 70.62 47.55 70.83 47.49C73.36 46.77 75.22 44.44 75.22 41.68C75.22 41.54 75.22 41.39 75.2 41.25C74.57 41.74 73.77 42.03 72.91 42.03C72.64 42.03 72.37 42 72.12 41.94C71.83 41.88 71.63 41.6 71.66 41.3C71.72 40.57 71.76 39.84 71.77 39.1C71.77 38.89 71.89 38.7 72.08 38.59C74.34 37.24 75.54 34.51 74.82 31.84C74.78 31.7 74.74 31.56 74.69 31.43C74.21 32.07 73.51 32.56 72.68 32.78C72.42 32.85 72.15 32.89 71.89 32.9C71.59 32.91 71.33 32.69 71.28 32.4C71.15 31.67 71 30.95 70.83 30.23C70.78 30.02 70.85 29.81 70.99 29.66C72.82 27.77 73.26 24.83 71.88 22.44C71.81 22.32 71.73 22.19 71.65 22.08C71.35 22.82 70.81 23.47 70.06 23.9C69.82 24.04 69.58 24.14 69.33 24.22C69.04 24.31 68.73 24.17 68.61 23.89C68.3 23.22 67.97 22.57 67.61 21.92C67.51 21.73 67.52 21.51 67.62 21.33C68.9 19.03 68.57 16.08 66.61 14.12C66.51 14.02 66.4 13.92 66.3 13.83C66.2 14.62 65.85 15.39 65.23 16C65.04 16.19 64.83 16.36 64.61 16.5C64.35 16.66 64.02 16.6 63.82 16.37C63.35 15.81 62.86 15.26 62.35 14.73C62.2 14.58 62.15 14.36 62.21 14.16C62.85 11.61 61.77 8.84001 59.37 7.45001C59.25 7.38001 59.12 7.31 58.99 7.25C59.1 8.04 58.96 8.88 58.52 9.62C58.38 9.86 58.22 10.07 58.05 10.26C57.85 10.48 57.5 10.51 57.26 10.34C56.66 9.92 56.05 9.51 55.42 9.13C55.24 9.02 55.14 8.81999 55.13 8.60999C55.09 5.97999 53.32 3.59 50.64 2.88C50.5 2.84 50.36 2.81001 50.22 2.79001C50.53 3.53001 50.61 4.37001 50.39 5.20001C50.32 5.46001 50.22 5.71 50.1 5.94C49.96 6.21 49.64 6.32 49.36 6.22C48.67 5.97 47.97 5.74 47.26 5.53C47.06 5.47 46.9 5.31001 46.85 5.10001C46.13 2.57001 43.8 0.720001 41.03 0.720001C40.89 0.720001 40.74 0.720005 40.6 0.740005C41.09 1.37001 41.39 2.16 41.39 3.03C41.39 3.3 41.36 3.56001 41.3 3.82001C41.24 4.11001 40.96 4.31 40.66 4.28C39.93 4.22 39.2 4.18001 38.46 4.17001C38.25 4.17001 38.06 4.04999 37.95 3.85999C36.6 1.59999 33.86 0.410005 31.19 1.13C31.05 1.17 30.91 1.21001 30.78 1.26001C31.42 1.74001 31.91 2.42999 32.13 3.26999C32.2 3.52999 32.24 3.8 32.25 4.06C32.26 4.36 32.04 4.62001 31.75 4.67001C31.02 4.80001 30.29 4.95 29.58 5.12C29.37 5.17 29.16 5.09999 29.01 4.95999C27.12 3.13999 24.17 2.69001 21.78 4.07001C21.66 4.14001 21.53 4.21999 21.42 4.29999C22.16 4.59999 22.81 5.14001 23.25 5.89001C23.39 6.13001 23.49 6.37 23.57 6.62C23.66 6.91 23.52 7.21 23.24 7.34C22.57 7.65 21.91 7.97999 21.27 8.32999C21.08 8.42999 20.86 8.42001 20.68 8.32001C18.38 7.04001 15.41 7.36999 13.46 9.32999C13.36 9.42999 13.26 9.54001 13.17 9.64001C13.97 9.74001 14.73 10.09 15.35 10.7C15.54 10.89 15.71 11.1 15.85 11.32C16.01 11.57 15.95 11.91 15.72 12.1C15.16 12.57 14.61 13.06 14.08 13.57C13.93 13.72 13.71 13.77 13.51 13.71C10.95 13.07 8.17001 14.15 6.79001 16.55C6.72001 16.67 6.65 16.8 6.59 16.93C7.38 16.82 8.22 16.96 8.97 17.4C9.21 17.54 9.41999 17.7 9.60999 17.87C9.82999 18.07 9.86 18.42 9.69 18.66C9.27 19.26 8.86001 19.87 8.48001 20.5C8.37001 20.68 8.16999 20.78 7.95999 20.79C5.32999 20.83 2.93001 22.6 2.21001 25.27C2.17001 25.41 2.14 25.55 2.12 25.69C2.86 25.38 3.70001 25.3 4.54001 25.53C4.80001 25.6 5.05 25.7 5.28 25.82C5.55 25.96 5.66 26.28 5.56 26.56C5.31 27.25 5.08 27.95 4.87 28.66C4.81 28.86 4.65 29.01 4.44 29.07C1.91 29.79 0.0500031 32.12 0.0500031 34.88C0.0500031 35.02 0.0500073 35.17 0.0700073 35.31C0.700007 34.82 1.5 34.53 2.36 34.53C2.63 34.53 2.89999 34.56 3.14999 34.62C3.43999 34.68 3.64 34.96 3.61 35.26C3.55 35.99 3.51 36.72 3.5 37.46C3.5 37.67 3.38 37.86 3.19 37.97C0.930002 39.32 -0.270003 42.05 0.449997 44.72C0.489997 44.86 0.530002 45 0.580002 45.13C1.06 44.49 1.76 44 2.59 43.78C2.85 43.71 3.12 43.67 3.38 43.66C3.68 43.65 3.94001 43.87 3.99001 44.16C4.12001 44.89 4.27 45.61 4.44 46.33C4.49 46.54 4.42 46.75 4.28 46.9C2.45 48.79 2.01 51.73 3.39 54.12C3.46 54.24 3.54 54.37 3.62 54.48C3.92 53.74 4.45999 53.09 5.20999 52.66C5.44999 52.52 5.69 52.42 5.94 52.34C6.23 52.25 6.54 52.39 6.66 52.67C6.97 53.34 7.3 53.99 7.66 54.64C7.76 54.83 7.74999 55.05 7.64999 55.23C6.36999 57.53 6.7 60.48 8.66 62.44C8.76 62.54 8.87001 62.64 8.98001 62.73C9.08001 61.94 9.42999 61.17 10.05 60.56C10.24 60.37 10.45 60.2 10.67 60.06C10.93 59.9 11.26 59.96 11.46 60.19C11.93 60.75 12.42 61.3 12.93 61.83C13.08 61.98 13.13 62.2 13.07 62.4C12.43 64.95 13.51 67.72 15.91 69.11C16.03 69.18 16.16 69.25 16.29 69.31C16.18 68.52 16.32 67.69 16.76 66.94C16.9 66.7 17.06 66.49 17.23 66.3C17.43 66.08 17.78 66.05 18.02 66.22C18.62 66.64 19.23 67.05 19.86 67.43C20.04 67.54 20.14 67.74 20.15 67.95C20.19 70.58 21.96 72.97 24.64 73.68C24.78 73.72 24.92 73.75 25.06 73.77C24.75 73.03 24.67 72.19 24.9 71.36C24.97 71.1 25.07 70.85 25.19 70.62C25.33 70.35 25.65 70.24 25.93 70.34C26.62 70.59 27.32 70.82 28.03 71.03C28.23 71.09 28.39 71.25 28.44 71.46C29.16 73.99 31.49 75.84 34.26 75.84C34.4 75.84 34.55 75.84 34.69 75.82C34.2 75.19 33.9 74.4 33.9 73.53C33.9 73.26 33.93 73 33.99 72.74C34.05 72.45 34.33 72.25 34.63 72.28C35.36 72.34 36.09 72.38 36.83 72.39C37.04 72.39 37.23 72.51 37.34 72.7C38.69 74.96 41.43 76.15 44.1 75.43C44.24 75.39 44.38 75.35 44.51 75.3C43.87 74.82 43.38 74.13 43.16 73.29C43.09 73.03 43.05 72.76 43.04 72.5C43.03 72.2 43.25 71.94 43.54 71.89C44.27 71.76 45 71.61 45.71 71.44C45.92 71.39 46.13 71.46 46.28 71.6C48.17 73.42 51.12 73.87 53.51 72.49C53.63 72.42 53.76 72.34 53.87 72.26C53.13 71.96 52.48 71.42 52.04 70.67C51.9 70.43 51.8 70.19 51.72 69.94C51.63 69.65 51.77 69.35 52.05 69.22C52.72 68.91 53.38 68.58 54.02 68.23C54.21 68.13 54.43 68.14 54.61 68.24C56.91 69.52 59.88 69.19 61.83 67.23C61.93 67.13 62.03 67.02 62.12 66.92C61.32 66.82 60.56 66.47 59.94 65.86C59.75 65.67 59.58 65.46 59.44 65.24C59.28 64.99 59.34 64.65 59.57 64.46C60.13 63.99 60.68 63.5 61.21 62.99C61.36 62.84 61.58 62.79 61.78 62.85C64.34 63.49 67.12 62.41 68.5 60.01C68.57 59.89 68.64 59.76 68.7 59.63C67.91 59.74 67.07 59.6 66.32 59.16C66.08 59.02 65.87 58.86 65.68 58.69C65.46 58.49 65.43 58.14 65.6 57.9C66.02 57.3 66.43 56.69 66.81 56.06C66.92 55.88 67.12 55.78 67.33 55.77C69.96 55.73 72.36 53.96 73.08 51.29C73.12 51.15 73.15 51.01 73.17 50.87C72.43 51.18 71.59 51.26 70.75 51.03C70.49 50.96 70.24 50.86 70.01 50.74C69.74 50.6 69.63 50.28 69.73 50C69.96 49.31 70.19 48.61 70.4 47.9ZM37.61 69.81C20.19 69.81 6.01999 55.67 6.01999 38.3C6.01999 20.93 20.19 6.79001 37.61 6.79001C55.03 6.79001 69.2 20.93 69.2 38.3C69.2 55.67 55.03 69.81 37.61 69.81Z" fill="#00ff3c"/>
</svg>
