<svg width="80" height="86" viewBox="0 0 80 86" fill="none" xmlns="http://www.w3.org/2000/svg">
<path d="M62.6002 62.68C55.8902 57.34 57.3202 46.77 65.2102 43.41L70.1902 41.28L78.4402 26.1L68.6702 33.05L68.6502 33.06C60.6602 36.19 52.2302 29.67 53.2502 21.16L53.9002 15.75L44.8602 1.04004L46.0002 12.96V12.98C44.7202 21.46 34.8402 25.49 27.9702 20.35L23.6002 17.07L6.35016 17.57L17.2302 22.5L17.2802 22.54C23.9802 27.89 22.5302 38.46 14.6302 41.81L9.63019 43.93L1.41016 59.14L11.1502 52.16L11.2102 52.14C19.2002 49.03 27.6202 55.56 26.5802 64.06L25.9202 69.45L34.9902 84.19L33.8202 72.25L33.8302 72.19C35.1302 63.73 44.9802 59.71 51.8402 64.84L56.2202 68.12L73.5102 67.68L62.6002 62.68ZM39.9302 50.72C35.4502 50.72 31.8202 47.09 31.8202 42.62C31.8202 38.15 35.4502 34.52 39.9302 34.52C44.4102 34.52 48.0402 38.15 48.0402 42.62C48.0402 47.09 44.4102 50.72 39.9302 50.72Z" stroke="#00ff3c" strokeWidth="0.5" strokemitterlimit="50"/>
</svg>
