<svg width="76" height="76" viewBox="0 0 76 76" fill="none" xmlns="http://www.w3.org/2000/svg">
<path d="M72.1796 33.2998C69.4296 31.7198 66.0596 32.2098 63.8796 34.2798C58.8096 39.0798 42.8096 38.6598 37.9996 33.6098V33.6198C37.1696 32.7398 36.1096 32.0798 34.9096 31.7298C29.2296 30.0498 22.8796 19.7198 22.2796 12.5398C29.6796 12.0198 41.6696 16.8898 44.2396 22.2298V22.2198C45.3696 24.5598 47.7596 26.1798 50.5396 26.1798C54.3996 26.1798 57.5296 23.0598 57.5296 19.2098C57.5296 15.3598 54.3996 12.2398 50.5396 12.2398C49.4496 12.2398 48.4296 12.4898 47.5096 12.9298V12.9198C41.2096 15.9398 25.1696 10.3098 22.1496 4.01984V4.02985C21.0196 1.68985 18.6296 0.0698242 15.8496 0.0698242C11.9896 0.0698242 8.85957 3.1898 8.85957 7.03979C8.85957 10.1998 10.9696 12.8698 13.8696 13.7198C20.5696 15.6998 28.2096 29.7298 26.2296 36.4198C26.0396 37.0498 25.9396 37.7098 25.9396 38.3998C25.9396 38.9598 26.0096 39.5098 26.1396 40.0298H26.1296C27.5096 45.7698 21.7196 56.4198 15.7896 60.5298C11.6396 54.3898 9.86958 41.6098 13.2196 36.7098H13.2096C14.6796 34.5698 14.8896 31.6898 13.4996 29.2898C11.5696 25.9598 7.29958 24.8098 3.94958 26.7398C0.609581 28.6698 -0.540417 32.9298 1.38958 36.2598C1.92958 37.1998 2.66958 37.9598 3.50958 38.5298H3.49958C9.26958 42.4698 12.3996 59.1398 8.45957 64.8898H8.46958C6.99958 67.0298 6.78958 69.9098 8.17958 72.3098C10.1096 75.6398 14.3796 76.7898 17.7296 74.8598C20.4796 73.2798 21.7296 70.1198 21.0296 67.1898C19.3996 60.4098 27.7596 46.7898 34.5496 45.1698H34.5396C35.7596 44.8798 36.8496 44.2798 37.7296 43.4398V43.4498C42.0196 39.3798 54.1596 39.0598 60.6996 42.1298C57.4496 48.7898 47.2296 56.7098 41.3096 56.2498L41.3196 56.2598C38.7196 56.0598 36.1196 57.3198 34.7296 59.7198C32.7996 63.0498 33.9496 67.3198 37.2896 69.2398C40.6296 71.1698 44.9096 70.0198 46.8396 66.6898C47.3796 65.7498 47.6696 64.7398 47.7496 63.7298L47.7596 63.7398C48.2896 56.7898 61.1996 45.7398 68.1596 46.2698L68.1496 46.2598C70.7496 46.4598 73.3496 45.1998 74.7396 42.7998C76.6696 39.4898 75.5296 35.2198 72.1796 33.2998Z" fill="#00ff3c"/>
</svg>
