<svg width="77" height="76" viewBox="0 0 77 76" fill="none" xmlns="http://www.w3.org/2000/svg">
<path d="M72.5704 44.2502C67.7904 42.7402 62.6504 31.2302 63.6504 27.9802C63.7504 27.6602 63.8104 27.3202 63.8104 26.9602C63.8104 25.0802 62.2904 23.5602 60.4004 23.5602C58.9604 23.5602 57.7304 24.4502 57.2304 25.7102C56.1304 28.4802 48.7504 33.1202 43.0504 32.6802C41.8104 27.2302 45.1704 19.4902 47.7404 17.7802C51.0804 16.5802 62.8104 20.3202 64.8104 24.8202V24.8102C65.0504 25.3602 65.4004 25.8702 65.8504 26.3202C67.8104 28.2702 70.9804 28.2702 72.9404 26.3202C74.9004 24.3702 74.9004 21.2002 72.9404 19.2502C71.3504 17.6602 68.9504 17.3702 67.0604 18.3602C62.6104 20.6702 50.8204 16.1602 49.2304 13.1502C49.0704 12.8502 48.8704 12.5702 48.6204 12.3202C47.2904 10.9902 45.1304 10.9902 43.8004 12.3202C42.7804 13.3302 42.5504 14.8302 43.0804 16.0702C44.2704 18.8102 42.3404 27.3002 37.9904 31.0002C33.2504 28.0302 30.1404 20.1802 30.7404 17.1502C32.2504 13.9502 43.2004 8.3102 47.8004 10.0802V10.0702C48.3604 10.2902 48.9704 10.4102 49.6104 10.4102C52.3804 10.4102 54.6204 8.17016 54.6204 5.41016C54.6204 2.65016 52.3804 0.410156 49.6104 0.410156C47.3604 0.410156 45.4504 1.89018 44.8204 3.93018C43.3104 8.70018 31.7704 13.8302 28.5204 12.8302C28.2004 12.7302 27.8504 12.6702 27.5004 12.6702C25.6204 12.6702 24.0904 14.1902 24.0904 16.0702C24.0904 17.5102 24.9804 18.7302 26.2404 19.2302C29.0204 20.3302 33.6704 27.6902 33.2204 33.3802C27.7604 34.6202 20.0004 31.2702 18.2804 28.7002C17.0804 25.3702 20.8304 13.6602 25.3404 11.6702H25.3304C25.8804 11.4302 26.4004 11.0902 26.8504 10.6402C28.8104 8.6902 28.8104 5.52019 26.8504 3.57019C24.8904 1.62019 21.7204 1.62019 19.7604 3.57019C18.1704 5.16019 17.8704 7.55019 18.8704 9.44019C21.1804 13.8802 16.6604 25.6502 13.6504 27.2302C13.3504 27.3902 13.0704 27.5902 12.8204 27.8402C11.4904 29.1702 11.4904 31.3202 12.8204 32.6502C13.8404 33.6602 15.3404 33.9002 16.5804 33.3602C19.3204 32.1802 27.8304 34.1002 31.5504 38.4402C28.5704 43.1702 20.7004 46.2702 17.6704 45.6702C14.4604 44.1602 8.81039 33.2402 10.5904 28.6502H10.5804C10.8004 28.0902 10.9204 27.4802 10.9204 26.8502C10.9204 24.0902 8.68039 21.8502 5.91039 21.8502C3.14039 21.8502 0.900391 24.0902 0.900391 26.8502C0.900391 29.1002 2.39038 31.0002 4.43038 31.6302C9.21038 33.1402 14.3504 44.6502 13.3504 47.9002C13.2504 48.2202 13.1904 48.5602 13.1904 48.9202C13.1904 50.8002 14.7104 52.3202 16.6004 52.3202C18.0404 52.3202 19.2704 51.4302 19.7704 50.1702C20.8704 47.4002 28.2504 42.7602 33.9504 43.2002C35.1904 48.6502 31.8304 56.3902 29.2604 58.1002C25.9204 59.3002 14.1904 55.5602 12.1904 51.0602V51.0702C11.9504 50.5202 11.6004 50.0102 11.1504 49.5602C9.19038 47.6102 6.02039 47.6102 4.06039 49.5602C2.10039 51.5102 2.10039 54.6802 4.06039 56.6302C5.65039 58.2202 8.05039 58.5102 9.94039 57.5202C14.3904 55.2102 26.1804 59.7202 27.7704 62.7302C27.9304 63.0302 28.1304 63.3102 28.3804 63.5602C29.7104 64.8902 31.8704 64.8902 33.2004 63.5602C34.2204 62.5502 34.4504 61.0502 33.9204 59.8102C32.7304 57.0702 34.6604 48.5802 39.0104 44.8802C43.7504 47.8502 46.8604 55.7002 46.2604 58.7302C44.7504 61.9302 33.8004 67.5702 29.2004 65.8002V65.8102C28.6404 65.5902 28.0304 65.4702 27.3904 65.4702C24.6204 65.4702 22.3804 67.7102 22.3804 70.4702C22.3804 73.2302 24.6204 75.4702 27.3904 75.4702C29.6404 75.4702 31.5504 73.9902 32.1804 71.9502C33.6904 67.1802 45.2304 62.0502 48.4804 63.0502C48.8004 63.1502 49.1504 63.2102 49.5004 63.2102C51.3804 63.2102 52.9104 61.6902 52.9104 59.8102C52.9104 58.3702 52.0204 57.1502 50.7604 56.6502C47.9804 55.5502 43.3304 48.1902 43.7804 42.5002C49.2404 41.2602 57.0004 44.6102 58.7204 47.1802C59.9204 50.5102 56.1704 62.2202 51.6604 64.2102H51.6704C51.1204 64.4502 50.6004 64.7902 50.1504 65.2402C48.1904 67.1902 48.1904 70.3602 50.1504 72.3102C52.1104 74.2602 55.2804 74.2602 57.2404 72.3102C58.8304 70.7202 59.1304 68.3302 58.1304 66.4402C55.8204 62.0002 60.3404 50.2302 63.3504 48.6502C63.6504 48.4902 63.9304 48.2902 64.1804 48.0402C65.5104 46.7102 65.5104 44.5602 64.1804 43.2302C63.1604 42.2202 61.6604 41.9802 60.4204 42.5202C57.6804 43.7002 49.1704 41.7802 45.4504 37.4402C48.4304 32.7102 56.3004 29.6102 59.3304 30.2102C62.5404 31.7202 68.1904 42.6402 66.4104 47.2302H66.4204C66.2004 47.7902 66.0804 48.4002 66.0804 49.0302C66.0804 51.7902 68.3204 54.0302 71.0904 54.0302C73.8604 54.0302 76.1004 51.7902 76.1004 49.0302C76.1004 46.7802 74.6204 44.8802 72.5704 44.2502Z" fill="black"/>
</svg>
