<svg width="77" height="76" viewBox="0 0 77 76" fill="none" xmlns="http://www.w3.org/2000/svg">
<path d="M74.1899 30.7001C74.7899 30.1001 75.4099 29.5901 76.0999 29.1301C75.3899 26.0101 74.2799 23.0401 72.8399 20.2701C72.3699 20.3401 71.8899 20.3601 71.3999 20.3601C64.3699 20.3601 58.6399 14.6501 58.6399 7.61012C58.6399 6.77012 58.7299 5.95012 58.8799 5.15012C56.2199 3.49012 53.3499 2.16012 50.3099 1.19012C50.0199 1.57012 49.6899 1.92013 49.3299 2.27013C44.3399 7.25013 36.2599 7.25013 31.2899 2.27013C30.6899 1.67013 30.1799 1.03012 29.7099 0.370117C26.5799 1.08012 23.6099 2.19012 20.8299 3.62012C20.8999 4.08012 20.9199 4.57012 20.9199 5.06012C20.9199 12.1001 15.1899 17.7901 8.15989 17.7901C7.31989 17.7901 6.46988 17.7001 5.66988 17.5501C4.00988 20.2101 2.66988 23.0801 1.69988 26.1201C2.07988 26.4101 2.42988 26.7201 2.78988 27.0701C7.77988 32.0501 7.77988 40.1101 2.78988 45.0901C2.18988 45.6901 1.54988 46.2001 0.879883 46.6601C1.58988 49.7801 2.69988 52.7501 4.13988 55.5201C4.60988 55.4501 5.08989 55.4301 5.57989 55.4301C12.6399 55.4301 18.3399 61.1201 18.3399 68.1601C18.3399 69.0001 18.2499 69.8201 18.0999 70.6201C20.7599 72.2801 23.6499 73.6101 26.6899 74.5801C26.9799 74.2001 27.3099 73.8501 27.6399 73.5001C32.6299 68.5401 40.7099 68.5401 45.6999 73.5001C46.2999 74.1001 46.8099 74.7201 47.2799 75.4001C50.4099 74.6901 53.3799 73.5801 56.1599 72.1501C56.0899 71.6901 56.0699 71.2001 56.0699 70.7101C56.0699 63.6901 61.7699 57.9801 68.8299 57.9801C69.6699 57.9801 70.4899 58.0701 71.2899 58.2201C72.9499 55.5601 74.2899 52.7101 75.2599 49.6701C74.8799 49.3601 74.5299 49.0501 74.1699 48.7001C69.2199 43.7201 69.2199 35.6601 74.1899 30.7001ZM38.4999 50.7401C31.3799 50.7401 25.6199 44.9901 25.6199 37.8901C25.6199 30.7901 31.3899 25.0401 38.4999 25.0401C45.6099 25.0401 51.3799 30.7901 51.3799 37.8901C51.3799 44.9901 45.6099 50.7401 38.4999 50.7401Z" stroke="#00ff3c" stroke-width="0.5" stroke-miterlimit="50"/>
</svg>
