<svg width="80" height="80" viewBox="0 0 80 80" fill="none" xmlns="http://www.w3.org/2000/svg">
<path d="M79.0199 35.3198C78.5999 31.5598 77.6499 27.9198 76.1799 24.4498C76.1699 24.4198 76.1599 24.3898 76.1499 24.3498C76.1399 24.3198 76.1199 24.2999 76.1099 24.2799C75.6199 23.1399 75.0799 22.0198 74.4899 20.9198C72.0499 16.4198 68.8199 12.5098 64.8899 9.26985C62.0299 6.91985 58.8699 5.00982 55.4899 3.54982C55.3899 3.49982 55.2899 3.44986 55.1899 3.39986C55.1599 3.38986 55.1199 3.37983 55.0899 3.36983C53.7899 2.82983 52.4499 2.33983 51.0799 1.93983C45.9799 0.429833 40.7299 -0.0401913 35.4899 0.539809C31.7199 0.959809 28.0799 1.90983 24.6099 3.36983C24.5799 3.37983 24.5499 3.38986 24.5199 3.39986V3.4098V3.39986C24.4899 3.40986 24.4699 3.42983 24.4499 3.43983C23.3099 3.92983 22.1899 4.46983 21.0899 5.05983C16.5899 7.48983 12.6699 10.7199 9.42986 14.6499C7.06986 17.5099 5.15987 20.6598 3.69987 24.0398C3.64987 24.1398 3.59987 24.2399 3.54987 24.3399C3.53987 24.3699 3.52988 24.4098 3.51988 24.4398C2.97988 25.7398 2.48987 27.0798 2.08987 28.4498C0.569868 33.5398 0.0998737 38.7799 0.689874 44.0199C1.10987 47.7799 2.05987 51.4198 3.52987 54.8898C3.53987 54.9198 3.54987 54.9498 3.55987 54.9798C3.56987 54.9998 3.58988 55.0198 3.59988 55.0498C4.08988 56.1898 4.62987 57.3098 5.21987 58.4098C7.65987 62.8998 10.8899 66.8198 14.8199 70.0598C17.6799 72.4098 20.8399 74.3199 24.2199 75.7799C24.3199 75.8299 24.4199 75.8798 24.5199 75.9298C24.5599 75.9498 24.5899 75.9499 24.6299 75.9599C25.9299 76.4999 27.2699 76.9798 28.6399 77.3898C32.3199 78.4798 36.0799 79.0299 39.8599 79.0299C41.3099 79.0299 42.7699 78.9498 44.2299 78.7898C47.9899 78.3698 51.6399 77.4199 55.1099 75.9599C55.1399 75.9499 55.1799 75.9398 55.2099 75.9298C55.2399 75.9198 55.2599 75.8998 55.2799 75.8898C56.4199 75.3998 57.5399 74.8699 58.6399 74.2699C63.1399 71.8299 67.0599 68.6098 70.2999 64.6798C72.6599 61.8198 74.5699 58.6698 76.0299 55.2898C76.0799 55.1898 76.1299 55.0898 76.1799 54.9898C76.1899 54.9598 76.1999 54.9198 76.2099 54.8898C76.7499 53.5898 77.2399 52.2498 77.6399 50.8798C79.1299 45.7998 79.5999 40.5598 79.0199 35.3198ZM48.3299 58.7099C53.7499 68.7899 53.8099 71.9298 53.6999 72.6598C52.3899 72.3098 48.3299 68.8698 40.7099 57.5498C39.6999 56.0498 37.9599 55.2599 36.1499 55.5199C34.3499 55.7699 32.8799 57.0098 32.3199 58.7398C28.7099 69.9198 26.4199 72.1798 25.8099 72.5998C25.1599 71.4498 24.8099 66.2799 27.5899 53.2699C27.9799 51.4599 27.2999 49.6399 25.8199 48.5299C24.3399 47.4099 22.3999 47.2699 20.7699 48.1499C10.6799 53.5599 7.52987 53.6299 6.79987 53.5199C7.15987 52.2099 10.6099 48.1498 21.9299 40.5598C23.4399 39.5498 24.2099 37.8098 23.9599 36.0098C23.7099 34.2098 22.4699 32.7398 20.7399 32.1798C9.56988 28.5798 7.28987 26.2998 6.85987 25.6898C8.01987 25.0498 13.2099 24.6998 26.2099 27.4698C26.5499 27.5398 26.8799 27.5798 27.2099 27.5798C28.6699 27.5798 30.0499 26.8998 30.9599 25.6898C32.0699 24.2098 32.2099 22.2799 31.3399 20.6499C25.9199 10.5699 25.8599 7.42984 25.9699 6.69984C27.2799 7.04984 31.3399 10.4898 38.9599 21.8098C39.8499 23.1298 41.2899 23.8898 42.8399 23.8898C43.0599 23.8898 43.2899 23.8799 43.5099 23.8399C45.3099 23.5899 46.7799 22.3498 47.3399 20.6198C50.9499 9.43983 53.2399 7.17984 53.8499 6.75984C54.4999 7.90984 54.8499 13.0799 52.0699 26.0899C51.6799 27.8999 52.3599 29.7198 53.8399 30.8298C54.6799 31.4598 55.6699 31.7799 56.6599 31.7799C57.4199 31.7799 58.1899 31.5899 58.8999 31.2099C68.9899 25.7999 72.1399 25.7299 72.8699 25.8399C72.5099 27.1499 69.0599 31.2098 57.7399 38.7998C56.2299 39.8098 55.4599 41.5498 55.7099 43.3498C55.9599 45.1498 57.1999 46.6198 58.9299 47.1798C70.0999 50.7798 72.3799 53.0598 72.8099 53.6698C71.6499 54.3098 66.4599 54.6598 53.4599 51.8898C51.6399 51.5098 49.8199 52.1898 48.7099 53.6698C47.5999 55.1498 47.4499 57.0799 48.3299 58.7099ZM4.12988 43.6499C3.59988 38.8799 4.02987 34.1098 5.40987 29.4698C5.42987 29.3898 5.45987 29.3198 5.47987 29.2498C7.37987 30.7298 11.2899 32.8299 19.6699 35.5199C20.3199 35.7299 20.4699 36.2798 20.4999 36.4998C20.5299 36.7198 20.5399 37.2798 19.9799 37.6598C15.8799 40.4098 8.75987 45.1898 5.29987 49.5098C4.74987 47.5898 4.34988 45.6399 4.12988 43.6499ZM75.5399 35.7099C76.0699 40.4799 75.6399 45.2498 74.2599 49.8898C74.2399 49.9698 74.2099 50.0398 74.1899 50.1098C72.2899 48.6298 68.3799 46.5299 59.9999 43.8399C59.3499 43.6299 59.1999 43.0798 59.1699 42.8598C59.1399 42.6398 59.1299 42.0798 59.6899 41.6998C63.7899 38.9498 70.9099 34.1698 74.3699 29.8498C74.9199 31.7598 75.3099 33.7099 75.5399 35.7099ZM71.2899 22.3798C68.9399 22.7198 64.7999 24.0598 57.2399 28.1198C56.6299 28.4498 56.1299 28.1598 55.9399 28.0198C55.7599 27.8798 55.3399 27.4898 55.4899 26.8098C57.4699 17.5498 57.9999 11.9898 57.7499 8.59981C59.4699 9.58981 61.1099 10.7098 62.6599 11.9798C66.1799 14.8698 69.0799 18.3698 71.2899 22.3798ZM35.8599 4.01985C37.1899 3.86985 38.5099 3.79982 39.8399 3.79982C43.2799 3.79982 46.7099 4.29982 50.0699 5.29982C50.1499 5.31982 50.2199 5.34983 50.2899 5.36983C48.7999 7.26983 46.7099 11.1699 44.0099 19.5299C43.7999 20.1799 43.2499 20.3298 43.0299 20.3598C42.8099 20.3898 42.2399 20.3999 41.8699 19.8399C39.1099 15.7499 34.3299 8.63983 30.0099 5.18983C31.9099 4.63983 33.8599 4.24985 35.8599 4.01985ZM12.0899 16.8798C14.9899 13.3598 18.4999 10.4698 22.5099 8.25984C22.8499 10.6098 24.1899 14.7398 28.2499 22.2898C28.5799 22.8998 28.2899 23.3898 28.1499 23.5798C28.0099 23.7698 27.6099 24.1798 26.9299 24.0398C17.6599 22.0698 12.0899 21.5299 8.69987 21.7799C9.69987 20.0699 10.8199 18.4298 12.0899 16.8798ZM8.37988 56.9798C10.7299 56.6398 14.8699 55.2998 22.4299 51.2398C23.0499 50.9098 23.5399 51.1999 23.7299 51.3399C23.9099 51.4799 24.3299 51.8698 24.1799 52.5498C22.1999 61.8098 21.6699 67.3698 21.9199 70.7598C20.1999 69.7698 18.5599 68.6498 17.0099 67.3798C13.4899 64.4798 10.5899 60.9798 8.37988 56.9798ZM43.8099 75.3298C39.0299 75.8698 34.2499 75.4298 29.6099 74.0598C29.5299 74.0398 29.4599 74.0098 29.3899 73.9898C30.8799 72.0898 32.9699 68.1898 35.6699 59.8298C35.8799 59.1798 36.4299 59.0298 36.6499 58.9998C36.8699 58.9698 37.4399 58.9599 37.8099 59.5199C40.5699 63.6099 45.3499 70.7198 49.6699 74.1798C47.7599 74.7098 45.8099 75.1098 43.8099 75.3298ZM67.5799 62.4698C64.6799 65.9898 61.1699 68.8799 57.1599 71.0899C56.8199 68.7399 55.4799 64.6098 51.4199 57.0598C51.0899 56.4498 51.3799 55.9599 51.5199 55.7699C51.6599 55.5799 52.0599 55.1698 52.7399 55.3098C62.0099 57.2898 67.5799 57.8198 70.9699 57.5698C69.9699 59.2898 68.8499 60.9298 67.5799 62.4698Z" fill="#00ff3c"/>
</svg>
