<svg width="77" height="76" viewBox="0 0 77 76" fill="none" xmlns="http://www.w3.org/2000/svg">
<path d="M75.99 37.1H70.74C70.67 35.33 70.47 33.5601 70.11 31.8401L67.65 32.3401C67.97 33.9001 68.16 35.5 68.23 37.1H64.15C63.51 23.89 52.88 13.2801 39.63 12.6401V8.57007C41.24 8.64007 42.84 8.82008 44.4 9.14008L44.9 6.69006C43.17 6.34006 41.4 6.13007 39.63 6.07007V0.830078H37.12V6.07007C35.34 6.14007 33.57 6.34006 31.85 6.69006L32.35 9.14008C33.91 8.82008 35.51 8.63007 37.12 8.57007V12.6401C23.88 13.2801 13.24 23.89 12.6 37.1H8.54004C8.61004 35.5 8.80004 33.9001 9.12004 32.3401L6.66004 31.8401C6.31004 33.5601 6.10004 35.33 6.03004 37.1H0.790039V39.6H6.04004C6.11004 41.37 6.31004 43.14 6.67004 44.86L9.13004 44.36C8.81004 42.8 8.62004 41.2 8.55004 39.6H12.63C13.27 52.81 23.9 63.4201 37.15 64.0601V68.1301C35.54 68.0601 33.94 67.8801 32.38 67.5601L31.88 70.0101C33.61 70.3601 35.38 70.5701 37.15 70.6401V75.8701H39.66V70.6401C41.44 70.5701 43.2 70.3701 44.93 70.0101L44.43 67.5601C42.87 67.8801 41.27 68.0701 39.66 68.1301V64.0601C52.9 63.4201 63.54 52.81 64.18 39.6H68.26C68.19 41.2 68 42.8 67.68 44.36L70.14 44.86C70.49 43.14 70.7 41.37 70.77 39.6H76.02V37.1H75.99ZM61.65 37.1H58.38C58.24 34.84 57.75 32.6501 56.87 30.5601L54.56 31.5301C55.31 33.3001 55.74 35.1701 55.88 37.0901H39.64V20.9001C41.55 21.0301 43.44 21.4601 45.22 22.2101L46.2 19.91C44.11 19.03 41.89 18.54 39.65 18.41V15.1401C51.5 15.7801 61.02 25.27 61.65 37.1ZM37.13 15.1401V18.41C34.89 18.55 32.66 19.03 30.58 19.91L31.56 22.2101C33.34 21.4601 35.23 21.0401 37.14 20.9001V37.0901H20.9C21.04 35.1701 21.46 33.3001 22.22 31.5301L19.91 30.5601C19.03 32.6401 18.53 34.84 18.4 37.1H15.13C15.76 25.27 25.27 15.7801 37.13 15.1401ZM15.13 39.6H18.4C18.54 41.86 19.03 44.0501 19.91 46.1401L22.22 45.17C21.47 43.4 21.04 41.53 20.9 39.61H37.13V55.8C35.22 55.67 33.33 55.2401 31.55 54.4901L30.57 56.79C32.66 57.67 34.86 58.16 37.12 58.3V61.5601C25.27 60.9301 15.76 51.43 15.13 39.6ZM39.64 61.5601V58.3C41.9 58.16 44.11 57.67 46.19 56.79L45.21 54.4901C43.44 55.2401 41.55 55.66 39.63 55.8V39.6H55.86C55.72 41.52 55.3 43.39 54.54 45.16L56.85 46.1301C57.73 44.0501 58.23 41.8501 58.36 39.5901H61.63C61.02 51.4301 51.5 60.9301 39.64 61.5601Z" fill="black"/>
</svg>
