<svg width="76" height="76" viewBox="0 0 76 76" fill="none" xmlns="http://www.w3.org/2000/svg">
<path d="M36.02 75.81C35.99 75.81 35.97 75.81 35.94 75.81C35.83 75.69 35.81 75.55 35.85 75.39C35.97 74.92 36.06 74.44 36.18 73.97C36.22 73.83 36.3 73.69 36.35 73.55C36.4 73.43 36.44 73.3 36.47 73.17C36.5 73.04 36.5 72.9 36.52 72.76C36.55 72.6 36.61 72.44 36.65 72.27C36.79 71.63 36.01 71.25 35.59 71.41C35.48 71.45 35.37 71.5 35.28 71.54C35.24 71.63 35.2 71.71 35.17 71.79C35.09 71.8 35.03 71.8 34.97 71.8C34.85 71.95 34.74 72.09 34.6 72.28C34.6 72.28 34.59 72.33 34.59 72.36C34.5 72.39 34.42 72.4 34.37 72.45C34.08 72.74 33.79 73.03 33.51 73.32C33.18 73.66 32.86 74.01 32.53 74.35C32.46 74.42 32.34 74.48 32.24 74.49C31.73 74.52 31.23 74.53 30.72 74.53C30.52 74.53 30.35 74.59 30.27 74.74C29.93 74.7 29.62 74.66 29.29 74.62C29.46 74.24 29.62 73.91 29.78 73.57C29.78 73.57 29.78 73.57 29.79 73.57C29.89 73.37 29.99 73.16 30.1 72.93C30.26 72.9 30.35 72.75 30.41 72.59C30.53 72.26 30.61 71.91 30.75 71.58C30.97 71.09 30.41 70.52 29.97 70.54C29.46 70.56 29.08 70.83 28.73 71.15C28.69 71.19 28.65 71.24 28.59 71.28C28.34 71.44 28.08 71.59 27.84 71.75C27.29 72.13 26.74 72.51 26.18 72.9C25.68 72.87 25.16 72.84 24.66 72.79C24.35 72.76 24.05 72.71 23.78 72.94C23.56 72.79 23.27 72.96 23.07 72.75C23.29 72.39 23.5 72.05 23.71 71.7C23.73 71.63 23.78 71.58 23.81 71.52C23.94 71.3 24.09 71.11 24.33 71C24.41 70.96 24.52 70.86 24.53 70.79C24.53 70.52 24.73 70.36 24.85 70.15C25.08 69.76 25.2 69.27 24.86 68.92C24.59 68.64 24.22 68.53 23.86 68.67C23.59 68.78 23.32 68.91 23.06 69.03C22.21 69.43 21.36 69.82 20.51 70.21C20.4 70.26 20.26 70.3 20.15 70.27C19.8 70.19 19.45 70.07 19.1 69.98C18.83 69.91 18.56 69.84 18.28 69.78C18.16 69.75 18.03 69.76 17.91 69.74C17.72 69.69 17.52 69.64 17.33 69.57C17.24 69.54 17.16 69.49 17.07 69.46C17.44 69.13 17.8 68.84 18.07 68.41C18.09 68.4 18.17 68.38 18.24 68.34C18.35 68.28 18.45 68.22 18.55 68.15C18.68 68.07 18.84 68.01 18.94 67.9C19.16 67.66 19.33 67.38 19.55 67.14C19.9 66.77 19.78 66.17 19.39 65.87C19.07 65.62 18.73 65.67 18.37 65.77C17.61 65.97 16.86 66.16 16.1 66.36C15.8 66.44 15.5 66.53 15.19 66.6C15.04 66.63 14.87 66.67 14.73 66.63C14.43 66.53 14.15 66.37 13.86 66.24C13.53 66.09 13.22 65.89 12.82 65.9C12.53 65.91 12.28 65.78 12.05 65.54C12.35 65.28 12.64 65.04 12.93 64.79C13 64.73 13.04 64.64 13.09 64.56C13.1 64.54 13.11 64.52 13.13 64.48C13.17 64.51 13.2 64.53 13.25 64.57C13.41 64.24 13.78 64.39 14.04 64.25C14.01 63.95 14.24 63.84 14.42 63.69C14.59 63.55 14.75 63.39 14.88 63.21C15.04 63.01 14.97 62.78 14.91 62.55C14.82 62.22 14.65 62.01 14.31 61.97C14.05 61.94 13.79 61.94 13.53 61.95C13.06 61.98 12.6 62.04 12.13 62.08C11.87 62.1 11.6 62.1 11.34 62.13C11.1 62.16 10.87 62.22 10.63 62.24C10.45 62.25 10.24 62.26 10.08 62.19C9.87999 62.11 9.71 61.95 9.53 61.81C9.27 61.61 9.02001 61.41 8.76001 61.21C8.53001 61.03 8.27999 60.87 8.04999 60.7C7.91999 60.61 7.80001 60.5 7.67001 60.4C7.74001 60.34 7.79 60.29 7.84 60.25C8.12 60.12 8.39001 59.98 8.67001 59.87C8.89001 59.78 9.07999 59.57 9.35999 59.65C9.71999 59.74 9.74 59.72 9.87 59.36C10.14 59.21 10.42 59.05 10.7 58.88C10.78 58.83 10.86 58.76 10.89 58.68C11.07 58.3 10.93 57.74 10.55 57.51C10.35 57.45 10.15 57.36 9.95001 57.33C9.59001 57.28 9.23 57.27 8.87 57.24C8.34 57.19 7.82001 57.13 7.29001 57.07C7.22001 57.09 7.14999 57.04 7.07999 57.03C6.88999 57.01 6.69999 57.01 6.51999 56.98C6.42999 56.97 6.32999 56.95 6.26999 56.89C5.94999 56.59 5.64001 56.29 5.35001 55.97C5.10001 55.71 4.86 55.45 4.47 55.42C4.46 55.42 4.45001 55.41 4.42001 55.39C4.31001 55.22 4.18001 55.04 4.04001 54.84C4.13001 54.81 4.17 54.79 4.22 54.78C4.5 54.7 4.79001 54.63 5.07001 54.55C5.45001 54.44 5.81001 54.24 6.23001 54.42C6.24001 54.42 6.24999 54.42 6.23999 54.42C6.38999 54.32 6.51001 54.21 6.64001 54.15C6.80001 54.08 6.98001 54.05 7.14001 53.98C7.32001 53.89 7.51001 53.8 7.64001 53.66C8.09001 53.18 7.81 52.32 7.16 52.14C6.9 52.07 6.64 52 6.38 51.93C5.48 51.68 4.59 51.42 3.69 51.16C3.58 51.13 3.45999 51.06 3.39999 50.98C2.99999 50.46 2.59 49.93 2.22 49.39C2.05 49.14 1.94001 48.84 1.79001 48.53C1.90001 48.51 1.97001 48.5 2.04001 48.49C2.44001 48.46 2.83999 48.44 3.23999 48.42C3.42999 48.41 3.61 48.39 3.78 48.52C3.88 48.6 3.97999 48.56 4.07999 48.47C4.15999 48.4 4.29 48.33 4.38 48.35C4.8 48.42 5.16 48.32 5.47 48C5.49 47.96 5.50999 47.89 5.54999 47.84C5.68999 47.66 5.72001 47.45 5.67001 47.24C5.59001 46.9 5.37 46.65 5.06 46.5C4.74 46.34 4.42999 46.18 4.10999 46.03C3.77999 45.87 3.43001 45.74 3.10001 45.58C2.75001 45.41 2.42001 45.21 2.07001 45.05C1.78001 44.92 1.6 44.74 1.5 44.43C1.42 44.19 1.28001 43.98 1.17001 43.75C1.00001 43.17 0.91 42.96 0.5 42.73C0.44 42.52 0.369988 42.3 0.299988 42.07C0.379988 42.04 0.440001 42.02 0.470001 42.01C0.570001 42.05 0.650001 42.09 0.720001 42.1C0.960001 42.12 1.21001 42.12 1.45001 42.15C1.80001 42.19 2.18001 42.11 2.48001 42.4C2.53001 42.45 2.69001 42.44 2.76001 42.4C2.94001 42.29 3.10999 42.29 3.29999 42.32C3.42999 42.34 3.57999 42.34 3.70999 42.32C4.34999 42.24 4.67001 41.66 4.42001 41.07C4.31001 40.82 4.11001 40.66 3.89001 40.52C3.56001 40.3 3.26 40.04 2.94 39.8C2.76 39.67 2.57 39.56 2.38 39.43C2.24 39.33 2.11999 39.23 1.98999 39.13C1.73999 38.95 1.49001 38.77 1.26001 38.58C1.18001 38.51 1.07999 38.43 1.04999 38.33C0.949988 38.07 0.879998 37.8 0.809998 37.52C0.709998 37.16 0.599999 36.8 0.529999 36.43C0.469999 36.1 0.450004 35.76 0.410004 35.39C0.530004 35.42 0.609993 35.43 0.679993 35.45C0.999993 35.54 1.32 35.64 1.63 35.73C1.9 35.81 2.22001 35.82 2.26001 36.25C2.47001 36.19 2.65001 36.14 2.85001 36.08C3.08001 36.2 3.29999 36.23 3.67999 36.24C4.05999 36.25 4.25 36.02 4.37 35.71C4.53 35.31 4.41 34.93 4.12 34.61C3.85 34.31 3.54001 34.04 3.26001 33.75C2.74001 33.21 2.22999 32.66 1.70999 32.12C1.59999 32.01 1.55999 31.89 1.54999 31.74C1.51999 31.18 1.48 30.61 1.44 30.05C1.44 30 1.42001 29.94 1.39001 29.91C1.19001 29.68 1.21 29.42 1.22 29.15C1.22 29.06 1.22 28.96 1.22 28.84C1.32 28.87 1.37001 28.89 1.42001 28.91C2.01001 29.22 2.6 29.54 3.19 29.83C3.46 29.97 3.75999 30.06 4.04999 30.16C4.23999 30.22 4.43 30.3 4.63 30.3C4.81 30.3 5.03001 30.26 5.14001 30.14C5.29001 29.99 5.38999 29.75 5.42999 29.54C5.48999 29.18 5.30999 28.87 5.10999 28.57C4.75999 28.06 4.41 27.53 4.06 27.02C3.83 26.68 3.59001 26.35 3.35001 26.01C3.34001 26.01 3.33999 26.02 3.32999 26.02C3.27999 25.91 3.23001 25.81 3.20001 25.73C3.35001 24.71 3.27 23.69 3.66 22.73C3.73 22.74 3.80001 22.75 3.82001 22.75C4.09001 22.93 4.31999 23.08 4.54999 23.23C4.83999 23.42 5.18 23.57 5.19 23.99C5.28 24.02 5.34 24.04 5.41 24.06C5.6 24.14 5.79001 24.21 5.98001 24.3C6.11001 24.36 6.22 24.46 6.34 24.52C6.67 24.68 6.97 24.6 7.22 24.36C7.46 24.12 7.57 23.82 7.47 23.49C7.38 23.21 7.27 22.94 7.16 22.67C6.91 22.09 6.67 21.51 6.41 20.94C6.31 20.71 6.18999 20.49 6.07999 20.26C6.03999 20.19 6.02 20.11 6 20.03C5.98 19.92 5.92999 19.79 5.95999 19.69C6.07999 19.27 6.23001 18.86 6.35001 18.44C6.41001 18.22 6.48 17.98 6.44 17.76C6.38 17.41 6.59 17.15 6.63 16.79C6.86 16.98 7.06 17.13 7.25 17.29C7.26 17.28 7.26999 17.27 7.26999 17.26C7.27999 17.31 7.29001 17.35 7.29001 17.35C7.45001 17.49 7.57 17.59 7.69 17.71C7.78 17.81 7.87 17.92 7.94 18.03C8.02 18.15 8.08 18.27 8.16 18.39C8.22 18.48 8.27999 18.61 8.35999 18.64C8.55999 18.7 8.68001 18.83 8.82001 18.95C8.88001 19 8.95999 19.03 9.01999 19.07C9.04999 19.12 9.08 19.17 9.12 19.22C9.29 19.4 9.51999 19.35 9.73999 19.36C9.93999 19.37 10.1 19.31 10.22 19.16C10.46 18.88 10.57 18.57 10.49 18.2C10.36 17.64 10.21 17.08 10.07 16.51C9.92001 15.89 9.75999 15.26 9.60999 14.64C9.80999 14.21 10.02 13.77 10.22 13.34C10.25 13.26 10.3 13.18 10.35 13.1C10.56 12.75 10.76 12.4 10.97 12.05C10.99 12.01 11.04 11.99 11.09 11.95C11.34 12.31 11.57 12.66 11.82 12.99C11.99 13.22 12.13 13.44 12.07 13.74C12.13 13.78 12.18 13.82 12.23 13.86C12.45 14.06 12.7 14.24 12.87 14.48C13.1 14.8 13.79 14.87 14.06 14.52C14.27 14.25 14.36 13.93 14.35 13.6C14.34 13.3 14.29 12.99 14.27 12.69C14.22 11.91 14.18 11.14 14.13 10.36C14.12 10.18 14.19 10.04 14.29 9.9C14.44 9.69 14.66 9.51999 14.66 9.32999C14.83 9.13999 14.95 9.01 15.06 8.87C15.2 8.7 15.35 8.53001 15.35 8.28001C15.35 7.92001 15.67 7.81 15.88 7.59C15.97 7.73 16.05 7.85001 16.12 7.97001C16.2 8.16001 16.28 8.35001 16.37 8.53001C16.49 8.82001 16.64 9.09002 16.73 9.39002C16.79 9.60002 16.77 9.84001 17.02 9.94001C17.04 9.95001 17.05 9.98001 17.06 10C17.19 10.23 17.33 10.47 17.45 10.68C17.53 10.73 17.6 10.77 17.66 10.81C17.86 10.95 18.4 10.92 18.57 10.75C18.78 10.53 18.92 10.27 18.95 9.96C18.98 9.66 19.02 9.35999 19.06 9.04999C19.14 8.37999 19.25 7.70001 19.28 7.03001C19.3 6.53001 19.57 6.24002 19.89 5.95002C20.25 5.62002 20.59 5.27002 20.95 4.95002C21.16 4.76002 21.41 4.6 21.64 4.43C21.66 4.44 21.68 4.45001 21.7 4.47001C21.82 5.17001 22.2 5.82999 22.05 6.54999C22.14 6.60999 22.19 6.64 22.24 6.68C22.36 7.01 22.34 7.40002 22.68 7.67002C22.76 7.87002 22.96 7.96 23.32 7.93C23.66 7.9 23.9 7.67999 23.99 7.32999C24.04 7.23999 24.09 7.14999 24.13 7.04999C24.19 6.86999 24.24 6.68001 24.3 6.50001C24.55 5.68001 24.81 4.86999 25.06 4.04999C25.13 3.80999 25.25 3.62002 25.48 3.51002C25.6 3.45002 25.71 3.37999 25.81 3.29999C26.08 3.11999 26.36 2.94002 26.62 2.76002C26.75 2.58002 26.88 2.40001 27.01 2.22001C27.18 2.15001 27.37 2.07 27.56 1.99C27.57 2.02 27.59 2.05001 27.59 2.07001C27.64 2.55001 27.71 3.03 27.74 3.52C27.75 3.75 27.7 3.99001 27.69 4.22001C27.69 4.27001 27.69 4.32999 27.71 4.35999C27.85 4.55999 27.85 4.78002 27.87 5.01002C27.89 5.29002 27.98 5.54001 28.24 5.69001C28.27 5.70001 28.29 5.72002 28.32 5.73002C28.61 5.99002 29.23 5.99 29.46 5.62C29.73 5.19 29.96 4.73001 30.2 4.28001C30.35 4.00001 30.46 3.70002 30.6 3.42002C30.73 3.15002 30.89 2.89 31.03 2.62C31.14 2.42 31.25 2.23001 31.34 2.07001C31.59 1.98001 31.81 1.92001 32.01 1.82001C32.42 1.61001 32.95 1.61002 33.22 1.20002C33.54 1.13002 33.82 1.07002 34.15 1.01002C34.07 1.65002 34 2.25001 33.92 2.85001C33.91 2.84001 33.89 2.83999 33.88 2.82999C33.83 2.93999 33.73 3.05001 33.73 3.16001C33.73 3.48001 33.76 3.78999 33.79 4.10999C33.8 4.24999 33.83 4.4 33.9 4.52C34.1 4.86 34.75 5.08 35.17 4.71C35.56 4.37 35.85 3.95002 36.11 3.48002C36.15 3.45002 36.22 3.41001 36.26 3.35001C36.55 2.97001 36.83 2.58001 37.12 2.19001C37.36 1.87001 37.55 1.49 38.05 1.46C38.4 1.43 38.74 1.32002 39.09 1.23002C39.26 1.18002 39.47 1.23002 39.6 1.04002C39.78 0.770015 40.18 0.660004 40.53 0.810004C40.52 0.860004 40.51 0.920003 40.49 0.980003C40.42 1.22 40.37 1.46002 40.29 1.70002C40.15 2.13002 40.16 2.62001 39.85 2.91001C39.79 3.25001 39.76 3.52999 39.69 3.79999C39.59 4.17999 39.85 4.68 40.2 4.84C40.65 5.05 40.96 4.76 41.29 4.56C41.46 4.45 41.59 4.27001 41.74 4.13001C42.01 3.87001 42.29 3.61999 42.56 3.35999C42.74 3.17999 42.92 3 43.09 2.81C43.17 2.73 43.25 2.65001 43.33 2.57001C43.43 2.49001 43.54 2.42001 43.62 2.32001C43.75 2.15001 43.92 2.09 44.13 2.09C44.67 2.07 45.21 2.04 45.74 2.02C45.78 2.02 45.83 2.00001 45.87 2.00001C46.18 2.00001 46.5 2.00001 46.83 2.00001C46.81 2.08001 46.81 2.13002 46.79 2.17002C46.68 2.42002 46.59 2.68001 46.46 2.91001C46.3 3.20001 46.24 3.55002 45.91 3.73002C45.86 3.76002 45.85 3.85001 45.83 3.91001C45.8 3.98001 45.79 4.05 45.76 4.12C45.68 4.32 45.58 4.52001 45.51 4.72001C45.37 5.11001 45.51 5.43001 45.87 5.60001C46.11 6.11001 47.09 5.78001 47.27 5.32001C47.32 5.31001 47.37 5.31002 47.42 5.29002C47.48 5.27002 47.53 5.24001 47.59 5.22001C47.68 5.17001 47.77 5.12999 47.85 5.07999C48.51 4.64999 49.16 4.21001 49.82 3.78001C49.91 3.72001 50.03 3.69002 50.14 3.70002C50.67 3.76002 51.2 3.84002 51.74 3.89002C51.87 3.90002 52.02 3.86002 52.14 3.79002C52.36 3.67002 52.85 3.74002 53.03 3.95002C52.95 4.04002 52.84 4.12002 52.77 4.23002C52.6 4.48002 52.45 4.74 52.29 4.99C52.15 5.21 52.03 5.46 51.77 5.56C51.57 5.64 51.46 5.77001 51.5 5.97001C51.4 6.10001 51.31 6.2 51.24 6.31C50.98 6.7 50.94 7.09001 51.26 7.50001C51.52 7.83001 51.97 7.91 52.41 7.71C52.79 7.54 53.17 7.36002 53.55 7.20002C53.91 7.04002 54.28 6.9 54.64 6.74C54.99 6.59 55.33 6.44002 55.67 6.29002C56.11 6.42002 56.52 6.55002 56.93 6.67002C57.12 6.73002 57.31 6.82001 57.51 6.82001C57.75 6.83001 57.95 6.91 58.15 7.02C58.29 7.09 58.44 7.17 58.63 7.27C58.21 7.67 57.83 8.03001 57.49 8.35001C57.3 8.44001 57.13 8.47001 57.04 8.57001C56.78 8.84001 56.53 9.14001 56.31 9.44001C56.12 9.71001 56.23 10.25 56.49 10.45C56.81 10.7 57.16 10.74 57.57 10.64C58.69 10.36 59.82 10.12 60.98 9.85001C61.47 10.1 61.98 10.37 62.5 10.62C62.59 10.66 62.71 10.71 62.78 10.68C63.03 10.57 63.25 10.62 63.46 10.75C63.47 10.76 63.48 10.76 63.49 10.76C63.57 10.85 63.65 10.93 63.74 11.03C63.65 11.09 63.57 11.15 63.49 11.2C63.21 11.39 62.93 11.59 62.64 11.78C62.43 11.92 62.22 12.08 61.99 12.17C61.82 12.23 61.68 12.28 61.65 12.42C61.43 12.59 61.27 12.75 61.09 12.87C60.7 13.13 60.67 13.88 61.03 14.18C61.25 14.37 61.52 14.44 61.8 14.44C62.02 14.45 62.24 14.37 62.46 14.36C62.75 14.34 63.03 14.36 63.32 14.34C63.92 14.3 64.52 14.25 65.11 14.2C65.32 14.18 65.51 14.2 65.69 14.34C66.12 14.66 66.57 14.95 66.99 15.28C67.26 15.48 67.5 15.72 67.74 15.95C67.78 15.99 67.8 16.04 67.86 16.11C67.31 16.34 66.78 16.56 66.29 16.77C66.13 16.73 66.01 16.71 65.89 16.68C65.89 16.7 65.9 16.71 65.9 16.73C65.65 16.87 65.41 17.01 65.15 17.15C64.92 17.27 64.76 17.43 64.68 17.68C64.49 18.32 65.03 18.84 65.62 18.9C65.91 18.93 66.2 18.97 66.5 19C67.03 19.06 67.57 19.12 68.1 19.16C68.52 19.2 68.94 19.19 69.33 19.4C69.37 19.46 69.41 19.54 69.47 19.6C69.79 19.93 70.12 20.26 70.46 20.58C70.52 20.64 70.61 20.69 70.68 20.7C71.04 20.72 71.21 20.99 71.39 21.24C71.4 21.25 71.39 21.26 71.4 21.3C71.37 21.33 71.34 21.37 71.3 21.41C71.29 21.39 71.29 21.38 71.28 21.36C70.61 21.51 69.93 21.67 69.27 21.82C69.21 21.78 69.17 21.75 69.12 21.71C69.05 21.91 68.9 21.99 68.71 22.02C68.64 22.03 68.56 22.04 68.49 22.07C67.77 22.32 67.63 22.64 67.78 23.32C67.81 23.47 67.97 23.64 68.11 23.72C68.37 23.86 68.66 23.95 68.94 24.04C69.36 24.17 69.78 24.28 70.2 24.41C70.61 24.53 71.03 24.65 71.44 24.79C71.63 24.85 71.87 24.89 72 25.03C72.3 25.35 72.55 25.72 72.79 26.08C73.04 26.46 73.25 26.86 73.48 27.25C73.51 27.31 73.53 27.38 73.57 27.47C73.3 27.5 73.07 27.53 72.83 27.56C72.83 27.57 72.83 27.58 72.83 27.59C72.47 27.59 72.12 27.59 71.76 27.59C71.76 27.57 71.77 27.55 71.77 27.53C71.65 27.5 71.48 27.41 71.41 27.45C71.17 27.62 70.92 27.57 70.67 27.57C70.39 27.57 70.16 27.69 70.02 27.92C69.73 28.4 69.87 28.91 70.3 29.18C70.76 29.47 71.27 29.69 71.76 29.94C72.35 30.23 72.94 30.52 73.52 30.82C73.65 30.89 73.77 31 73.84 31.13C74.1 31.64 74.33 32.16 74.58 32.68C74.62 32.76 74.67 32.87 74.74 32.9C75.07 33.04 75 33.36 75.15 33.63C75.01 33.64 74.92 33.65 74.83 33.65C74.37 33.62 73.91 33.58 73.45 33.53C73.25 33.51 73.03 33.54 72.86 33.38C72.84 33.37 72.81 33.37 72.79 33.37C72.53 33.37 72.27 33.37 72 33.36C71.43 33.33 71.21 33.63 71.11 34.11C71.02 34.53 71.24 34.84 71.56 35.09C71.96 35.39 72.37 35.7 72.78 35.99C72.95 36.11 73.13 36.2 73.3 36.31C73.52 36.49 73.73 36.69 73.97 36.84C74.3 37.04 74.55 37.27 74.63 37.67C74.75 38.23 74.9 38.78 75.02 39.35C75.08 39.64 75.11 39.95 75.15 40.28C75.04 40.26 74.97 40.25 74.9 40.23C74.6 40.14 74.3 40.06 74 39.97C73.69 39.88 73.36 39.84 73.18 39.51C73.17 39.48 73.13 39.47 73.14 39.47C72.89 39.42 72.67 39.35 72.45 39.34C72.18 39.32 71.9 39.25 71.65 39.42C71.22 39.71 71.12 40.35 71.48 40.77C71.6 40.91 71.73 41.02 71.86 41.15C72.08 41.38 72.3 41.6 72.52 41.83C72.9 42.23 73.27 42.64 73.65 43.04C73.77 43.15 73.88 43.26 73.98 43.39C74.04 43.47 74.12 43.56 74.13 43.66C74.16 43.87 74.16 44.1 74.18 44.31C74.22 44.71 74.26 45.11 74.3 45.52C74.3 45.57 74.33 45.62 74.36 45.65C74.65 45.91 74.47 46.23 74.52 46.58C74.28 46.47 74.1 46.37 73.91 46.3C73.56 46.16 73.25 45.91 72.86 45.9C72.79 45.83 72.71 45.76 72.64 45.7C72.56 45.63 72.48 45.56 72.41 45.49C72.16 45.42 71.92 45.32 71.69 45.2C71.05 44.87 70.44 45.45 70.42 45.97C70.4 46.37 70.65 46.66 70.83 46.97C71.01 47.28 71.22 47.57 71.43 47.86C71.72 48.28 72.02 48.7 72.31 49.12C72.36 49.14 72.41 49.17 72.45 49.19C72.63 49.51 72.67 49.83 72.62 50.18C72.56 50.68 72.53 51.18 72.49 51.69C72.47 51.92 72.44 52.15 72.4 52.38C72.37 52.52 72.31 52.66 72.26 52.82C71.95 52.61 71.66 52.42 71.38 52.22C71.11 52.02 70.74 51.9 70.73 51.51C70.55 51.38 70.39 51.27 70.23 51.15C70.17 51.15 70.11 51.15 70.06 51.15C70.02 51.09 70 51.03 69.96 50.99C69.7 50.78 69.39 50.72 69.1 50.84C68.76 50.98 68.59 51.27 68.58 51.64C68.57 52.21 68.9 52.66 69.14 53.14C69.17 53.21 69.17 53.3 69.21 53.37C69.45 53.91 69.7 54.44 69.93 54.99C70.03 55.22 70.16 55.46 70.14 55.69C70.12 56.01 69.98 56.33 69.89 56.65C69.81 56.95 69.72 57.26 69.64 57.55C69.72 57.61 69.76 57.65 69.84 57.72C69.75 57.97 69.65 58.23 69.55 58.49C69.52 58.5 69.49 58.5 69.47 58.51C68.97 58.03 68.47 57.54 67.97 57.06C67.93 56.94 67.88 56.82 67.8 56.74C67.55 56.52 67.28 56.33 67.02 56.12C66.88 56.01 66.72 55.95 66.55 56C65.94 56.19 65.63 56.68 65.81 57.34C65.96 57.87 66.09 58.42 66.23 58.95C66.35 59.43 66.49 59.9 66.61 60.38C66.66 60.57 66.72 60.79 66.67 60.96C66.53 61.36 66.33 61.74 66.15 62.12C65.98 62.47 65.8 62.82 65.62 63.19C65.63 63.24 65.64 63.3 65.65 63.37C65.58 63.39 65.52 63.4 65.49 63.41C65.41 63.48 65.35 63.54 65.26 63.62C65.1 63.4 64.96 63.2 64.81 63C64.66 62.8 64.52 62.59 64.35 62.35C64.35 62.28 64.35 62.16 64.33 62.05C64.31 61.92 64.28 61.79 64.21 61.69C64.1 61.51 63.95 61.36 63.81 61.19C63.54 60.86 63.24 60.61 62.76 60.74C62.41 60.84 62.13 61.11 62.12 61.48C62.11 61.83 62.13 62.19 62.15 62.55C62.19 63.1 62.24 63.64 62.28 64.19C62.31 64.6 62.33 65.01 62.33 65.43C62.33 65.55 62.27 65.67 62.21 65.77C62.11 65.94 61.99 66.1 61.88 66.26C61.85 66.3 61.82 66.34 61.79 66.38C61.65 66.57 61.51 66.76 61.32 67.02C61.22 67.05 61.18 67.2 61.17 67.36C61.15 67.69 60.92 67.88 60.68 68.1C60.24 67.38 59.88 66.66 59.69 65.84C59.68 65.83 59.64 65.79 59.59 65.76C59.46 65.51 59.36 65.25 59.2 65.03C59.01 64.77 58.73 64.67 58.4 64.73C57.99 64.81 57.69 65.19 57.63 65.66C57.58 66.07 57.53 66.49 57.49 66.9C57.42 67.64 57.36 68.38 57.29 69.11C57.28 69.21 57.27 69.34 57.21 69.39C56.98 69.57 56.94 69.93 56.62 70.01C56.59 70.02 56.57 70.06 56.54 70.09C56.47 70.16 56.4 70.22 56.34 70.29C56.3 70.33 56.26 70.38 56.22 70.43C56.17 70.49 56.11 70.54 56.06 70.6C55.84 70.8 55.62 71 55.4 71.19C55.23 71.28 55.07 71.37 54.9 71.47C54.86 71.4 54.83 71.37 54.83 71.33C54.77 71.06 54.71 70.78 54.65 70.51C54.62 70.38 54.58 70.26 54.57 70.13C54.56 69.98 54.57 69.83 54.58 69.68C54.58 69.54 54.63 69.38 54.58 69.27C54.43 68.9 54.23 68.55 54.07 68.18C53.96 67.94 53.79 67.85 53.54 67.84C53.02 67.82 52.76 68.14 52.57 68.6C52.41 68.99 52.32 69.41 52.21 69.82C52.05 70.41 51.91 71 51.75 71.59C51.7 71.75 51.68 71.92 51.61 72.06C51.54 72.2 51.42 72.32 51.32 72.45C50.99 72.61 50.69 72.82 50.41 73.1C50.08 73.22 49.76 73.4 49.73 73.82C49.5 73.95 49.29 74.06 49.08 74.17C49.06 74.12 49.04 74.09 49.03 74.06C48.98 73.51 48.91 72.96 48.88 72.4C48.87 72.19 48.94 71.98 48.96 71.81C48.9 71.58 48.85 71.38 48.78 71.19C48.68 70.92 48.75 70.61 48.54 70.36C48.39 70.19 48.01 70 47.78 70.06C47.52 70.13 47.29 70.27 47.14 70.48C46.99 70.69 46.88 70.94 46.76 71.18C46.46 71.8 46.18 72.42 45.89 73.05C45.82 73.21 45.76 73.37 45.7 73.53C45.71 73.53 45.71 73.53 45.72 73.54C45.56 73.78 45.4 74.01 45.32 74.14C44.77 74.37 44.35 74.55 43.93 74.73C43.91 74.79 43.9 74.83 43.88 74.88C43.8 74.89 43.73 74.9 43.67 74.91C43.68 74.93 43.68 74.95 43.69 74.96C43.29 75.12 42.9 75.28 42.48 75.45C42.46 75.35 42.44 75.31 42.45 75.27C42.49 74.81 42.55 74.34 42.57 73.88C42.59 73.61 42.8 73.4 42.77 73.1C42.72 72.71 42.8 72.31 42.77 71.92C42.75 71.75 42.62 71.53 42.47 71.44C42.02 71.16 41.56 71.25 41.23 71.68C40.95 72.04 40.69 72.41 40.44 72.79C40.19 73.16 39.87 73.49 39.77 73.89C39.67 73.97 39.6 74 39.55 74.06C39.46 74.18 39.39 74.33 39.29 74.45C39.16 74.61 39.1 74.84 38.86 74.89C38.44 74.99 38.02 75.09 37.6 75.2C37.39 75.26 37.15 75.25 37.01 75.46C36.83 75.74 36.56 75.79 36.26 75.8C36.17 75.74 36.09 75.79 36.02 75.81ZM35.23 41.63C35.75 42.05 36.33 42.3 36.96 42.46C37.2 42.52 37.44 42.57 37.68 42.58C38.12 42.6 38.57 42.63 39 42.51C39.34 42.41 39.69 42.33 40.03 42.23C40.52 42.08 40.95 41.82 41.34 41.49C41.51 41.34 41.7 41.2 41.84 41.03C42.05 40.77 42.23 40.49 42.41 40.21C42.71 39.74 42.88 39.21 42.97 38.67C43.12 37.77 42.97 36.9 42.62 36.07C42.51 35.8 42.38 35.54 42.23 35.29C41.98 34.88 41.72 34.46 41.3 34.24C41.23 34.16 41.18 34.08 41.12 34.05C40.68 33.8 40.25 33.52 39.79 33.34C39.35 33.17 38.87 33.06 38.39 33C38.09 32.96 37.77 33.04 37.47 33.09C37.15 33.14 36.83 33.19 36.52 33.29C36.06 33.43 35.62 33.64 35.26 33.97C35.09 34.13 34.92 34.3 34.74 34.45C34.39 34.77 34.16 35.17 33.97 35.59C33.81 35.93 33.69 36.3 33.59 36.66C33.43 37.22 33.3 37.78 33.44 38.38C33.57 38.96 33.72 39.52 33.98 40.05C34.13 40.36 34.3 40.67 34.59 40.91C34.6 40.95 34.62 41 34.63 41.05C34.64 41.04 34.66 41.03 34.67 41.02C34.78 41.15 34.89 41.29 35 41.42C35.06 41.43 35.13 41.44 35.2 41.45C35.21 41.52 35.22 41.58 35.23 41.63Z" fill="#00ff3c"/>
<path d="M28.89 71.13C28.89 71.14 28.88 71.15 28.88 71.16H28.87C28.87 71.15 28.88 71.14 28.88 71.13C28.88 71.13 28.88 71.13 28.89 71.13Z" fill="#00ff3c"/>
<path d="M28.34 5.75C28.33 5.76 28.31 5.78001 28.3 5.79001C28.32 5.78001 28.33 5.76 28.34 5.75Z" fill="#00ff3c"/>
</svg>
