<svg width="80" height="79" viewBox="0 0 80 79" fill="none" xmlns="http://www.w3.org/2000/svg">
<path d="M39.88 2L40.42 5.1C41.09 8.95 42.57 12.62 44.76 15.86L48.6599 21.65L48.5399 20.84C47.7099 15 48.75 9.05 51.52 3.84L51.08 6.95C50.53 10.82 50.8 14.77 51.87 18.53L53.7899 25.24L53.93 24.43C54.95 18.62 57.78 13.28 62.02 9.18L60.64 12C58.92 15.51 57.96 19.35 57.81 23.25L57.56 30.23L57.94 29.51C60.71 24.3 65.05 20.1 70.36 17.5L68.17 19.76C65.45 22.57 63.34 25.92 62 29.59L59.5999 36.15L60.19 35.58C64.43 31.48 69.87 28.82 75.71 27.99L72.93 29.46C69.47 31.29 66.43 33.83 64.02 36.91L59.71 42.4L60.45 42.04C65.75 39.45 71.74 38.6 77.56 39.62L74.46 40.16C70.6 40.83 66.93 42.31 63.68 44.49L57.88 48.38L58.69 48.26C64.54 47.43 70.5 48.47 75.71 51.23L72.59 50.79C68.71 50.24 64.76 50.51 61 51.58L54.28 53.49L55.09 53.63C60.91 54.65 66.25 57.48 70.36 61.71L67.53 60.33C64.01 58.61 60.17 57.65 56.26 57.51L49.27 57.26L50 57.64C55.22 60.4 59.43 64.74 62.02 70.04L59.76 67.85C56.95 65.13 53.59 63.03 49.92 61.69L43.3499 59.29L43.92 59.88C48.03 64.12 50.69 69.54 51.52 75.38L50.05 72.6C48.22 69.15 45.68 66.11 42.59 63.7L37.09 59.39L37.45 60.13C40.05 65.43 40.9 71.41 39.88 77.22L39.34 74.12C38.67 70.27 37.19 66.6 35 63.36L31.0999 57.57L31.2199 58.38C32.0499 64.22 31.01 70.17 28.24 75.38L28.68 72.27C29.23 68.4 28.96 64.45 27.89 60.69L25.9699 54L25.83 54.81C24.81 60.62 21.98 65.96 17.74 70.06L19.12 67.24C20.84 63.73 21.8 59.89 21.95 55.99L22.21 49.01L21.83 49.73C19.06 54.94 14.72 59.14 9.40997 61.74L11.5999 59.48C14.3199 56.67 16.43 53.32 17.77 49.65L20.17 43.09L19.58 43.66C15.34 47.76 9.89997 50.42 4.05997 51.25L6.83997 49.78C10.3 47.95 13.34 45.41 15.75 42.33L20.06 36.84L19.32 37.2C14.02 39.79 8.02996 40.64 2.20996 39.62L5.30997 39.08C9.16997 38.41 12.84 36.93 16.09 34.75L21.89 30.86L21.08 30.98C15.23 31.81 9.26997 30.77 4.05997 28.01L7.17996 28.45C11.06 29 15.01 28.73 18.77 27.66L25.49 25.75L24.68 25.61C18.86 24.59 13.52 21.76 9.40997 17.53L12.24 18.91C15.76 20.63 19.6 21.59 23.51 21.73L30.5 21.98L29.77 21.6C24.55 18.84 20.34 14.5 17.75 9.2L20.01 11.39C22.82 14.11 26.1799 16.21 29.8499 17.55L36.42 19.95L35.8499 19.36C31.7399 15.12 29.08 9.7 28.25 3.86L29.7199 6.64C31.5499 10.09 34.09 13.13 37.18 15.54L42.68 19.85L42.32 19.11C39.71 13.79 38.86 7.81 39.88 2Z" stroke="#00ff3c" stroke-width="0.5" stroke-miterlimit="50"/>
</svg>
