<svg width="77" height="36" viewBox="0 0 77 36" fill="none" xmlns="http://www.w3.org/2000/svg">
<path d="M0.919983 0.619995V35.25H76.13V0.619995H0.919983ZM69.86 6.44H75.05C74.59 8.39 73.97 10.28 73.21 12.1H69.86V6.44ZM69.86 12.2H73.16C72.33 14.18 71.33 16.07 70.19 17.86H69.85V12.2H69.86ZM69.86 17.97H70.13C70.04 18.11 69.95 18.24 69.86 18.38V17.97ZM63.61 0.679993H69.76V6.34003H63.61V0.679993ZM63.61 6.44H69.76V12.1H63.61V6.44ZM63.61 12.2H69.76V17.86H63.61V12.2ZM7.17999 18.38C7.08999 18.24 6.99997 18.11 6.90997 17.97H7.17999V18.38ZM7.17999 17.86H6.84003C5.70003 16.07 4.7 14.18 3.87 12.2H7.16998V17.86H7.17999ZM7.17999 12.1H3.83002C3.07002 10.28 2.45999 8.39 1.98999 6.44H7.17999V12.1ZM7.17999 6.33002H1.96997C1.53997 4.49002 1.24003 2.59998 1.09003 0.669983H7.17999V6.33002ZM13.43 25.62C12.76 25.02 12.1 24.39 11.47 23.73H13.43V25.62ZM13.43 23.62H11.37C9.86 22.05 8.49003 20.35 7.28003 18.53V17.96H13.43V23.62ZM13.43 17.86H7.28003V12.2H13.43V17.86ZM13.43 12.1H7.28003V6.44H13.43V12.1ZM13.43 6.33002H7.28003V0.669983H13.43V6.33002ZM19.69 30.16C19.32 29.94 18.95 29.72 18.58 29.49H19.69V30.16ZM19.69 29.39H18.41C16.68 28.3 15.05 27.07 13.53 25.71V23.73H19.68V29.39H19.69ZM19.69 23.62H13.54V17.96H19.69V23.62ZM19.69 17.86H13.54V12.2H19.69V17.86ZM19.69 12.1H13.54V6.44H19.69V12.1ZM19.69 6.33002H13.54V0.669983H19.69V6.33002ZM25.95 33.05C23.8 32.29 21.75 31.34 19.8 30.22V29.49H25.95V33.05ZM25.95 29.39H19.8V23.73H25.95V29.39ZM25.95 23.62H19.8V17.96H25.95V23.62ZM25.95 17.86H19.8V12.2H25.95V17.86ZM25.95 12.1H19.8V6.44H25.95V12.1ZM25.95 6.33002H19.8V0.669983H25.95V6.33002ZM32.21 34.68C30.09 34.32 28.04 33.79 26.06 33.09V29.49H32.21V34.68ZM32.21 29.39H26.06V23.73H32.21V29.39ZM32.21 23.62H26.06V17.96H32.21V23.62ZM32.21 17.86H26.06V12.2H32.21V17.86ZM32.21 12.1H26.06V6.44H32.21V12.1ZM32.21 6.33002H26.06V0.669983H32.21V6.33002ZM38.47 35.15H36.51C35.09 35.08 33.69 34.92 32.32 34.69V29.49H38.47V35.15V35.15ZM38.47 29.39H32.32V23.73H38.47V29.39ZM38.47 23.62H32.32V17.96H38.47V23.62ZM38.47 17.86H32.32V12.2H38.47V17.86ZM38.47 12.1H32.32V6.44H38.47V12.1ZM38.47 6.33002H32.32V0.669983H38.47V6.33002ZM44.72 34.7C43.35 34.93 41.95 35.08 40.53 35.16H38.57V29.5H44.72V34.7V34.7ZM44.72 29.39H38.57V23.73H44.72V29.39ZM44.72 23.62H38.57V17.96H44.72V23.62ZM44.72 17.86H38.57V12.2H44.72V17.86ZM44.72 12.1H38.57V6.44H44.72V12.1ZM44.72 6.33002H38.57V0.669983H44.72V6.33002ZM50.98 33.09C49 33.78 46.94 34.32 44.83 34.68V29.5H50.98V33.09ZM50.98 29.39H44.83V23.73H50.98V29.39ZM50.98 23.62H44.83V17.96H50.98V23.62ZM50.98 17.86H44.83V12.2H50.98V17.86ZM50.98 12.1H44.83V6.44H50.98V12.1ZM50.98 6.33002H44.83V0.669983H50.98V6.33002ZM57.24 30.22C55.29 31.34 53.24 32.29 51.09 33.05V29.49H57.24V30.22ZM57.24 29.39H51.09V23.73H57.24V29.39ZM57.24 23.62H51.09V17.96H57.24V23.62ZM57.24 17.86H51.09V12.2H57.24V17.86ZM57.24 12.1H51.09V6.44H57.24V12.1ZM57.24 6.33002H51.09V0.669983H57.24V6.33002ZM57.35 30.16V29.49H58.46C58.09 29.72 57.72 29.94 57.35 30.16ZM63.5 25.71C61.98 27.06 60.35 28.29 58.62 29.39H57.34V23.73H63.49V25.71H63.5ZM63.5 23.62H57.35V17.96H63.5V23.62ZM63.5 17.86H57.35V12.2H63.5V17.86ZM63.5 12.1H57.35V6.44H63.5V12.1ZM63.5 6.33002H57.35V0.669983H63.5V6.33002ZM63.61 25.62V23.73H65.57C64.93 24.38 64.28 25.01 63.61 25.62ZM63.61 23.62V17.96H69.76V18.53C68.54 20.34 67.17 22.05 65.67 23.62H63.61V23.62ZM71.27 34.57C68.98 34.57 67.11 32.71 67.11 30.42C67.11 28.13 68.97 26.27 71.27 26.27C73.56 26.27 75.43 28.13 75.43 30.42C75.43 32.71 73.57 34.57 71.27 34.57ZM75.08 6.33002H69.87V0.669983H75.96C75.81 2.60998 75.51 4.50002 75.08 6.33002Z" fill="#00ff3c"/>
<path d="M71.27 26.64C69.18 26.64 67.48 28.33 67.48 30.42C67.48 32.5 69.18 34.2 71.27 34.2C73.36 34.2 75.06 32.51 75.06 30.42C75.06 28.34 73.36 26.64 71.27 26.64ZM73.04 31.16H72.43V31.91H71.87V31.16H68.78V30.8L72 28.56H72.44V30.7H73.05V31.16H73.04Z" fill="#00ff3c"/>
<path d="M71.86 30.7V29.2L69.72 30.7H71.86Z" fill="#00ff3c"/>
</svg>
