<svg width="35" height="63" viewBox="0 0 35 63" fill="none" xmlns="http://www.w3.org/2000/svg">
<path d="M17.83 27.67C19.7354 27.67 21.28 26.1254 21.28 24.22C21.28 22.3146 19.7354 20.77 17.83 20.77C15.9246 20.77 14.38 22.3146 14.38 24.22C14.38 26.1254 15.9246 27.67 17.83 27.67Z" fill="#00ff3c"/>
<path d="M17.83 7.84998C19.7354 7.84998 21.28 6.30541 21.28 4.40002C21.28 2.49464 19.7354 0.950012 17.83 0.950012C15.9246 0.950012 14.38 2.49464 14.38 4.40002C14.38 6.30541 15.9246 7.84998 17.83 7.84998Z" fill="#00ff3c"/>
<path d="M9.48 53.3C10.92 50.12 14.12 47.91 17.84 47.91C21.55 47.91 24.75 50.13 26.2 53.3C31.35 48.31 34.83 38.86 34.83 28.01C34.83 20.17 33.01 13.06 30.06 7.84003C28.7 23.61 23.75 35.31 17.84 35.31C11.94 35.31 6.99002 23.62 5.62002 7.84003C2.67002 13.07 0.849997 20.17 0.849997 28.01C0.839997 38.87 4.32 48.32 9.48 53.3Z" fill="#00ff3c"/>
<path d="M17.83 62.46C20.8179 62.46 23.24 60.0423 23.24 57.06C23.24 54.0777 20.8179 51.66 17.83 51.66C14.8422 51.66 12.42 54.0777 12.42 57.06C12.42 60.0423 14.8422 62.46 17.83 62.46Z" fill="#00ff3c"/>
</svg>
