<svg width="76" height="76" viewBox="0 0 76 76" fill="none" xmlns="http://www.w3.org/2000/svg">
<path d="M22.31 18.63C26.38 14.75 31.49 12.17 36.78 11.18L37.41 16.25L44.17 7.59003L35.49 0.840027L36.12 5.90997C29.78 7.90997 24.22 11.8 20.29 16.81C16.17 22.01 13.83 28.38 13.54 34.71C14.73 28.47 17.89 22.8 22.31 18.63Z" fill="black"/>
<path d="M17.99 53.77C14.1 49.71 11.52 44.61 10.52 39.34L15.6 38.71L6.92001 31.96L0.149994 40.62L5.23001 39.99C7.24001 46.31 11.14 51.86 16.16 55.78C21.37 59.89 27.76 62.23 34.11 62.51C27.86 61.33 22.17 58.17 17.99 53.77Z" fill="black"/>
<path d="M53.22 58.08C49.15 61.96 44.04 64.54 38.75 65.53L38.12 60.46L31.36 69.12L40.04 75.87L39.41 70.8C45.75 68.8 51.31 64.91 55.24 59.9C59.36 54.7 61.7 48.33 61.99 42C60.79 48.23 57.63 53.9 53.22 58.08Z" fill="black"/>
<path d="M70.29 36.71C68.28 30.39 64.38 24.84 59.36 20.92C54.15 16.81 47.76 14.47 41.41 14.19C47.66 15.37 53.35 18.53 57.53 22.93C61.42 26.99 64 32.09 65 37.36L59.92 37.99L68.6 44.74L75.37 36.08L70.29 36.71Z" fill="black"/>
</svg>
