<svg width="76" height="76" viewBox="0 0 76 76" fill="none" xmlns="http://www.w3.org/2000/svg">
<path d="M37.72 0.840027C38.71 3.13003 38.92 5.42997 38.84 7.71997C38.8 8.86997 38.62 10.01 38.48 11.16C38.34 12.31 38.28 13.45 38.32 14.6C38.38 16.89 39.04 19.19 39.17 21.48C39.28 23.77 39.18 26.07 38.52 28.36C38.39 28.81 37.92 29.06 37.48 28.94C37.19 28.86 36.98 28.63 36.9 28.36C36.24 26.07 36.14 23.77 36.25 21.48C36.39 19.19 37.05 16.89 37.1 14.6C37.15 13.45 37.08 12.31 36.94 11.16C36.8 10.01 36.62 8.86997 36.58 7.71997C36.52 5.41997 36.73 3.13003 37.72 0.840027Z" fill="#00ff3c"/>
<path d="M27.45 2.21997C26.6 4.62997 26.79 7.30998 27.86 9.47998C28.92 11.66 30.85 13.32 33.02 14.04C33.55 14.22 33.83 14.78 33.65 15.31C33.47 15.84 32.91 16.12 32.38 15.94C32.34 15.93 32.3 15.91 32.26 15.89L32.24 15.88C29.71 14.64 27.78 12.4 26.93 9.84998C26.08 7.29998 26.3 4.48997 27.45 2.21997Z" fill="#00ff3c"/>
<path d="M47.99 2.21997C49.15 4.49997 49.37 7.30998 48.5 9.84998C47.65 12.4 45.72 14.64 43.19 15.88L43.17 15.89C42.67 16.13 42.07 15.93 41.83 15.43C41.59 14.93 41.79 14.33 42.29 14.09C42.33 14.07 42.37 14.05 42.41 14.04C44.58 13.31 46.51 11.66 47.57 9.47998C48.65 7.29998 48.84 4.62997 47.99 2.21997Z" fill="#00ff3c"/>
<path d="M11.13 11.82C13.45 12.74 15.23 14.21 16.8 15.89C17.58 16.73 18.27 17.67 18.98 18.58C19.69 19.49 20.46 20.35 21.31 21.12C22.97 22.7 25.07 23.86 26.79 25.38C28.49 26.92 30.05 28.61 31.21 30.7C31.44 31.11 31.29 31.62 30.88 31.84C30.62 31.98 30.31 31.97 30.07 31.84C27.98 30.69 26.28 29.14 24.74 27.44C23.21 25.72 22.05 23.63 20.47 21.97C19.69 21.13 18.83 20.36 17.92 19.65C17.01 18.94 16.07 18.25 15.23 17.47C13.53 15.92 12.06 14.15 11.13 11.82Z" fill="#00ff3c"/>
<path d="M4.85001 20.04C5.96001 22.35 7.99001 24.1 10.29 24.88C12.59 25.67 15.12 25.49 17.18 24.47C17.68 24.22 18.28 24.43 18.52 24.92C18.77 25.42 18.56 26.02 18.07 26.26C18.03 26.28 17.99 26.3 17.95 26.31L17.93 26.32C15.26 27.23 12.31 27 9.91 25.8C7.48 24.61 5.65001 22.47 4.85001 20.04Z" fill="#00ff3c"/>
<path d="M19.37 5.56C21.8 6.35 23.94 8.18003 25.14 10.59C26.35 12.99 26.57 15.94 25.66 18.61L25.65 18.63C25.47 19.15 24.9 19.43 24.38 19.25C23.86 19.07 23.58 18.5 23.76 17.98C23.77 17.94 23.79 17.89 23.81 17.86C24.83 15.81 25.02 13.28 24.22 10.99C23.44 8.67999 21.68 6.66 19.37 5.56Z" fill="#00ff3c"/>
<path d="M0.119995 38.35C2.42 37.36 4.72001 37.15 7.01001 37.23C8.16001 37.27 9.30999 37.45 10.46 37.59C11.61 37.73 12.76 37.79 13.91 37.75C16.21 37.69 18.51 37.03 20.8 36.9C23.1 36.79 25.4 36.89 27.69 37.55C28.14 37.68 28.39 38.15 28.27 38.59C28.19 38.88 27.96 39.09 27.69 39.17C25.39 39.83 23.09 39.93 20.8 39.82C18.5 39.68 16.2 39.02 13.91 38.97C12.76 38.92 11.61 38.99 10.46 39.13C9.30999 39.27 8.16001 39.45 7.01001 39.49C4.72001 39.56 2.42 39.34 0.119995 38.35Z" fill="#00ff3c"/>
<path d="M1.5 48.6C3.92 49.45 6.58999 49.26 8.76999 48.19C10.96 47.13 12.62 45.21 13.35 43.04C13.53 42.52 14.1 42.23 14.62 42.41C15.14 42.59 15.43 43.16 15.25 43.68C15.24 43.72 15.22 43.76 15.2 43.8L15.19 43.82C13.94 46.35 11.69 48.28 9.14001 49.12C6.59001 49.97 3.78 49.75 1.5 48.6Z" fill="#00ff3c"/>
<path d="M1.5 28.11C3.78 26.96 6.59001 26.7301 9.14001 27.5901C11.69 28.4301 13.94 30.36 15.19 32.89L15.2 32.91C15.44 33.41 15.24 34.01 14.74 34.25C14.24 34.49 13.64 34.29 13.4 33.79C13.38 33.75 13.36 33.71 13.35 33.67C12.62 31.5 10.95 29.57 8.76999 28.52C6.58999 27.45 3.92 27.26 1.5 28.11Z" fill="#00ff3c"/>
<path d="M11.13 64.88C12.06 62.56 13.53 60.78 15.21 59.22C16.05 58.44 16.99 57.75 17.9 57.04C18.81 56.33 19.67 55.56 20.45 54.72C22.04 53.06 23.19 50.97 24.72 49.25C26.27 47.55 27.96 46 30.05 44.85C30.46 44.63 30.97 44.77 31.19 45.18C31.33 45.44 31.32 45.75 31.19 45.99C30.03 48.08 28.48 49.77 26.77 51.31C25.05 52.83 22.96 53.99 21.29 55.57C20.44 56.35 19.68 57.2 18.96 58.11C18.25 59.02 17.56 59.96 16.78 60.8C15.23 62.49 13.46 63.96 11.13 64.88Z" fill="#00ff3c"/>
<path d="M19.37 71.15C21.68 70.05 23.44 68.02 24.22 65.73C25.02 63.44 24.83 60.91 23.81 58.86C23.56 58.36 23.76 57.76 24.26 57.51C24.76 57.26 25.36 57.46 25.61 57.96C25.63 58 25.65 58.04 25.66 58.08L25.67 58.1C26.58 60.77 26.36 63.72 25.15 66.12C23.95 68.53 21.8 70.35 19.37 71.15Z" fill="#00ff3c"/>
<path d="M4.85001 56.66C5.65001 54.23 7.47999 52.0901 9.89999 50.9001C12.3 49.7001 15.25 49.47 17.92 50.38L17.94 50.39C18.46 50.57 18.74 51.14 18.57 51.66C18.39 52.18 17.82 52.46 17.3 52.29C17.26 52.28 17.21 52.26 17.18 52.24C15.13 51.22 12.59 51.03 10.29 51.83C7.99001 52.6 5.96001 54.35 4.85001 56.66Z" fill="#00ff3c"/>
<path d="M37.72 75.87C36.73 73.58 36.52 71.28 36.6 68.99C36.64 67.84 36.82 66.7 36.96 65.55C37.1 64.4 37.16 63.26 37.12 62.11C37.06 59.82 36.4 57.52 36.27 55.23C36.16 52.94 36.26 50.64 36.92 48.35C37.05 47.9 37.52 47.65 37.96 47.77C38.25 47.85 38.46 48.08 38.54 48.35C39.2 50.64 39.3 52.94 39.19 55.23C39.05 57.52 38.39 59.82 38.34 62.11C38.29 63.26 38.36 64.4 38.5 65.55C38.64 66.7 38.82 67.84 38.86 68.99C38.93 71.28 38.71 73.57 37.72 75.87Z" fill="#00ff3c"/>
<path d="M47.99 74.49C48.84 72.08 48.65 69.4 47.58 67.23C46.52 65.05 44.59 63.39 42.42 62.67C41.89 62.49 41.61 61.93 41.79 61.4C41.97 60.87 42.53 60.59 43.06 60.77C43.1 60.78 43.14 60.8 43.18 60.82L43.2 60.83C45.73 62.07 47.66 64.31 48.51 66.86C49.37 69.4 49.15 72.21 47.99 74.49Z" fill="#00ff3c"/>
<path d="M27.45 74.49C26.29 72.21 26.07 69.4 26.94 66.86C27.79 64.31 29.72 62.07 32.25 60.83L32.27 60.82C32.77 60.58 33.37 60.7801 33.61 61.2801C33.85 61.7801 33.65 62.38 33.15 62.62C33.11 62.64 33.07 62.66 33.03 62.67C30.86 63.4 28.93 65.05 27.87 67.23C26.79 69.4 26.6 72.08 27.45 74.49Z" fill="#00ff3c"/>
<path d="M64.31 64.88C61.99 63.96 60.21 62.49 58.64 60.81C57.86 59.97 57.17 59.03 56.46 58.12C55.75 57.21 54.98 56.35 54.13 55.58C52.47 54 50.37 52.84 48.65 51.32C46.95 49.78 45.39 48.09 44.23 46C44 45.59 44.15 45.08 44.56 44.86C44.82 44.72 45.13 44.73 45.37 44.86C47.46 46.01 49.16 47.56 50.7 49.26C52.23 50.98 53.39 53.07 54.97 54.73C55.75 55.57 56.61 56.34 57.52 57.05C58.43 57.76 59.37 58.45 60.21 59.23C61.91 60.78 63.39 62.56 64.31 64.88Z" fill="#00ff3c"/>
<path d="M70.59 56.66C69.48 54.35 67.45 52.6 65.15 51.82C62.85 51.03 60.32 51.21 58.26 52.23C57.76 52.48 57.16 52.2701 56.92 51.7801C56.68 51.2901 56.88 50.68 57.37 50.44C57.41 50.42 57.45 50.4 57.49 50.39L57.51 50.38C60.18 49.47 63.13 49.7001 65.53 50.9001C67.96 52.0901 69.8 54.23 70.59 56.66Z" fill="#00ff3c"/>
<path d="M56.07 71.15C53.64 70.36 51.5 68.53 50.3 66.12C49.09 63.72 48.87 60.77 49.78 58.1L49.79 58.08C49.97 57.56 50.54 57.28 51.06 57.46C51.58 57.64 51.86 58.21 51.68 58.73C51.67 58.77 51.65 58.82 51.63 58.85C50.61 60.9 50.42 63.4299 51.22 65.7199C52.01 68.0199 53.77 70.04 56.07 71.15Z" fill="#00ff3c"/>
<path d="M75.32 38.35C73.02 39.34 70.72 39.55 68.43 39.47C67.28 39.43 66.13 39.25 64.98 39.11C63.83 38.97 62.68 38.91 61.53 38.95C59.23 39.01 56.93 39.67 54.64 39.8C52.34 39.91 50.04 39.81 47.75 39.15C47.3 39.02 47.05 38.55 47.17 38.11C47.25 37.82 47.48 37.61 47.75 37.53C50.05 36.87 52.35 36.77 54.64 36.88C56.94 37.02 59.24 37.68 61.53 37.73C62.68 37.78 63.83 37.71 64.98 37.57C66.13 37.43 67.28 37.25 68.43 37.21C70.73 37.15 73.03 37.36 75.32 38.35Z" fill="#00ff3c"/>
<path d="M73.94 28.11C71.52 27.26 68.85 27.45 66.67 28.52C64.48 29.58 62.82 31.5 62.09 33.67C61.91 34.19 61.34 34.48 60.82 34.3C60.3 34.12 60.01 33.55 60.19 33.03C60.2 32.99 60.22 32.95 60.24 32.91L60.25 32.89C61.5 30.36 63.75 28.43 66.3 27.59C68.85 26.73 71.66 26.95 73.94 28.11Z" fill="#00ff3c"/>
<path d="M73.94 48.6C71.66 49.75 68.85 49.98 66.3 49.12C63.75 48.28 61.5 46.35 60.25 43.82L60.24 43.8C60 43.3 60.2 42.7 60.7 42.46C61.2 42.22 61.8 42.42 62.04 42.92C62.06 42.96 62.08 43 62.09 43.04C62.82 45.21 64.49 47.14 66.67 48.19C68.85 49.25 71.53 49.44 73.94 48.6Z" fill="#00ff3c"/>
<path d="M64.31 11.82C63.38 14.14 61.91 15.92 60.23 17.48C59.39 18.26 58.45 18.95 57.54 19.66C56.63 20.37 55.77 21.14 54.99 21.98C53.4 23.64 52.25 25.73 50.72 27.45C49.17 29.15 47.48 30.7 45.39 31.85C44.98 32.07 44.47 31.93 44.25 31.52C44.11 31.26 44.12 30.95 44.25 30.71C45.41 28.62 46.96 26.93 48.67 25.39C50.39 23.87 52.48 22.71 54.15 21.13C55 20.35 55.76 19.5 56.48 18.59C57.19 17.68 57.88 16.74 58.66 15.9C60.21 14.21 61.99 12.74 64.31 11.82Z" fill="#00ff3c"/>
<path d="M56.07 5.56C53.76 6.66 52 8.68998 51.22 10.98C50.42 13.27 50.61 15.8 51.63 17.85C51.88 18.35 51.68 18.95 51.18 19.2C50.68 19.45 50.08 19.25 49.83 18.75C49.81 18.71 49.79 18.67 49.78 18.63L49.77 18.61C48.86 15.94 49.08 12.99 50.29 10.59C51.5 8.17003 53.65 6.35 56.07 5.56Z" fill="#00ff3c"/>
<path d="M70.59 20.04C69.79 22.47 67.96 24.61 65.54 25.8C63.14 27 60.19 27.23 57.52 26.32L57.5 26.31C56.98 26.13 56.7 25.56 56.87 25.04C57.05 24.52 57.62 24.24 58.14 24.41C58.18 24.42 58.23 24.44 58.26 24.46C60.31 25.48 62.85 25.67 65.15 24.87C67.45 24.11 69.48 22.35 70.59 20.04Z" fill="#00ff3c"/>
<path d="M37.72 43.42C40.5256 43.42 42.8 41.1501 42.8 38.35C42.8 35.5499 40.5256 33.28 37.72 33.28C34.9144 33.28 32.64 35.5499 32.64 38.35C32.64 41.1501 34.9144 43.42 37.72 43.42Z" stroke="#00ff3c" stroke-miterlimit="10" stroke-linecap="round"/>
</svg>
