<svg width="77" height="33" viewBox="0 0 77 33" fill="none" xmlns="http://www.w3.org/2000/svg">
<path d="M0.859985 3.97999C8.81999 1.98999 17.04 1.08001 25.26 0.810007C33.48 0.570007 41.76 0.980015 49.93 2.38001C54.01 3.10001 58.07 4.04999 62.02 5.53999C63.99 6.28999 65.93 7.18 67.78 8.36C68.7 8.96 69.59 9.64003 70.41 10.46C71.22 11.28 71.96 12.28 72.42 13.5C72.88 14.71 72.97 16.15 72.6 17.43C72.24 18.71 71.55 19.79 70.77 20.68C69.99 21.58 69.12 22.32 68.21 22.98C67.31 23.64 66.37 24.21 65.41 24.72C61.58 26.76 57.55 28.07 53.48 29.12C52.44 29.39 51.38 28.77 51.11 27.73C50.84 26.69 51.46 25.63 52.5 25.36C52.52 25.35 52.55 25.35 52.57 25.34H52.59C56.49 24.5 60.36 23.39 63.85 21.7C65.57 20.85 67.22 19.84 68.41 18.57C69 17.95 69.45 17.26 69.68 16.57C69.9 15.88 69.89 15.18 69.66 14.47C69.43 13.76 68.97 13.04 68.37 12.38C67.76 11.73 67.04 11.12 66.27 10.57C64.7 9.47002 62.93 8.56999 61.1 7.78999C57.43 6.23999 53.51 5.14999 49.55 4.28999C41.61 2.60999 33.43 1.86999 25.26 1.78999C17.1 1.72999 8.88999 2.30999 0.859985 3.97999Z" fill="#00ff3c"/>
<path d="M76.21 29.37C68.25 31.36 60.03 32.27 51.81 32.54C43.59 32.78 35.31 32.37 27.14 30.97C23.06 30.25 19 29.3 15.05 27.81C13.08 27.06 11.14 26.17 9.29002 24.99C8.37002 24.39 7.48001 23.71 6.66001 22.89C5.85001 22.07 5.11 21.07 4.65 19.85C4.19 18.64 4.10001 17.2 4.47001 15.92C4.83001 14.64 5.52 13.56 6.3 12.67C7.08 11.77 7.94999 11.03 8.85999 10.38C9.75999 9.72001 10.7 9.15002 11.66 8.64002C15.49 6.60002 19.52 5.29 23.59 4.24C24.63 3.97 25.69 4.59001 25.96 5.63001C26.23 6.67001 25.61 7.73001 24.57 8.00001C24.55 8.01001 24.52 8.01003 24.5 8.02003H24.48C20.58 8.86003 16.71 9.96998 13.22 11.66C11.5 12.51 9.85001 13.52 8.66001 14.79C8.07001 15.41 7.62002 16.1 7.39002 16.79C7.17002 17.48 7.18001 18.18 7.41001 18.89C7.64001 19.6 8.10002 20.32 8.70002 20.98C9.31002 21.63 10.03 22.24 10.8 22.79C12.37 23.89 14.14 24.79 15.97 25.57C19.64 27.12 23.56 28.21 27.52 29.07C35.46 30.75 43.64 31.49 51.81 31.57C59.96 31.63 68.17 31.04 76.21 29.37Z" fill="#00ff3c"/>
<path d="M38.43 21.3C40.9815 21.3 43.05 19.2315 43.05 16.68C43.05 14.1284 40.9815 12.06 38.43 12.06C35.8784 12.06 33.81 14.1284 33.81 16.68C33.81 19.2315 35.8784 21.3 38.43 21.3Z" fill="#00ff3c"/>
</svg>
