<svg width="82" height="81" viewBox="0 0 82 81" fill="none" xmlns="http://www.w3.org/2000/svg">
<path d="M41.1798 3L43.3698 26.86L52.8298 4.84L47.5198 28.21L63.3298 10.19L51.0498 30.77L71.6598 18.51L53.6198 34.3L77.0098 29L54.9598 38.44L78.8598 40.62L54.9598 42.8L77.0098 52.25L53.6198 46.95L71.6598 62.74L51.0498 50.48L63.3298 71.06L47.5198 53.04L52.8298 76.41L43.3698 54.39L41.1798 78.25L38.9998 54.39L29.5398 76.41L34.8498 53.04L19.0398 71.06L31.3198 50.48L10.6998 62.74L28.7498 46.95L5.34978 52.25L27.3998 42.8L3.50977 40.62L27.3998 38.44L5.34978 29L28.7498 34.3L10.6998 18.51L31.3198 30.77L19.0398 10.19L34.8498 28.21L29.5398 4.84L38.9998 26.86L41.1798 3Z" stroke="#00ff3c" stroke-width="0.5" stroke-miterlimit="50"/>
</svg>
