<svg width="76" height="76" viewBox="0 0 76 76" fill="none" xmlns="http://www.w3.org/2000/svg">
<path d="M46.6904 45.9999C44.8304 41.8399 49.3804 35.7699 56.8504 32.4399C59.2904 31.3499 61.7404 30.6999 64.0004 30.4499C67.9304 28.9199 71.8104 28.1199 75.3204 28.0399C71.5004 24.8399 65.0404 24.0899 57.9704 25.7899C56.1804 30.9999 52.8404 34.4599 49.4104 34.0999C44.8704 33.6299 41.8704 26.6599 42.7204 18.5399C43.0004 15.8899 43.6504 13.4399 44.5704 11.3599C45.2104 7.19986 46.4504 3.44988 48.1304 0.379883C43.4504 2.07988 39.5604 7.27988 37.5004 14.2499C41.1304 18.3999 42.4604 23.0099 40.4304 25.7999C37.7504 29.4899 30.2004 28.5999 23.5804 23.7999C21.4104 22.2299 19.6204 20.4399 18.2704 18.6099C14.9804 15.9799 12.3404 13.0299 10.5204 10.0399C9.66036 14.9399 12.2304 20.8899 17.2504 26.1599C22.6704 25.0999 27.3404 26.2599 28.7404 29.3999C30.6004 33.5599 26.0504 39.6299 18.5804 42.9599C16.1404 44.0499 13.6904 44.6999 11.4304 44.9499C7.50036 46.4799 3.62035 47.2799 0.110352 47.3599C3.93035 50.5599 10.3904 51.3099 17.4604 49.6099C19.2504 44.3999 22.5904 40.9399 26.0204 41.2999C30.5604 41.7699 33.5604 48.7399 32.7104 56.8599C32.4304 59.5099 31.7804 61.9599 30.8604 64.0399C30.2204 68.1999 28.9804 71.9499 27.3004 75.0199C31.9804 73.3199 35.8704 68.1199 37.9304 61.1499C34.3004 56.9999 32.9704 52.3899 35.0004 49.5999C37.6804 45.9099 45.2304 46.7999 51.8504 51.5999C54.0204 53.1699 55.8104 54.9599 57.1604 56.7899C60.4504 59.4199 63.0904 62.3699 64.9104 65.3599C65.7704 60.4599 63.2004 54.5099 58.1804 49.2399C52.7704 50.3099 48.1004 49.1499 46.6904 45.9999ZM37.7204 42.8599C34.8704 42.8599 32.5604 40.5499 32.5604 37.7099C32.5604 34.8699 34.8704 32.5599 37.7204 32.5599C40.5704 32.5599 42.8804 34.8699 42.8804 37.7099C42.8804 40.5499 40.5704 42.8599 37.7204 42.8599Z" fill="black"/>
</svg>
