<svg width="76" height="77" viewBox="0 0 76 77" fill="none" xmlns="http://www.w3.org/2000/svg">
<path d="M53.0697 38.62C53.0697 39.92 75.4397 41.2 75.3097 42.47C75.1797 43.73 74.9897 44.98 74.7397 46.21C74.4897 47.44 74.1797 48.64 73.8097 49.82C73.4397 51 52.0597 52.15 51.8697 53.28C51.6797 54.41 71.5397 55.5 70.9597 56.57C70.3797 57.64 69.7497 58.67 69.0697 59.67C68.3897 60.67 67.6697 61.64 66.8997 62.57C66.1297 63.5 48.9497 64.39 48.5997 65.24C48.2497 66.09 62.7197 66.9 61.7897 67.67C60.8597 68.44 59.8897 69.16 58.8897 69.84C57.8897 70.52 56.8497 71.15 55.7797 71.72C54.7097 72.3 44.2097 72.83 43.7497 73.3C43.2897 73.77 50.1997 74.2 49.0197 74.57C47.8397 74.94 46.6397 75.25 45.4097 75.5C44.1797 75.75 42.9397 75.94 41.6697 76.07C40.3997 76.2 38.3397 76.26 37.8197 76.26C37.2997 76.26 35.2297 76.19 33.9697 76.07C32.6997 75.94 31.4597 75.75 30.2297 75.5C28.9997 75.25 27.7997 74.94 26.6197 74.57C25.4397 74.2 32.3497 73.78 31.8897 73.3C31.4297 72.82 20.9297 72.29 19.8597 71.72C18.7897 71.14 17.7597 70.51 16.7497 69.84C15.7497 69.16 14.7797 68.44 13.8497 67.67C12.9197 66.9 27.3897 66.09 27.0397 65.24C26.6997 64.39 9.50967 63.5 8.73967 62.57C7.96967 61.64 7.24967 60.67 6.56967 59.67C5.88967 58.67 5.25966 57.63 4.67966 56.57C4.09966 55.5 23.9597 54.41 23.7697 53.28C23.5797 52.15 2.18967 51 1.82967 49.82C1.45967 48.64 1.14967 47.44 0.899666 46.21C0.649666 44.99 0.459666 43.74 0.329666 42.47C0.199666 41.21 22.5697 39.92 22.5697 38.62C22.5697 37.32 0.199666 36.04 0.329666 34.77C0.459666 33.51 0.649666 32.26 0.899666 31.03C1.14967 29.81 1.45967 28.6 1.82967 27.42C2.19967 26.24 23.5797 25.09 23.7697 23.96C23.9597 22.83 4.09966 21.74 4.67966 20.67C5.25966 19.6 5.88967 18.57 6.56967 17.57C7.24967 16.57 7.96967 15.6 8.73967 14.67C9.50967 13.74 26.6897 12.85 27.0397 12C27.3797 11.15 12.9197 10.34 13.8497 9.56998C14.7797 8.79998 15.7497 8.07998 16.7497 7.39998C17.7497 6.71998 18.7897 6.08998 19.8597 5.51998C20.9297 4.93998 31.4297 4.40998 31.8897 3.93998C32.3497 3.45998 25.4397 3.03998 26.6197 2.66998C27.7997 2.29998 28.9997 1.98998 30.2297 1.73998C31.4597 1.48998 32.6997 1.29998 33.9697 1.16998C35.2397 1.03998 37.2997 0.97998 37.8197 0.97998C38.3397 0.97998 40.4097 1.04998 41.6697 1.16998C42.9397 1.29998 44.1797 1.48998 45.4097 1.73998C46.6397 1.98998 47.8397 2.29998 49.0197 2.66998C50.1997 3.03998 43.2897 3.45998 43.7497 3.93998C44.2097 4.41998 54.7097 4.94998 55.7797 5.51998C56.8497 6.09998 57.8797 6.72998 58.8897 7.39998C59.8897 8.07998 60.8597 8.79998 61.7897 9.56998C62.7197 10.34 48.2497 11.15 48.5997 12C48.9397 12.85 66.1297 13.74 66.8997 14.67C67.6697 15.6 68.3897 16.57 69.0697 17.57C69.7497 18.57 70.3797 19.61 70.9597 20.67C71.5397 21.74 51.6797 22.83 51.8697 23.96C52.0597 25.09 73.4497 26.24 73.8097 27.42C74.1697 28.6 74.4897 29.8 74.7397 31.03C74.9897 32.25 75.1797 33.5 75.3097 34.77C75.4397 36.04 53.0697 37.32 53.0697 38.62Z" stroke="black" stroke-width="0.5" stroke-miterlimit="10"/>
</svg>
