<svg width="62" height="62" viewBox="0 0 62 62" fill="none" xmlns="http://www.w3.org/2000/svg">
<path d="M24.6501 10.3298C31.4901 10.3298 37.6201 13.1598 41.9001 18.3098C42.6501 19.2098 43.6901 19.7098 44.8301 19.7098C45.9501 19.7098 47.0501 19.1997 47.7701 18.3597C48.4901 17.5197 48.7801 16.4297 48.5901 15.2997C48.4801 14.5997 48.3201 13.8997 48.1301 13.2197C49.4501 15.6997 50.3801 18.3697 50.8601 21.1597C52.1401 28.6897 49.9001 36.0897 44.7001 41.4697C43.6401 42.5597 43.3501 44.0997 43.9401 45.4897C44.5501 46.9297 45.9301 47.8497 47.4601 47.8497C47.8801 47.8497 48.3001 47.7798 48.7101 47.6398C49.8301 47.2698 50.9301 46.8098 52.0101 46.2698C47.6601 49.6098 42.4301 51.5898 37.2301 51.5898C35.8301 51.5898 34.4401 51.4398 33.1001 51.1498C27.9101 49.4098 23.2701 46.4198 19.6901 42.4998C18.9501 41.6898 17.9501 41.2397 16.8801 41.2397C15.7601 41.2397 14.6601 41.7497 13.9401 42.5997C13.2201 43.4497 12.9301 44.5397 13.1201 45.6797C13.5401 48.1897 14.5801 50.4998 15.9101 52.5598C14.6301 50.9498 13.5201 49.1298 12.6301 47.1498C9.74013 40.6998 9.71015 33.4798 12.5302 27.8298L12.5501 27.7798L12.5701 27.7297C14.1001 23.9197 16.6001 21.5598 20.1401 18.9998C21.5001 18.0098 22.0501 16.3297 21.5201 14.7197C21.0101 13.1497 19.6301 12.1298 18.0001 12.1298C17.9201 12.1298 17.8301 12.1298 17.7501 12.1398C16.9001 12.1898 16.0701 12.3297 15.2601 12.5497C16.5001 11.8897 17.8201 11.3397 19.2401 10.9297C21.0501 10.5297 22.8701 10.3298 24.6501 10.3298ZM30.8801 41.5298C36.8701 41.5298 41.7501 36.6597 41.7501 30.6797C41.7501 24.6997 36.8801 19.8298 30.8801 19.8298C24.8901 19.8298 20.0101 24.6997 20.0101 30.6797C20.0201 36.6597 24.8901 41.5298 30.8801 41.5298ZM36.4601 0.219727C36.4601 0.219727 39.3501 2.38974 42.2201 5.54974C44.8001 7.99974 46.7301 11.6297 47.3601 15.4897C47.6401 17.2297 46.2701 18.4498 44.8401 18.4498C44.1401 18.4498 43.4301 18.1598 42.8801 17.4998C38.2801 11.9898 31.6801 9.06976 24.6601 9.06976C22.7801 9.06976 20.8701 9.27977 18.9601 9.69977C10.1701 12.2098 5.15012 19.7298 0.120117 25.9998C5.05012 21.0698 10.7601 13.8198 17.8501 13.3798C17.9101 13.3798 17.9701 13.3698 18.0201 13.3698C20.4001 13.3698 21.4001 16.5297 19.4201 17.9697C16.1001 20.3697 13.1601 22.9098 11.4201 27.2498C5.1401 39.7898 12.6801 57.3497 26.4901 61.1097C20.9501 57.4197 15.4101 51.6998 14.3601 45.4398C14.0701 43.7098 15.4401 42.4598 16.8801 42.4598C17.5401 42.4598 18.2201 42.7198 18.7601 43.3098C22.4301 47.3298 27.2601 50.4898 32.7601 52.3198C34.2301 52.6498 35.7301 52.7997 37.2201 52.7997C47.2101 52.7997 57.2701 45.8298 61.6401 36.0098C58.4101 40.8398 53.6401 44.6397 48.3001 46.4097C48.0101 46.5097 47.7201 46.5497 47.4501 46.5497C45.3701 46.5497 43.9701 43.9797 45.5901 42.2997C57.9201 29.5897 52.9501 8.49973 36.4601 0.219727ZM30.8801 40.2698C25.5701 40.2698 21.2701 35.9697 21.2701 30.6697C21.2701 25.3697 25.5701 21.0698 30.8801 21.0698C36.1901 21.0698 40.4901 25.3697 40.4901 30.6697C40.4901 35.9797 36.1901 40.2698 30.8801 40.2698Z" fill="black"/>
</svg>
