<svg width="77" height="76" viewBox="0 0 77 76" fill="none" xmlns="http://www.w3.org/2000/svg">
<path d="M0.80957 0.430176V75.4602H76.0196V0.430176H0.80957ZM73.5896 53.3402L64.6696 2.85016H73.5896V53.3402ZM73.0496 62.1402L30.6796 69.5902L71.7296 54.6802L73.0496 62.1402ZM3.76959 13.7402L46.1396 6.29016L5.0896 21.2002L3.76959 13.7402ZM46.5596 41.5102L44.4896 29.8102H46.5596V41.5102ZM46.4296 43.5502L36.6196 45.2802L46.1296 41.8302L46.4296 43.5502ZM30.2596 34.3702L32.3296 46.0702H30.2596V34.3702ZM30.3896 32.3402L40.1996 30.6102L30.6896 34.0602L30.3896 32.3402ZM40.2996 38.7702L39.8196 36.0602H40.2996V38.7702ZM36.5196 37.1102L36.9996 39.8202H36.5196V37.1102ZM36.5496 36.6402L38.8196 36.2402L36.6196 37.0402L36.5496 36.6402ZM40.2696 39.2402L37.9996 39.6402L40.1996 38.8402L40.2696 39.2402ZM37.9695 37.7502L38.0796 38.3802H37.9695V37.7502ZM37.9796 37.6402L38.5096 37.5502L37.9996 37.7402L37.9796 37.6402ZM38.8495 38.1302L38.7396 37.5002H38.8495V38.1302ZM38.8396 38.2402L38.3096 38.3302L38.8196 38.1402L38.8396 38.2402ZM38.7796 38.0402L38.3196 38.3102L38.0496 37.8502L38.5096 37.5802L38.7796 38.0402ZM38.5196 37.5602L38.5995 37.5302L38.7596 37.9602L38.5196 37.5602ZM38.2996 38.3202L38.2195 38.3502L38.0596 37.9202L38.2996 38.3202ZM38.7896 38.0502L38.8196 38.1302L38.3896 38.2902L38.7896 38.0502ZM38.6196 37.5302L38.7096 37.5102L38.7996 38.0402L38.6196 37.5302ZM38.0296 37.8302L37.9996 37.7502L38.4296 37.6002L38.0296 37.8302ZM38.1996 38.3502L38.1096 38.3702L38.0196 37.8402L38.1996 38.3502ZM38.8495 38.2702V38.3802H38.2195L38.8495 38.2702ZM37.9695 37.6202V37.5102H38.5995L37.9695 37.6202ZM38.8495 38.4102L38.8296 38.5402L38.0995 38.4102H38.8495ZM38.8796 37.5002L39.0096 37.5202L38.8796 38.2502V37.5002ZM37.9695 37.4702L37.9896 37.3402L38.7195 37.4702H37.9695ZM37.9396 38.3802L37.8096 38.3602L37.9396 37.6302V38.3802ZM38.8196 38.5702L38.7696 38.7102L37.9496 38.4102L38.8196 38.5702ZM39.0396 37.5302L39.1796 37.5802L38.8796 38.4002L39.0396 37.5302ZM37.9896 37.3102L38.0396 37.1702L38.8596 37.4702L37.9896 37.3102ZM37.7796 38.3502L37.6396 38.3002L37.9396 37.4802L37.7796 38.3502ZM38.7596 38.7502L38.6696 38.9102L37.7796 38.4002L38.7596 38.7502ZM39.2195 37.5902L39.3796 37.6802L38.8696 38.5602L39.2195 37.5902ZM38.0596 37.1302L38.1496 36.9702L39.0396 37.4802L38.0596 37.1302ZM37.5896 38.2902L37.4296 38.2002L37.9396 37.3202L37.5896 38.2902ZM38.6496 38.9602L38.5096 39.1202L37.5896 38.3502L38.6496 38.9602ZM39.4296 37.7002L39.5896 37.8402L38.8196 38.7602L39.4296 37.7002ZM38.1696 36.9302L38.3096 36.7702L39.2296 37.5402L38.1696 36.9302ZM37.3896 38.1802L37.2296 38.0402L37.9996 37.1202L37.3896 38.1802ZM38.4796 39.1602L38.2896 39.3202L37.3796 38.2402L38.4796 39.1602ZM39.6396 37.8702L39.7996 38.0602L38.7096 38.9702L39.6396 37.8702ZM38.3396 36.7202L38.5296 36.5602L39.4396 37.6402L38.3396 36.7202ZM37.1796 38.0102L37.0196 37.8202L38.1096 36.9102L37.1796 38.0102ZM38.2396 39.3702L37.9896 39.5202L37.1595 38.0802L38.2396 39.3702ZM39.8396 38.1102L39.9896 38.3602L38.5496 39.1902L39.8396 38.1102ZM38.5796 36.5102L38.8296 36.3602L39.6595 37.8002L38.5796 36.5102ZM36.9695 37.7702L36.8196 37.5202L38.2596 36.6902L36.9695 37.7702ZM37.9196 39.5702L37.5896 39.6902L36.9196 37.8502L37.9196 39.5702ZM40.0396 38.4302L40.1595 38.7502L38.3196 39.4202L40.0396 38.4302ZM38.8996 36.3202L39.2296 36.2002L39.8996 38.0402L38.8996 36.3202ZM36.7796 37.4502L36.6595 37.1302L38.4996 36.4602L36.7796 37.4502ZM37.5096 39.7202L37.1096 39.7902L36.7096 37.5202L37.5096 39.7202ZM39.3096 36.1602L39.7096 36.0902L40.1096 38.3602L39.3096 36.1602ZM40.2996 39.3502V39.8302H37.5896L40.2996 39.3502ZM36.5196 36.5402V36.0602H39.2396L36.5196 36.5402ZM40.3096 39.9502L40.2096 40.5002L37.0596 39.9502H40.3096ZM36.5096 35.9302L36.6096 35.3802L39.7596 35.9302H36.5096ZM36.3896 39.8302L35.8396 39.7302L36.3896 36.5902V39.8302ZM40.1996 40.6602L39.9695 41.2802L36.4396 40.0002L40.1996 40.6602ZM40.4296 36.0502L40.9796 36.1502L40.4296 39.2902V36.0502ZM36.6196 35.2202L36.8495 34.6002L40.3796 35.8802L36.6196 35.2202ZM35.6796 39.7202L35.0596 39.4902L36.3495 35.9702L35.6796 39.7202ZM39.9196 41.4502L39.5296 42.1202L35.6996 39.9102L39.9196 41.4502ZM41.1296 36.1602L41.7496 36.3902L40.4596 39.9102L41.1296 36.1602ZM36.8896 34.4302L37.2796 33.7602L41.1096 35.9702L36.8896 34.4302ZM34.8896 39.4502L34.2096 39.0602L36.4196 35.2402L34.8896 39.4502ZM39.4396 42.3202L38.8495 43.0202L34.8696 39.6802L39.4396 42.3202ZM41.9296 36.4302L42.6096 36.8202L40.3996 40.6402L41.9296 36.4302ZM37.3696 33.5602L37.9596 32.8602L41.9396 36.2002L37.3696 33.5602ZM34.0196 38.9702L33.3196 38.3802L36.6595 34.4002L34.0196 38.9702ZM38.7096 43.2302L37.8796 43.9202L33.9496 39.2402L38.7096 43.2302ZM42.7996 36.9102L43.4996 37.5002L40.1595 41.4802L42.7996 36.9102ZM38.1096 32.6502L38.9396 31.9602L42.8696 36.6402L38.1096 32.6502ZM33.1096 38.2402L32.4196 37.4202L37.1096 33.5002L33.1096 38.2402ZM37.6796 44.1302L36.5796 44.7602L32.9796 38.5402L37.6796 44.1302ZM43.7096 37.6402L44.3996 38.4602L39.7096 42.3802L43.7096 37.6402ZM39.1396 31.7502L40.2396 31.1202L43.8396 37.3402L39.1396 31.7502ZM32.2096 37.2102L31.5796 36.1102L37.8096 32.5202L32.2096 37.2102ZM36.2896 44.9602L34.8896 45.4702L31.9896 37.5302L36.2896 44.9602ZM44.6096 38.6702L45.2396 39.7702L39.0096 43.3602L44.6096 38.6702ZM40.5196 30.9202L41.9196 30.4102L44.8196 38.3502L40.5196 30.9202ZM31.3696 35.8302L30.8596 34.4302L38.8196 31.5402L31.3696 35.8302ZM34.5196 45.6402L32.7896 45.9402L31.0596 36.1502L34.5196 45.6402ZM45.4396 40.0502L45.9496 41.4502L37.9896 44.3402L45.4396 40.0502ZM42.2996 30.2402L44.0296 29.9402L45.7596 39.7302L42.2996 30.2402ZM30.2596 31.8702V29.8102H41.9796L30.2596 31.8702ZM46.5596 44.0102V46.0702H34.8396L46.5596 44.0102ZM30.2096 29.2502L30.6296 26.8602L44.2096 29.2502H30.2096ZM29.6996 46.1202L27.3096 45.7002L29.6996 32.1502V46.1202ZM46.6096 46.6302L46.1896 49.0202L32.6096 46.6302H46.6096ZM47.1196 29.7602L49.5096 30.1802L47.1196 43.7302V29.7602ZM30.6896 26.2002L31.6696 23.5202L46.9196 29.0602L30.6896 26.2002ZM26.6396 45.6402L23.9496 44.6602L29.4996 29.4502L26.6396 45.6402ZM46.1296 49.6802L45.1496 52.3602L29.8996 46.8202L46.1296 49.6802ZM50.1696 30.2402L52.8596 31.2202L47.3096 46.4302L50.1696 30.2402ZM31.8696 22.7702L33.5496 19.8602L50.0796 29.3802L31.8696 22.7702ZM23.1996 44.4602L20.2896 42.7802L29.8296 26.2902L23.1996 44.4602ZM44.9496 53.1102L43.2696 56.0202L26.7396 46.5002L44.9496 53.1102ZM53.6196 31.4202L56.5296 33.1002L46.9896 49.5902L53.6196 31.4202ZM33.9396 19.0302L36.4896 16.0002L53.6896 30.4002L33.9396 19.0302ZM19.4496 42.4002L16.4196 39.8602L30.8495 22.7002L19.4496 42.4002ZM42.8796 56.8502L40.3296 59.8802L23.1296 45.4802L42.8796 56.8502ZM57.3596 33.4802L60.3896 36.0202L45.9596 53.1802L57.3596 33.4802ZM37.0995 15.1202L40.6696 12.1302L57.6496 32.3202L37.0995 15.1202ZM15.5296 39.2402L12.5396 35.6802L32.7796 18.7402L15.5296 39.2402ZM39.7096 60.7602L36.1396 63.7502L19.1595 43.5602L39.7096 60.7602ZM61.2796 36.6402L64.2696 40.2002L44.0296 57.1402L61.2796 36.6402ZM41.5696 11.2302L46.3196 8.50018L61.8596 35.3502L41.5696 11.2302ZM11.6396 34.7902L8.8996 30.0502L35.8196 14.5502L11.6396 34.7902ZM35.2496 64.6502L30.4996 67.3802L14.9596 40.5302L35.2496 64.6502ZM65.1796 41.0902L67.9196 45.8302L40.9996 61.3302L65.1796 41.0902ZM47.5396 7.6402L53.5995 5.44019L66.1096 39.7202L47.5396 7.6402ZM8.03955 28.8302L5.82959 22.7902L40.1896 10.3102L8.03955 28.8302ZM29.2796 68.2402L23.2195 70.4402L10.7096 36.1602L29.2796 68.2402ZM68.7796 47.0502L70.9896 53.0902L36.6296 65.5702L68.7796 47.0502ZM55.1896 4.7002L62.6595 3.3902L70.1296 45.6602L55.1896 4.7002ZM21.6196 71.1802L14.1496 72.4902L6.67957 30.2202L21.6196 71.1802ZM53.8396 2.85016L3.22955 11.7502V2.85016H53.8396ZM3.22955 22.5402L12.1496 73.0302H3.22955V22.5402ZM22.9695 73.0402L73.5796 64.1402V73.0402H22.9695Z" fill="black"/>
</svg>
