<svg width="77" height="76" viewBox="0 0 77 76" fill="none" xmlns="http://www.w3.org/2000/svg">
<path d="M40.5897 75.22L37.9996 71.41C32.0496 62.68 28.7797 55.37 28.0297 49.13C25.6397 53.25 23.9596 60.99 22.2396 71.2L21.5897 75.07L21.1696 71.17C20.1696 61.83 20.3796 54.07 21.7896 48.05C19.8796 50.42 17.8596 53.75 15.7496 57.23C12.4196 62.7 8.97965 68.37 5.32965 71.52L2.28961 74.14L4.51965 70.82C6.49965 67.88 8.54961 63.46 10.7296 58.78C13.3996 53.05 16.1396 47.15 19.1296 43.04C15.4796 45.24 10.9496 49.12 5.35962 54.8L4.51965 54.12C11.2997 44.06 17.7596 37.1 23.3196 33.85C19.4796 33.6 13.6196 35.02 5.15961 38.23L0.849609 39.87L4.66962 37.28C13.4196 31.35 20.7496 28.08 26.9996 27.34C22.8696 24.96 15.1096 23.28 4.87964 21.56L0.999634 20.91L4.90961 20.49C14.2696 19.49 22.0497 19.7 28.0797 21.11C25.6997 19.21 22.3596 17.19 18.8696 15.08C13.3796 11.76 7.70962 8.32996 4.54962 4.67996L1.92963 1.64996L5.25964 3.87997C8.20964 5.84997 12.6396 7.89998 17.3196 10.07C23.0696 12.73 28.9796 15.47 33.0996 18.45C30.8896 14.81 27.0096 10.29 21.3196 4.71997L21.9996 3.88998C32.0796 10.65 39.0596 17.1 42.3196 22.64C42.5696 18.8 41.1496 12.97 37.9296 4.52997L36.2896 0.22998L38.8796 4.03998C44.8196 12.77 48.0996 20.08 48.8496 26.32C51.2396 22.2 52.9196 14.46 54.6396 4.24997L55.2896 0.379974L55.7097 4.27997C56.7097 13.62 56.4997 21.38 55.0897 27.4C56.9997 25.03 59.0196 21.7 61.1396 18.22C64.4696 12.75 67.9096 7.07997 71.5596 3.93997L74.5996 1.31998L72.3696 4.63998C70.3896 7.57998 68.3396 12 66.1596 16.68C63.4896 22.41 60.7496 28.31 57.7596 32.42C61.4096 30.22 65.9397 26.34 71.5297 20.67L72.3696 21.35C65.5896 31.41 59.1296 38.37 53.5696 41.62C57.4196 41.88 63.2696 40.45 71.7296 37.24L76.0396 35.6L72.2196 38.19C63.4696 44.12 56.1396 47.39 49.8896 48.13C54.0196 50.51 61.7796 52.19 72.0096 53.91L75.8896 54.56L71.9796 54.98C62.6296 55.98 54.8496 55.77 48.8096 54.36C51.1896 56.26 54.5297 58.28 58.0197 60.39C63.5097 63.71 69.1797 67.14 72.3397 70.79L74.9597 73.82L71.6296 71.59C68.6796 69.62 64.2496 67.57 59.5696 65.4C53.8196 62.74 47.9096 60 43.7896 57.02C45.9996 60.66 49.8796 65.18 55.5696 70.75L54.8896 71.58C44.8096 64.82 37.8296 58.37 34.5696 52.83C34.3196 56.67 35.7397 62.5 38.9597 70.94L40.5897 75.22ZM40.4996 52.77L42.4296 54.52C46.3196 58.05 53.2797 61.27 60.0197 64.39C62.8797 65.71 65.6496 67 68.0596 68.25C65.0396 65.87 61.2096 63.55 57.4696 61.29C52.9896 58.58 48.7596 56.02 46.3796 53.6L44.8796 52.08L46.9196 52.7C52.2496 54.33 59.2696 54.84 67.7996 54.24C58.3296 52.53 51.3696 50.74 47.9896 48.12L46.8397 47.23L48.2896 47.15C53.7496 46.86 60.1196 44.45 67.6696 39.82C60.1396 42.38 55.1396 43.18 51.7496 42.41L50.2396 42.07L51.6396 41.4C56.4396 39.1 62.0596 33.67 68.0596 25.57C63.1296 30.21 59.2096 33.12 55.9296 34.59L53.5496 35.66L55.2996 33.74C58.8396 29.86 62.0696 22.91 65.1996 16.19C66.5296 13.33 67.8096 10.57 69.0696 8.16998C66.6896 11.18 64.3597 15 62.0897 18.74C59.3797 23.21 56.8096 27.43 54.3896 29.81L52.8696 31.3L53.4996 29.26C55.1296 23.94 55.6496 16.95 55.0396 8.42996C53.3196 17.88 51.5296 24.82 48.9096 28.19L48.0197 29.33L47.9396 27.88C47.6496 22.43 45.2397 16.08 40.5897 8.54996C43.1597 16.06 43.9596 21.05 43.1796 24.43L42.8397 25.94L42.1696 24.55C39.8596 19.76 34.4196 14.16 26.2996 8.16998C30.9496 13.09 33.8597 17 35.3397 20.27L36.4096 22.64L34.4796 20.89C30.5896 17.36 23.6296 14.14 16.8896 11.02C14.0296 9.68996 11.2596 8.40997 8.84961 7.15997C11.8696 9.53997 15.6996 11.86 19.4396 14.12C23.9196 16.83 28.1497 19.39 30.5297 21.81L32.0297 23.33L29.9896 22.71C24.6596 21.08 17.6396 20.57 9.10962 21.18C18.5796 22.89 25.5396 24.68 28.9196 27.3L30.0696 28.19L28.6196 28.27C23.1596 28.56 16.7896 30.97 9.23962 35.6C16.7696 33.04 21.7696 32.24 25.1596 33.01L26.6696 33.35L25.2697 34.02C20.4697 36.32 14.8496 41.75 8.84961 49.85C13.7796 45.21 17.6996 42.3 20.9796 40.83L23.3596 39.76L21.6096 41.68C18.0696 45.56 14.8397 52.51 11.7097 59.23C10.3797 62.09 9.09966 64.85 7.83966 67.25C10.2197 64.24 12.5496 60.42 14.8196 56.68C17.5296 52.21 20.0997 48 22.5197 45.61L24.0396 44.12L23.4096 46.16C21.7796 51.48 21.2596 58.47 21.8696 66.99C23.5896 57.54 25.3796 50.6 27.9996 47.23L28.8896 46.09L28.9696 47.54C29.2596 52.99 31.6696 59.34 36.3196 66.87C33.7496 59.36 32.9496 54.37 33.7196 50.99L34.0596 49.48L34.7296 50.87C37.0396 55.66 42.4796 61.26 50.5996 67.25C45.9496 62.33 43.0396 58.42 41.5596 55.15L40.4996 52.77Z" fill="#00ff3c"/>
</svg>
