<svg width="77" height="64" viewBox="0 0 77 64" fill="none" xmlns="http://www.w3.org/2000/svg">
<path d="M38.5 64L6.35 31.92C2.84 28.41 0.899994 23.75 0.899994 18.79C0.899994 13.83 2.84 9.16997 6.35 5.65997C9.86 2.14997 14.54 0.219971 19.51 0.219971C24.48 0.219971 29.15 2.14997 32.67 5.65997L38.51 11.49L44.35 5.65997C47.86 2.14997 52.54 0.219971 57.51 0.219971C62.48 0.219971 67.15 2.14997 70.67 5.65997C74.18 9.16997 76.12 13.83 76.12 18.79C76.12 23.75 74.18 28.41 70.67 31.92L38.5 64ZM19.5 3.25C15.51 3.25 11.52 4.76999 8.47999 7.79999C5.53999 10.74 3.91 14.64 3.91 18.8C3.91 22.95 5.52999 26.86 8.47999 29.8L38.5 59.75L68.52 29.8C71.46 26.86 73.09 22.96 73.09 18.8C73.09 14.65 71.47 10.74 68.52 7.79999C62.44 1.73999 52.55 1.73999 46.48 7.79999L38.51 15.75L30.54 7.79999C27.49 4.76999 23.49 3.25 19.5 3.25Z" fill="#00ff3c"/>
<path d="M38.5 55.49L10.61 27.67C8.24 25.3 6.92999 22.15 6.92999 18.8C6.92999 15.45 8.24 12.3 10.61 9.92999C12.98 7.55999 16.14 6.26001 19.5 6.26001C22.86 6.26001 26.01 7.55999 28.39 9.92999L38.5 20.01L48.61 9.92999C50.98 7.55999 54.14 6.26001 57.5 6.26001C60.86 6.26001 64.01 7.55999 66.39 9.92999C68.76 12.3 70.07 15.45 70.07 18.8C70.07 22.15 68.76 25.3 66.39 27.67L38.5 55.49ZM19.5 9.27002C16.95 9.27002 14.55 10.26 12.74 12.06C10.94 13.86 9.94 16.25 9.94 18.8C9.94 21.35 10.93 23.74 12.74 25.54L38.49 51.23L64.24 25.54C66.04 23.74 67.04 21.35 67.04 18.8C67.04 16.25 66.05 13.86 64.24 12.06C62.44 10.26 60.04 9.27002 57.49 9.27002C54.94 9.27002 52.54 10.26 50.73 12.06L38.49 24.27L26.25 12.06C24.45 10.26 22.05 9.27002 19.5 9.27002Z" fill="#00ff3c"/>
<path d="M38.5 46.97L14.88 23.41C13.63 22.16 12.96 20.57 12.96 18.8C12.96 17.03 13.62 15.44 14.87 14.19C16.12 12.94 17.72 12.28 19.49 12.28C21.26 12.28 22.86 12.94 24.11 14.19L38.49 28.53L52.87 14.19C54.12 12.94 55.72 12.28 57.49 12.28C59.26 12.28 60.86 12.94 62.11 14.19C63.36 15.44 64.02 17.03 64.02 18.8C64.02 20.57 63.36 22.16 62.11 23.41L38.5 46.97ZM19.5 15.29C18.53 15.29 17.7 15.64 17.01 16.32C16.33 17 15.98 17.84 15.98 18.8C15.98 19.76 16.33 20.6 17.01 21.28L38.49 42.71L59.97 21.27C60.65 20.59 61 19.75 61 18.79C61 17.83 60.65 16.99 59.97 16.31C59.29 15.63 58.45 15.28 57.48 15.28C56.51 15.28 55.68 15.63 54.99 16.31L38.48 32.78L21.97 16.31C21.31 15.63 20.47 15.29 19.5 15.29Z" fill="#00ff3c"/>
</svg>
