<svg width="76" height="76" viewBox="0 0 76 76" fill="none" xmlns="http://www.w3.org/2000/svg">
<path d="M42.23 46.46H50.59L54.77 42.29H38.06V58.96L42.23 54.79V46.46Z" fill="#00ff3c"/>
<path d="M29.7 63.13V71.47L33.88 75.63V58.96H17.17L21.34 63.13H29.7Z" fill="#00ff3c"/>
<path d="M38.06 63.13V75.63H50.59L38.06 63.13Z" fill="#00ff3c"/>
<path d="M46.41 33.95V25.61L42.23 21.45V38.12H58.95L54.77 33.95H46.41Z" fill="#00ff3c"/>
<path d="M63.12 46.46H71.48L75.66 42.29H58.95V58.96L63.12 54.79V46.46Z" fill="#00ff3c"/>
<path d="M63.12 38.12H75.66V25.61L63.12 38.12Z" fill="#00ff3c"/>
<path d="M33.88 29.78H25.52L21.34 33.95H38.06V17.28L33.88 21.45V29.78Z" fill="#00ff3c"/>
<path d="M46.41 13.11V4.76999L42.23 0.600006V17.28H58.95L54.77 13.11H46.41Z" fill="#00ff3c"/>
<path d="M38.06 13.11V0.600006H25.52L38.06 13.11Z" fill="#00ff3c"/>
<path d="M29.7 42.29V50.62L33.88 54.79V38.12H17.17L21.34 42.29H29.7Z" fill="#00ff3c"/>
<path d="M12.99 29.78H4.63L0.450012 33.95H17.17V17.28L12.99 21.45V29.78Z" fill="#00ff3c"/>
<path d="M12.99 38.12H0.450012V50.62L12.99 38.12Z" fill="#00ff3c"/>
</svg>
