<svg width="79" height="78" viewBox="0 0 79 78" fill="none" xmlns="http://www.w3.org/2000/svg">
<path d="M70.5703 15.8199L70.6203 15.7999L69.4203 14.34C62.0103 5.32997 51.0603 0.169922 39.3803 0.169922C37.1903 0.169922 35.0303 0.349961 32.9103 0.709961C23.7303 2.24996 15.3703 7.02991 9.35027 14.3499L8.15027 15.8099L8.20027 15.83C3.24027 22.49 0.530273 30.63 0.530273 38.95C0.530273 47.91 3.66027 56.6399 9.35027 63.5399C16.6503 72.4199 27.3903 77.55 38.8803 77.7C39.0503 77.7 39.2203 77.7199 39.3903 77.7199C39.5603 77.7199 39.7203 77.71 39.8903 77.7C51.3803 77.56 62.1203 72.4199 69.4303 63.5399C75.1203 56.6399 78.2503 47.9 78.2503 38.95C78.2403 30.62 75.5303 22.4899 70.5703 15.8199ZM65.6903 37.6899C65.5303 30.5099 64.0503 23.8099 61.5803 18.1299C63.7503 17.6699 65.8903 17.1599 67.9703 16.5699C72.7203 22.6099 75.4203 30.03 75.6903 37.7H65.6903V37.6899ZM3.09027 37.6899C3.36027 30.0299 6.06027 22.6099 10.8103 16.5599C12.8903 17.1499 15.0203 17.6699 17.1903 18.1199C14.7203 23.8099 13.2303 30.4999 13.0803 37.6799H3.09027V37.6899ZM12.6003 14.4299C12.7303 14.2899 12.8603 14.16 12.9903 14.02C13.3103 13.68 13.6303 13.3399 13.9703 13.0099C14.1503 12.8399 14.3303 12.6699 14.5103 12.4999C14.8103 12.2199 15.1003 11.9399 15.4003 11.6799C15.6003 11.4999 15.8103 11.3299 16.0203 11.1599C16.3103 10.9199 16.6003 10.6699 16.9003 10.4399C17.1203 10.2699 17.3503 10.0999 17.5703 9.92993C17.8603 9.70993 18.1603 9.48997 18.4603 9.27997C18.6903 9.11997 18.9303 8.95993 19.1703 8.79993C19.4703 8.59993 19.7703 8.39996 20.0703 8.20996C20.3203 8.05996 20.5703 7.90995 20.8203 7.75995C21.1203 7.57995 21.4303 7.39992 21.7403 7.22992C22.0003 7.08992 22.2503 6.94994 22.5103 6.80994C22.8203 6.64994 23.1403 6.48996 23.4503 6.32996C23.7103 6.19996 23.9803 6.07995 24.2503 5.94995C24.5703 5.79995 24.8903 5.65997 25.2203 5.52997C25.4903 5.41997 25.7603 5.29995 26.0303 5.19995C26.2803 5.09995 26.5203 5.00992 26.7703 4.91992C23.4403 7.60992 20.5403 11.3399 18.2803 15.7999C16.3403 15.4099 14.4303 14.97 12.5603 14.46C12.5703 14.46 12.5903 14.4399 12.6003 14.4299ZM53.5603 5.53992C53.8803 5.67992 54.2003 5.81996 54.5203 5.95996C54.7903 6.07996 55.0603 6.20997 55.3203 6.33997C55.6303 6.48997 55.9403 6.64994 56.2503 6.80994C56.5103 6.94994 56.7803 7.08992 57.0403 7.22992C57.3403 7.39992 57.6503 7.56994 57.9503 7.74994C58.2003 7.89994 58.4603 8.04996 58.7103 8.20996C59.0103 8.39996 59.3003 8.58992 59.5903 8.78992C59.8303 8.94992 60.0803 9.11992 60.3203 9.28992C60.6103 9.48992 60.8903 9.70992 61.1803 9.91992C61.4103 10.0999 61.6503 10.27 61.8803 10.45C62.1603 10.67 62.4403 10.91 62.7203 11.14C62.9403 11.32 63.1603 11.51 63.3803 11.7C63.6603 11.95 63.9403 12.2099 64.2103 12.4699C64.4103 12.6599 64.6203 12.84 64.8103 13.03C65.1003 13.32 65.3903 13.6199 65.6803 13.9199C65.8503 14.0999 66.0203 14.2599 66.1803 14.4399C66.1903 14.4499 66.2003 14.4599 66.2103 14.4699C64.3403 14.9699 62.4303 15.4099 60.4903 15.8099C58.2303 11.3499 55.3303 7.61993 51.9903 4.92993C52.2403 5.01993 52.4903 5.10996 52.7403 5.20996C53.0203 5.30996 53.2903 5.42992 53.5603 5.53992ZM38.1303 2.95996V17.8799C35.5503 17.8499 32.9703 17.73 30.4003 17.52C32.3403 9.44996 35.2503 4.16996 38.1303 2.95996ZM40.6403 2.95996C43.5203 4.16996 46.4303 9.44996 48.3703 17.52C45.8003 17.73 43.2203 17.8499 40.6403 17.8799V2.95996ZM27.7903 17.27C25.4103 17.01 23.0803 16.68 20.8203 16.28C23.9903 10.26 28.4003 5.79995 33.4503 3.81995C31.2103 6.67995 29.2103 11.19 27.7903 17.27ZM29.8603 19.9799C32.6203 20.2099 35.3803 20.3399 38.1303 20.3799V37.7H28.1203C28.1903 31.04 28.8403 25.0499 29.8603 19.9799ZM38.1303 40.1899V57.5099C35.3703 57.5399 32.6103 57.6699 29.8603 57.9099C28.8403 52.8399 28.1903 46.8499 28.1203 40.1899H38.1303ZM38.1303 60.02V74.9399C35.2503 73.7299 32.3403 68.45 30.4003 60.39C32.9803 60.17 35.5503 60.05 38.1303 60.02ZM40.6403 74.9299V60.0099C43.2203 60.0399 45.8003 60.1599 48.3703 60.3699C46.4303 68.4399 43.5203 73.7199 40.6403 74.9299ZM48.9103 57.9099C46.1603 57.6799 43.4003 57.5499 40.6403 57.5099V40.1899H50.6603C50.5803 46.8499 49.9403 52.8399 48.9103 57.9099ZM40.6403 37.6899V20.3699C43.3903 20.3399 46.1603 20.2099 48.9103 19.9699C49.9303 25.0399 50.5803 31.0299 50.6503 37.6799H40.6403V37.6899ZM45.3303 3.81995C50.3803 5.79995 54.7903 10.26 57.9603 16.28C55.6903 16.68 53.3703 17.02 50.9903 17.27C49.5603 11.19 47.5603 6.67995 45.3303 3.81995ZM19.6703 18.6199C22.1303 19.0699 24.6703 19.4399 27.2703 19.7199C26.2803 24.7799 25.6803 30.7799 25.6103 37.6899H15.5903C15.7503 30.6399 17.2303 24.0999 19.6703 18.6199ZM25.6103 40.1899C25.6803 47.0999 26.2803 53.0999 27.2703 58.1599C24.6803 58.4399 22.1403 58.81 19.6803 59.27C17.2403 53.79 15.7603 47.2399 15.6003 40.1899H25.6103ZM27.7903 60.6199C29.2103 66.6999 31.2103 71.2099 33.4503 74.0699C28.4003 72.0899 24.0003 67.6299 20.8203 61.6199C23.0903 61.2099 25.4203 60.8699 27.7903 60.6199ZM50.9803 60.6199C53.3503 60.8699 55.6803 61.2099 57.9503 61.6099C54.7803 67.6299 50.3703 72.0799 45.3203 74.0599C47.5603 71.2099 49.5603 66.6999 50.9803 60.6199ZM59.1003 59.27C56.6303 58.81 54.0903 58.4499 51.5103 58.1599C52.5003 53.0999 53.1003 47.0999 53.1703 40.1899H63.1903C63.0203 47.2399 61.5403 53.79 59.1003 59.27ZM53.1603 37.6899C53.0903 30.7799 52.4903 24.7799 51.5003 19.7199C54.0903 19.4399 56.6403 19.0699 59.1003 18.6099C61.5403 24.0899 63.0203 30.6299 63.1803 37.6799H53.1603V37.6899ZM3.09027 40.1899H13.0803C13.2403 47.3699 14.7203 54.0699 17.1903 59.7599C15.0403 60.2099 12.9103 60.7199 10.8003 61.3099C6.07027 55.2799 3.36027 47.8599 3.09027 40.1899ZM12.5903 63.4299C14.4703 62.9299 16.3703 62.47 18.2903 62.08C20.5503 66.53 23.4403 70.2399 26.7603 72.9299C21.3903 70.9599 16.5303 67.7299 12.5903 63.4299ZM52.0203 72.9399C55.3403 70.2499 58.2303 66.54 60.4903 62.08C62.4003 62.47 64.3003 62.9199 66.1903 63.4299C62.2503 67.7299 57.3803 70.9599 52.0203 72.9399ZM67.9603 61.3099C65.8603 60.7199 63.7203 60.2099 61.5703 59.7599C64.0403 54.0699 65.5303 47.3799 65.6803 40.1899H75.6803C75.4103 47.8599 72.7103 55.2799 67.9603 61.3099Z" fill="#00ff3c"/>
</svg>
