<svg width="89" height="41" viewBox="0 0 89 41" fill="none" xmlns="http://www.w3.org/2000/svg">
<path d="M17.39 0.899994C35.51 0.939994 53.64 0.939994 71.76 0.899994C76.83 14.39 82.55 27.14 88.36 40.32C59.17 40.31 29.99 40.31 0.799988 40.32C6.59999 27.15 12.32 14.39 17.39 0.899994Z" stroke="#00ff3c" stroke-width="0.5" stroke-miterlimit="50"/>
<path d="M3.09998 34.83C31.32 36.44 57.8 36.44 86.06 34.83" stroke="#00ff3c" stroke-width="0.5" stroke-miterlimit="50"/>
<path d="M5.16998 30.17C34.61 35.22 54.36 35.26 83.98 30.17" stroke="#00ff3c" stroke-width="0.5" stroke-miterlimit="50"/>
<path d="M7.04999 26.23C37.45 34.78 51.39 34.87 82.11 26.23" stroke="#00ff3c" stroke-width="0.5" stroke-miterlimit="50"/>
<path d="M8.75 22.62C38.61 33.37 50.93 33.23 80.4 22.62" stroke="#00ff3c" stroke-width="0.5" stroke-miterlimit="50"/>
<path d="M10.31 19.32C38.37 29.05 51.14 28.94 78.85 19.32" stroke="#00ff3c" stroke-width="0.5" stroke-miterlimit="50"/>
<path d="M11.74 15.98C37.51 23.38 51.91 23.31 77.43 15.98" stroke="#00ff3c" stroke-width="0.5" stroke-miterlimit="50"/>
<path d="M13.05 12.58C36.43 17.55 52.89 17.52 76.11 12.58" stroke="#00ff3c" stroke-width="0.5" stroke-miterlimit="50"/>
<path d="M14.26 9.25C35.17 12.46 54.03 12.69 74.9 9.25" stroke="#00ff3c" stroke-width="0.5" stroke-miterlimit="50"/>
<path d="M15.38 6.13C35.11 7.6 54.04 7.6 73.77 6.13" stroke="#00ff3c" stroke-width="0.5" stroke-miterlimit="50"/>
<path d="M16.42 3.32001C35.21 3.85001 53.94 3.85001 72.73 3.32001" stroke="#00ff3c" stroke-width="0.5" stroke-miterlimit="50"/>
<path d="M66.82 0.910004C70.67 14.74 74.8 27.15 80.4 40.3" stroke="#00ff3c" stroke-width="0.5" stroke-miterlimit="50"/>
<path d="M61.88 0.929993C64.53 14.49 66.81 27.64 72.44 40.32" stroke="#00ff3c" stroke-width="0.5" stroke-miterlimit="50"/>
<path d="M56.94 0.929993C58.65 14.33 59.59 27.67 64.48 40.33" stroke="#00ff3c" stroke-width="0.5" stroke-miterlimit="50"/>
<path d="M51.99 0.929993C52.9 13.69 52.84 27.81 56.52 40.34" stroke="#00ff3c" stroke-width="0.5" stroke-miterlimit="50"/>
<path d="M47.05 0.929993C47.35 13.89 47.08 27.37 48.56 40.34" stroke="#00ff3c" stroke-width="0.5" stroke-miterlimit="50"/>
<path d="M42.11 0.929993C41.81 13.89 42.08 27.37 40.6 40.34" stroke="#00ff3c" stroke-width="0.5" stroke-miterlimit="50"/>
<path d="M37.16 0.929993C36.25 13.69 36.31 27.81 32.63 40.34" stroke="#00ff3c" stroke-width="0.5" stroke-miterlimit="50"/>
<path d="M32.22 0.929993C30.51 14.33 29.57 27.67 24.68 40.33" stroke="#00ff3c" stroke-width="0.5" stroke-miterlimit="50"/>
<path d="M27.28 0.929993C24.63 14.49 22.35 27.64 16.72 40.32" stroke="#00ff3c" stroke-width="0.5" stroke-miterlimit="50"/>
<path d="M22.34 0.910004C18.49 14.74 14.36 27.15 8.76001 40.3" stroke="#00ff3c" stroke-width="0.5" stroke-miterlimit="50"/>
</svg>
