<svg width="108" height="108" viewBox="0 0 108 108" fill="none" xmlns="http://www.w3.org/2000/svg">
<path d="M53.61 107.18C82.975 107.18 106.78 83.4242 106.78 54.12C106.78 24.8158 82.975 1.06 53.61 1.06C24.245 1.06 0.440002 24.8158 0.440002 54.12C0.440002 83.4242 24.245 107.18 53.61 107.18Z" stroke="#00ff3c" stroke-width="0.5" stroke-miterlimit="10"/>
<path d="M24.15 82.26C43.79 63.69 63.43 63.69 83.07 82.26" stroke="#00ff3c" stroke-width="0.5" stroke-miterlimit="10"/>
<path d="M29.97 72.88C45.73 60.5 61.49 60.5 77.25 72.88" stroke="#00ff3c" stroke-width="0.5" stroke-miterlimit="10"/>
<path d="M33.46 63.5C46.89 57.31 60.33 57.31 73.76 63.5" stroke="#00ff3c" stroke-width="0.5" stroke-miterlimit="10"/>
<path d="M34.62 54.12C47.28 54.12 59.94 54.12 72.6 54.12" stroke="#00ff3c" stroke-width="0.5" stroke-miterlimit="10"/>
<path d="M33.46 44.74C46.89 50.93 60.33 50.93 73.76 44.74" stroke="#00ff3c" stroke-width="0.5" stroke-miterlimit="10"/>
<path d="M29.97 35.36C45.73 47.74 61.49 47.74 77.25 35.36" stroke="#00ff3c" stroke-width="0.5" stroke-miterlimit="10"/>
<path d="M24.15 25.98C43.79 44.55 63.43 44.55 83.07 25.98" stroke="#00ff3c" stroke-width="0.5" stroke-miterlimit="10"/>
<path d="M81.81 24.73C63.2 44.32 63.2 63.92 81.81 83.51" stroke="#00ff3c" stroke-width="0.5" stroke-miterlimit="10"/>
<path d="M72.41 30.53C60 46.25 60 61.98 72.41 77.7" stroke="#00ff3c" stroke-width="0.5" stroke-miterlimit="10"/>
<path d="M63.01 34.01C56.81 47.41 56.81 60.82 63.01 74.22" stroke="#00ff3c" stroke-width="0.5" stroke-miterlimit="10"/>
<path d="M53.61 35.18C53.61 47.81 53.61 60.44 53.61 73.07" stroke="#00ff3c" stroke-width="0.5" stroke-miterlimit="10"/>
<path d="M44.21 34.01C50.41 47.41 50.41 60.82 44.21 74.22" stroke="#00ff3c" stroke-width="0.5" stroke-miterlimit="10"/>
<path d="M34.81 30.53C47.22 46.25 47.22 61.98 34.81 77.7" stroke="#00ff3c" stroke-width="0.5" stroke-miterlimit="10"/>
<path d="M25.41 24.73C44.02 44.32 44.02 63.92 25.41 83.51" stroke="#00ff3c" stroke-width="0.5" stroke-miterlimit="10"/>
</svg>
