<svg width="77" height="76" viewBox="0 0 77 76" fill="none" xmlns="http://www.w3.org/2000/svg">
<path d="M37.43 26.18L38.58 0.0499878L39.73 26.18H37.43Z" fill="#00ff3c"/>
<path d="M34.6 31.09L28.58 13.56L36.73 30.21L34.6 31.09Z" fill="#00ff3c"/>
<path d="M29.63 30.36L11.94 11.07L31.25 28.74L29.63 30.36Z" fill="#00ff3c"/>
<path d="M31.1 35.83L14.43 27.69L31.98 33.71L31.1 35.83Z" fill="#00ff3c"/>
<path d="M27.07 38.82L0.900024 37.68L27.07 36.53V38.82Z" fill="#00ff3c"/>
<path d="M31.98 41.65L14.43 47.67L31.1 39.53L31.98 41.65Z" fill="#00ff3c"/>
<path d="M31.25 46.62L11.94 64.28L29.63 44.99L31.25 46.62Z" fill="#00ff3c"/>
<path d="M36.73 45.14L28.58 61.79L34.6 44.26L36.73 45.14Z" fill="#00ff3c"/>
<path d="M39.73 49.17L38.58 75.3L37.43 49.17H39.73Z" fill="#00ff3c"/>
<path d="M42.55 44.26L48.58 61.79L40.43 45.14L42.55 44.26Z" fill="#00ff3c"/>
<path d="M47.53 44.99L65.22 64.28L45.91 46.62L47.53 44.99Z" fill="#00ff3c"/>
<path d="M46.05 39.53L62.73 47.67L45.17 41.65L46.05 39.53Z" fill="#00ff3c"/>
<path d="M50.09 36.53L76.25 37.68L50.09 38.82V36.53Z" fill="#00ff3c"/>
<path d="M45.17 33.71L62.73 27.69L46.05 35.83L45.17 33.71Z" fill="#00ff3c"/>
<path d="M45.91 28.74L65.22 11.07L47.53 30.36L45.91 28.74Z" fill="#00ff3c"/>
<path d="M40.43 30.21L48.58 13.56L42.55 31.09L40.43 30.21Z" fill="#00ff3c"/>
<path d="M38.58 45.51C34.25 45.51 30.74 42 30.74 37.68C30.74 33.36 34.26 29.85 38.58 29.85C42.91 29.85 46.42 33.36 46.42 37.68C46.42 42 42.9 45.51 38.58 45.51ZM38.58 30.3C34.51 30.3 31.19 33.61 31.19 37.68C31.19 41.75 34.5 45.06 38.58 45.06C42.66 45.06 45.97 41.75 45.97 37.68C45.97 33.61 42.65 30.3 38.58 30.3Z" fill="#00ff3c"/>
</svg>
