<svg width="72" height="76" viewBox="0 0 72 76" fill="none" xmlns="http://www.w3.org/2000/svg">
<path d="M71.47 26.23C70.91 21.16 69.36 16.28 66.96 11.94C64.57 7.6 61.34 3.82002 57.59 0.830017C60.81 4.40002 63.27 8.52997 64.81 12.91C66.36 17.28 67 21.89 66.75 26.37C66.49 30.85 65.35 35.2 63.45 39.09C61.55 42.99 58.91 46.42 55.77 49.19C55.58 49.36 55.39 49.56 55.23 49.76C53.58 51.79 53.9 54.78 55.94 56.42C57.98 58.07 60.97 57.75 62.62 55.72L62.67 55.66C66.07 51.46 68.61 46.64 70.1 41.6C71.57 36.56 72.02 31.3 71.47 26.23Z" fill="#00ff3c"/>
<path d="M30.34 22.17C34.67 21.86 38.97 22.43 42.95 23.76C43.19 23.84 43.46 23.91 43.71 23.95C46.3 24.36 48.73 22.59 49.14 20.01C49.55 17.43 47.78 15 45.19 14.59L45.11 14.58C39.76 13.74 34.31 13.95 29.19 15.19C24.06 16.42 19.28 18.66 15.15 21.67C11.03 24.69 7.57 28.47 5 32.71C2.43 36.94 0.759988 41.62 0.0499878 46.36C1.53999 41.8 3.89998 37.61 6.91998 34.09C9.93998 30.56 13.62 27.71 17.64 25.68C21.66 23.66 26.01 22.48 30.34 22.17Z" fill="#00ff3c"/>
<path d="M54.25 73.51C49.68 72.66 45.36 70.91 41.59 68.45C37.83 65.99 34.63 62.82 32.2 59.23C29.76 55.64 28.11 51.64 27.27 47.54C27.22 47.3 27.14 47.03 27.05 46.79C26.11 44.35 23.36 43.13 20.91 44.07C18.46 45.01 17.24 47.75 18.18 50.19L18.21 50.27C20.15 55.31 23.07 59.91 26.7 63.72C30.33 67.53 34.67 70.55 39.35 72.61C44.03 74.67 49.05 75.76 54 75.86C58.96 75.96 63.85 75.06 68.33 73.31C63.63 74.31 58.82 74.37 54.25 73.51Z" fill="#00ff3c"/>
<path d="M54.3 18.78C55.18 21.18 55.56 23.69 55.45 26.13C55.34 28.57 54.74 30.92 53.74 33.04C53.65 33.24 53.57 33.46 53.52 33.68C53.09 35.46 54.19 37.26 55.98 37.69C57.77 38.12 59.57 37.02 60 35.24L60.02 35.15C60.77 32.05 60.9 28.85 60.41 25.79C59.93 22.74 58.84 19.84 57.27 17.31C55.7 14.78 53.65 12.6 51.31 10.93C48.97 9.24999 46.34 8.08997 43.64 7.46997C46.17 8.60997 48.41 10.23 50.22 12.17C52.03 14.12 53.41 16.38 54.3 18.78Z" fill="#00ff3c"/>
<path d="M23.07 35.56C25.24 34.43 27.58 33.78 29.92 33.58C30.13 33.56 30.37 33.52 30.58 33.46C32.34 32.94 33.35 31.09 32.83 29.33C32.31 27.57 30.46 26.56 28.69 27.08L28.6 27.11C25.53 28.01 22.6901 29.5 20.2801 31.45C17.8701 33.39 15.91 35.78 14.49 38.4C13.08 41.02 12.21 43.88 11.93 46.74C11.65 49.6 11.95 52.46 12.76 55.1C12.49 52.35 12.77 49.6 13.55 47.06C14.33 44.52 15.61 42.19 17.24 40.23C18.91 38.28 20.9 36.69 23.07 35.56Z" fill="#00ff3c"/>
<path d="M54.41 61.5C51.89 61.06 49.51 60.14 47.45 58.82C45.39 57.51 43.65 55.81 42.31 53.89C42.19 53.71 42.03 53.53 41.87 53.38C40.54 52.11 38.43 52.17 37.16 53.5C35.89 54.83 35.9401 56.93 37.2801 58.2L37.35 58.26C39.67 60.46 42.3801 62.17 45.2801 63.28C48.1701 64.39 51.23 64.89 54.21 64.81C57.19 64.72 60.11 64.0399 62.73 62.8499C65.35 61.6699 67.68 59.97 69.57 57.95C67.31 59.56 64.79 60.6899 62.19 61.2899C59.59 61.8699 56.93 61.93 54.41 61.5Z" fill="#00ff3c"/>
</svg>
