<svg width="76" height="68" viewBox="0 0 76 68" fill="none" xmlns="http://www.w3.org/2000/svg">
<path d="M74.5597 5.09986C71.7997 0.339864 65.6997 -1.3001 60.9197 1.4499C58.2797 2.9699 56.5998 5.51988 56.0898 8.29988V8.28987C54.3098 18.0899 43.8398 22.1499 39.1398 21.2899C38.8598 21.2399 38.5798 21.2099 38.2798 21.2099C37.9898 21.2099 37.6997 21.2399 37.4197 21.2899C32.7197 22.1399 22.2597 18.0799 20.4697 8.28987V8.29988C19.9597 5.51988 18.2898 2.9699 15.6398 1.4499C10.8698 -1.3001 4.75975 0.329865 1.99975 5.09986C-0.760253 9.86986 0.879741 15.9499 5.64974 18.6999C8.28974 20.2199 11.3398 20.3999 14.0098 19.4399V19.4499C23.4098 16.0899 32.1598 23.1099 33.7698 27.5899C33.9698 28.1399 34.2597 28.6399 34.6197 29.0699C37.7097 32.6999 39.4197 43.7699 31.7997 50.2099H31.8097C29.6497 52.0399 28.2798 54.7599 28.2798 57.7999C28.2798 63.2999 32.7498 67.7599 38.2598 67.7599C43.7698 67.7599 48.2397 63.2999 48.2397 57.7999C48.2397 54.7499 46.8698 52.0299 44.7098 50.2099H44.7197C37.1097 43.7699 38.8198 32.6999 41.8998 29.0699C42.2698 28.6399 42.5597 28.1399 42.7497 27.5899C44.3597 23.1099 53.1098 16.0899 62.5098 19.4499V19.4399C65.1798 20.3899 68.2297 20.2199 70.8697 18.6999C75.6797 15.9499 77.3197 9.85986 74.5597 5.09986Z" fill="#00ff3c"/>
</svg>
