<svg width="108" height="108" viewBox="0 0 108 108" fill="none" xmlns="http://www.w3.org/2000/svg">
<path d="M53.72 107.16C83.085 107.16 106.89 83.4132 106.89 54.12C106.89 24.8268 83.085 1.07999 53.72 1.07999C24.355 1.07999 0.549988 24.8268 0.549988 54.12C0.549988 83.4132 24.355 107.16 53.72 107.16Z" stroke="#00ff3c" stroke-width="0.5" stroke-miterlimit="10"/>
<path d="M16.45 82.3C63.1 85.27 63.24 60.4 91.28 81.93" stroke="#00ff3c" stroke-width="0.5" stroke-miterlimit="10"/>
<path d="M16.59 73.03C72.76 83.23 55.87 41.38 91.17 72.4" stroke="#00ff3c" stroke-width="0.5" stroke-miterlimit="10"/>
<path d="M16.61 63.79C73.86 82.95 46.76 30.9 91.03 63.01" stroke="#00ff3c" stroke-width="0.5" stroke-miterlimit="10"/>
<path d="M16.54 54.54C68.98 81.84 38.48 26.4 90.91 53.71" stroke="#00ff3c" stroke-width="0.5" stroke-miterlimit="10"/>
<path d="M16.41 45.23C60.68 77.34 33.58 25.29 90.83 44.45" stroke="#00ff3c" stroke-width="0.5" stroke-miterlimit="10"/>
<path d="M16.28 35.83C51.57 66.85 34.69 25 90.86 35.2" stroke="#00ff3c" stroke-width="0.5" stroke-miterlimit="10"/>
<path d="M16.17 26.31C44.21 47.84 44.35 22.97 91 25.94" stroke="#00ff3c" stroke-width="0.5" stroke-miterlimit="10"/>
<path d="M81.6 16.65C60.02 44.63 84.95 44.77 81.97 91.31" stroke="#00ff3c" stroke-width="0.5" stroke-miterlimit="10"/>
<path d="M72.05 16.76C40.95 51.97 82.91 35.13 72.68 91.16" stroke="#00ff3c" stroke-width="0.5" stroke-miterlimit="10"/>
<path d="M62.63 16.9C30.45 61.07 82.62 34.03 63.41 91.15" stroke="#00ff3c" stroke-width="0.5" stroke-miterlimit="10"/>
<path d="M53.31 17.02C25.94 69.34 81.51 38.9 54.14 91.22" stroke="#00ff3c" stroke-width="0.5" stroke-miterlimit="10"/>
<path d="M44.03 17.09C24.83 74.21 76.99 47.17 44.81 91.34" stroke="#00ff3c" stroke-width="0.5" stroke-miterlimit="10"/>
<path d="M34.76 17.07C24.53 73.1 66.49 56.26 35.39 91.47" stroke="#00ff3c" stroke-width="0.5" stroke-miterlimit="10"/>
<path d="M25.47 16.93C22.49 63.47 47.42 63.61 25.84 91.59" stroke="#00ff3c" stroke-width="0.5" stroke-miterlimit="10"/>
</svg>
