<svg width="76" height="76" viewBox="0 0 76 76" fill="none" xmlns="http://www.w3.org/2000/svg">
<path d="M37.8695 0.779785C17.1395 0.779785 0.269531 17.6098 0.269531 38.2998C0.269531 58.9898 17.1395 75.8198 37.8695 75.8198C58.5995 75.8198 75.4695 58.9898 75.4695 38.2998C75.4695 17.6098 58.6095 0.779785 37.8695 0.779785ZM37.8695 5.46979C53.7495 5.46979 67.0395 16.7498 70.1095 31.7098C63.7695 25.6898 51.8395 16.5398 37.8695 16.5398C23.9095 16.5398 11.9695 25.6998 5.62952 31.7098C8.69952 16.7498 21.9895 5.46979 37.8695 5.46979ZM36.7795 55.3398C22.2095 54.7498 9.70951 42.5798 5.74951 38.2898C9.69951 33.9998 22.1795 21.8298 36.7795 21.2398C35.3995 24.5398 33.2195 30.9298 33.2195 38.2898C33.2195 45.6498 35.4095 52.0498 36.7795 55.3398ZM38.9595 21.2498C53.5295 21.8398 66.0295 34.0098 69.9895 38.2998C66.0295 42.5898 53.5295 54.7598 38.9595 55.3498C40.3395 52.0498 42.5195 45.6598 42.5195 38.2998C42.5295 30.9398 40.3395 24.5498 38.9595 21.2498ZM37.8695 71.1198C21.9895 71.1198 8.69952 59.8398 5.62952 44.8798C11.9695 50.8998 23.8995 60.0498 37.8695 60.0498C51.8295 60.0498 63.7695 50.8898 70.1095 44.8798C67.0395 59.8398 53.7495 71.1198 37.8695 71.1198Z" fill="black"/>
</svg>
