<svg width="76" height="76" viewBox="0 0 76 76" fill="none" xmlns="http://www.w3.org/2000/svg">
<path d="M73.4798 37.9198C72.0398 37.6798 70.0298 37.3899 67.4098 33.8999C66.5398 32.7599 65.5398 31.6899 64.4298 30.7099C63.3198 29.7299 62.0998 28.8499 60.8098 28.0899C58.2298 34.1999 54.3598 43.0299 46.6598 42.3799C45.8398 42.3099 45.6298 41.2199 46.3498 40.8199C54.2098 36.3899 54.2998 24.1099 48.9298 17.0299C49.2898 15.9199 50.8798 15.5299 52.4298 15.3299C54.0298 15.1499 55.5898 15.1699 57.0198 15.3999C60.9098 15.8299 62.2798 14.3798 63.2798 13.3598C64.1998 12.2598 64.7598 11.5998 64.7598 11.5998C64.7598 11.5998 64.0998 12.1499 62.9998 13.0699C61.8098 13.9099 60.1798 15.1299 55.8498 14.5099C54.5298 14.3699 53.1398 14.3598 51.7398 14.4798C50.3298 14.5998 48.8998 14.8598 47.4898 15.2298C50.0998 21.0398 54.0298 31.0498 47.4198 35.6198C46.7498 36.0798 45.8898 35.4498 46.1398 34.6698C49.4898 24.4498 38.3998 17.6098 30.1798 14.9198C30.7898 13.7198 31.5098 12.5998 32.3598 11.5598C33.2198 10.5298 34.2198 9.57984 35.3898 8.73984C38.4498 6.29984 38.3798 4.30985 38.3698 2.87985C38.2398 1.44985 38.1698 0.589844 38.1698 0.589844C38.1698 0.589844 38.0898 1.44985 37.9698 2.87985C37.7298 4.31985 37.4298 6.31985 33.9398 8.93985C32.7398 9.80985 31.6398 10.8098 30.6398 11.9298C29.6398 13.0398 28.7498 14.2598 27.9798 15.5498C33.6498 18.5898 42.5098 21.8498 42.6798 28.8498C42.6998 29.7198 41.5398 30.0598 41.1298 29.2998C39.3098 26.0098 35.4498 23.9598 31.9798 23.4698C26.2798 22.8398 21.2098 24.0998 16.8698 27.6198C15.7898 27.2198 15.3898 25.6399 15.2098 24.0699C15.0398 22.4499 15.0998 20.8398 15.3998 19.2998C15.8398 15.4198 14.3698 14.0498 13.3498 13.0498C12.2498 12.1298 11.5898 11.5799 11.5898 11.5799C11.5898 11.5799 12.1398 12.2399 13.0698 13.3399C13.9198 14.5299 15.1298 16.1498 14.5098 20.4698C14.3198 21.7898 14.2698 23.1898 14.3598 24.6098C14.4498 26.0298 14.6698 27.4798 15.0198 28.9198C20.5998 25.7198 30.9098 23.3498 35.6898 28.9098C36.2098 29.5198 35.6198 30.4498 34.8498 30.2498C26.1198 27.9098 17.8798 35.5499 15.7798 43.9499C15.1298 45.8199 13.6698 44.9798 12.3498 44.0498C10.9998 43.0698 9.77982 41.9899 8.74982 40.8899C6.30982 37.8399 4.30982 37.8998 2.87982 37.9198C1.44982 38.0498 0.589844 38.1198 0.589844 38.1198C0.589844 38.1198 1.44982 38.1999 2.87982 38.3199C4.31982 38.5599 6.32983 38.8499 8.94983 42.3399C9.84983 43.5399 10.8798 44.6199 11.9998 45.5899C13.1198 46.5599 14.3398 47.4099 15.6198 48.1299C17.2798 41.7199 22.2398 32.1099 29.4398 34.0699C30.1498 34.2599 30.2598 35.2499 29.6098 35.5899C21.8698 39.7199 22.1798 51.7599 26.9298 58.5899C27.3098 60.0199 25.7498 60.4099 24.1698 60.6499C22.5498 60.8699 20.9098 60.9299 19.3298 60.8399C15.4398 60.4099 14.0698 61.8599 13.0698 62.8799C12.1498 63.9799 11.5898 64.6399 11.5898 64.6399C11.5898 64.6399 12.2498 64.0898 13.3498 63.1698C14.5398 62.3298 16.1698 61.1098 20.4998 61.7298C21.9298 61.8498 23.4098 61.8298 24.8798 61.6898C26.3598 61.5498 27.8298 61.2799 29.2798 60.8899C25.4898 55.7299 23.5598 46.1999 28.4898 41.4599C29.0898 40.8899 30.0798 41.4498 29.8798 42.2498C27.7398 50.9898 35.9298 59.5899 44.7598 60.5699C45.9498 61.3499 45.1198 62.7398 44.1698 63.9998C43.1798 65.2898 42.0898 66.4698 40.9398 67.4898C37.8798 69.9298 37.9498 71.9198 37.9598 73.3498C38.0898 74.7798 38.1598 75.6399 38.1598 75.6399C38.1598 75.6399 38.2398 74.7798 38.3598 73.3498C38.5998 71.9098 38.8998 69.9098 42.3898 67.2898C43.5398 66.3998 44.5998 65.3799 45.5498 64.2599C46.4998 63.1399 47.3398 61.9299 48.0598 60.6499C42.5298 58.4099 31.7798 54.4399 33.7798 46.8299C33.9698 46.1099 34.9298 45.9798 35.2998 46.6198C39.9098 54.4998 52.0298 54.7198 58.6898 49.3498C60.1498 48.9898 60.5598 50.5398 60.7898 52.1098C61.0098 53.7298 61.0598 55.3498 60.9298 56.9198C60.4898 60.7998 61.9598 62.1698 62.9798 63.1698C64.0798 64.0898 64.7398 64.6399 64.7398 64.6399C64.7398 64.6399 64.1898 63.9799 63.2598 62.8799C62.4098 61.6899 61.1998 60.0698 61.8198 55.7498C62.0498 54.3198 62.1098 52.8698 62.0398 51.4098C61.9598 49.9598 61.7398 48.5099 61.3798 47.0899C55.4098 49.7199 45.5698 53.5799 40.8998 47.3799C40.3998 46.7199 41.0998 45.8198 41.8798 46.1198C51.1098 49.6298 59.3198 39.8098 60.7898 31.1798C61.7698 30.4698 63.1498 31.2698 64.3798 32.1798C65.6298 33.1398 66.7298 34.2099 67.5998 35.3399C70.0398 38.3899 72.0398 38.3298 73.4698 38.3098C74.8998 38.1798 75.7598 38.1098 75.7598 38.1098C75.7598 38.1098 74.9098 38.0398 73.4798 37.9198ZM38.1698 44.0699C34.8698 44.0699 32.1998 41.3998 32.1998 38.1098C32.1998 34.8198 34.8698 32.1499 38.1698 32.1499C41.4698 32.1499 44.1398 34.8198 44.1398 38.1098C44.1398 41.4098 41.4598 44.0699 38.1698 44.0699Z" fill="black"/>
</svg>
