<svg width="76" height="68" viewBox="0 0 76 68" fill="none" xmlns="http://www.w3.org/2000/svg">
<path d="M31.3098 50.6099C31.2898 50.7799 31.2798 50.9599 31.2498 51.1299C31.0398 52.7999 30.5398 54.4099 29.7798 55.9099C29.7398 55.9899 29.6998 56.0699 29.6498 56.1499C29.6398 56.1399 29.6197 56.1399 29.6097 56.1299C29.5797 56.1199 29.5597 56.1099 29.5397 56.0999C29.4697 56.0699 29.3898 56.0399 29.3198 56.0099C29.2898 55.9999 29.2597 55.9899 29.2397 55.9699C29.2097 55.9599 29.1797 55.9399 29.1597 55.9299C29.1197 55.9099 29.0797 55.8899 29.0397 55.8799C29.0097 55.8699 28.9698 55.8499 28.9398 55.8299C28.8998 55.8099 28.8498 55.7899 28.8098 55.7699C28.6698 55.6999 28.5298 55.6299 28.3898 55.5599C28.3598 55.5499 28.3298 55.5299 28.3098 55.5199C28.2698 55.4999 28.2298 55.4799 28.1898 55.4599C28.1498 55.4399 28.1098 55.4199 28.0598 55.3899C28.0298 55.3699 27.9997 55.3599 27.9697 55.3399C27.8597 55.2799 27.7498 55.2199 27.6398 55.1599C27.5898 55.1299 27.5397 55.0999 27.4897 55.0799C27.4297 55.0499 27.3597 55.0099 27.2997 54.9699C27.2197 54.9299 27.1498 54.8799 27.0698 54.8399C27.0298 54.8199 26.9898 54.7899 26.9498 54.7699C26.8698 54.7199 26.7997 54.6799 26.7197 54.6299C26.6797 54.6099 26.6497 54.5799 26.6097 54.5599C26.5397 54.5199 26.4797 54.4799 26.4197 54.4299C26.3697 54.3999 26.3198 54.3599 26.2698 54.3299C26.2198 54.2999 26.1698 54.2699 26.1198 54.2299C26.1098 54.2199 26.0998 54.2199 26.0898 54.2099C26.0798 54.1999 26.0597 54.1899 26.0497 54.1799C26.0297 54.1699 26.0097 54.1499 25.9797 54.1299C25.8997 54.0699 25.8197 54.0199 25.7397 53.9599C25.7297 53.9599 25.7297 53.9499 25.7197 53.9499C25.6197 53.8799 25.5297 53.8199 25.4297 53.7399C25.4197 53.7399 25.4098 53.7299 25.3998 53.7199C25.3098 53.6499 25.2198 53.5899 25.1298 53.5199C25.0298 53.4399 24.9298 53.3699 24.8398 53.2899C24.7498 53.2099 24.6497 53.1399 24.5497 53.0599C24.5297 53.0399 24.4997 53.0199 24.4797 52.9999C24.4497 52.9699 24.4098 52.9499 24.3798 52.9199C24.3498 52.8999 24.3297 52.8799 24.2997 52.8599C24.2897 52.8499 24.2698 52.8399 24.2598 52.8299C24.2498 52.8199 24.2397 52.8099 24.2297 52.8099C24.1897 52.7699 24.1397 52.7399 24.0997 52.6999C24.0597 52.6599 24.0097 52.6199 23.9697 52.5799C23.9097 52.5199 23.8498 52.4699 23.7798 52.4099C23.7398 52.3799 23.7097 52.3499 23.6797 52.3099L23.5898 52.2299C23.5598 52.1999 23.5197 52.1699 23.4897 52.1399C23.4797 52.1399 23.4797 52.1299 23.4697 52.1199C23.4597 52.1099 23.4397 52.0899 23.4297 52.0799C23.4197 52.0699 23.3998 52.0499 23.3898 52.0399C23.3398 51.9999 23.2898 51.9499 23.2498 51.8999C23.2398 51.8899 23.2198 51.8699 23.2098 51.8599C23.1698 51.8299 23.1397 51.7899 23.0997 51.7499C23.0597 51.7099 23.0197 51.6699 22.9797 51.6299C22.9297 51.5799 22.8798 51.5299 22.8298 51.4799C22.7798 51.4299 22.7297 51.3799 22.6797 51.3299C22.6497 51.2999 22.6098 51.2599 22.5798 51.2299C22.5298 51.1799 22.4797 51.1299 22.4297 51.0699C22.3797 51.0199 22.3298 50.9599 22.2798 50.9099C22.2498 50.8799 22.2298 50.8499 22.1998 50.8199C22.1898 50.7999 22.1697 50.7899 22.1597 50.7699C22.1297 50.7399 22.1098 50.7099 22.0898 50.6899C22.0598 50.6499 22.0197 50.6099 21.9897 50.5699C21.9597 50.5299 21.9298 50.4999 21.8998 50.4599C21.8198 50.3699 21.7397 50.2699 21.6597 50.1699C21.4197 49.8799 21.1897 49.5799 20.9697 49.2799C20.8997 49.1899 20.8398 49.0899 20.7698 48.9999L20.7598 48.9899C20.7298 48.9499 20.6997 48.8999 20.6697 48.8599C20.6397 48.8299 20.6197 48.7899 20.5997 48.7499C20.5697 48.6999 20.5298 48.6499 20.4998 48.5999C20.4898 48.5899 20.4897 48.5799 20.4797 48.5699C20.4697 48.5599 20.4598 48.5499 20.4598 48.5299C20.4098 48.4599 20.3698 48.3899 20.3198 48.3299C20.3098 48.3199 20.3098 48.3199 20.3098 48.3099C20.3098 48.2999 20.2997 48.2999 20.2997 48.2899C20.2897 48.2799 20.2898 48.2699 20.2798 48.2599C20.2698 48.2399 20.2597 48.2199 20.2397 48.1999C20.2197 48.1699 20.2098 48.1499 20.1898 48.1199C20.1698 48.0899 20.1498 48.0599 20.1298 48.0299C20.1198 48.0099 20.1097 47.9899 20.0997 47.9799C20.0697 47.9299 20.0398 47.8899 20.0098 47.8399C19.9698 47.7699 19.9198 47.6999 19.8798 47.6199C19.8598 47.5899 19.8498 47.5699 19.8398 47.5399C19.8298 47.5299 19.8198 47.5099 19.8098 47.4999C19.7998 47.4699 19.7798 47.4499 19.7698 47.4199C19.7498 47.3799 19.7298 47.3499 19.7098 47.3099C19.6898 47.2799 19.6697 47.2499 19.6597 47.2199C19.6497 47.2099 19.6498 47.1999 19.6398 47.1899C19.6298 47.1799 19.6298 47.1599 19.6198 47.1499C19.5898 47.0999 19.5598 47.0399 19.5298 46.9899C19.5098 46.9499 19.4897 46.9199 19.4697 46.8799C19.4497 46.8499 19.4297 46.8099 19.4097 46.7799C19.3597 46.6799 19.2998 46.5799 19.2498 46.4799C19.1898 46.3599 19.1298 46.2399 19.0698 46.1099C19.0198 45.9999 18.9597 45.8799 18.9097 45.7699C18.8797 45.7099 18.8498 45.6399 18.8198 45.5799C18.8098 45.5599 18.7997 45.5399 18.7897 45.5099C18.7697 45.4699 18.7497 45.4299 18.7397 45.3899C18.7297 45.3699 18.7197 45.3499 18.7197 45.3399C18.6897 45.2799 18.6698 45.2199 18.6498 45.1599C18.6398 45.1299 18.6197 45.0899 18.6097 45.0599C18.5797 44.9899 18.5498 44.9199 18.5198 44.8499V44.8399C18.4998 44.7999 18.4897 44.7599 18.4697 44.7299C18.4697 44.7299 18.4698 44.7199 18.4598 44.7199C18.4498 44.6899 18.4397 44.6599 18.4297 44.6299C18.4297 44.6199 18.4197 44.6099 18.4197 44.5999C18.3997 44.5499 18.3798 44.5099 18.3698 44.4599C18.3398 44.3999 18.3197 44.3299 18.2997 44.2699C18.2897 44.2299 18.2698 44.1999 18.2598 44.1599C18.2298 44.0799 18.1997 43.9899 18.1697 43.9099C18.1497 43.8499 18.1297 43.7999 18.1097 43.7399C18.0897 43.6799 18.0697 43.6199 18.0497 43.5599C18.0297 43.5099 18.0198 43.4599 17.9998 43.4099C17.9998 43.3999 17.9897 43.3899 17.9897 43.3799C17.9497 43.2699 17.9198 43.1599 17.8898 43.0499C17.8598 42.9699 17.8398 42.8799 17.8198 42.7999C17.8098 42.7499 17.7898 42.6999 17.7798 42.6599C17.7798 42.6499 17.7698 42.6299 17.7698 42.6199C17.7598 42.5999 17.7598 42.5899 17.7598 42.5699C17.7398 42.4899 17.7198 42.4199 17.6998 42.3399C17.6898 42.3099 17.6797 42.2799 17.6797 42.2599C17.6697 42.2099 17.6598 42.1699 17.6498 42.1199C17.6298 42.0299 17.6098 41.9399 17.5898 41.8499C17.5698 41.7499 17.5398 41.6399 17.5198 41.5399C17.5098 41.5099 17.5098 41.4799 17.4998 41.4399C17.4898 41.4099 17.4897 41.3799 17.4797 41.3499C17.4597 41.2799 17.4498 41.2099 17.4398 41.1399C17.4298 41.1099 17.4297 41.0899 17.4197 41.0599C17.3997 40.9499 17.3797 40.8299 17.3597 40.7199C17.3597 40.7099 17.3597 40.6999 17.3597 40.6899C17.3597 40.6799 17.3597 40.6799 17.3597 40.6699C17.3497 40.6199 17.3398 40.5699 17.3398 40.5199C17.3398 40.4999 17.3298 40.4899 17.3298 40.4699C17.3198 40.4299 17.3198 40.3899 17.3098 40.3499C17.3098 40.3199 17.2997 40.2899 17.2997 40.2499C17.2997 40.2399 17.2997 40.2399 17.2997 40.2299C17.2997 40.2099 17.2897 40.1999 17.2897 40.1799C17.2897 40.1699 17.2897 40.1599 17.2897 40.1599C17.2897 40.1499 17.2798 40.1299 17.2798 40.1199C17.2798 40.0999 17.2698 40.0799 17.2698 40.0499C17.2598 40.0099 17.2598 39.9599 17.2498 39.9199C17.2398 39.8799 17.2397 39.8399 17.2297 39.7999C17.2197 39.7599 17.2197 39.7299 17.2197 39.6899C17.2197 39.6799 17.2197 39.6799 17.2197 39.6699C17.2097 39.5999 17.1998 39.5199 17.1898 39.4399C17.1898 39.4299 17.1898 39.4099 17.1898 39.3999C17.1898 39.3699 17.1797 39.3299 17.1797 39.2999C17.1797 39.2899 17.1797 39.2699 17.1797 39.2499C17.1797 39.2099 17.1697 39.1799 17.1697 39.1399C17.1697 39.0999 17.1597 39.0699 17.1597 39.0299C17.1597 38.9999 17.1498 38.9699 17.1498 38.9399C17.1498 38.9099 17.1398 38.8799 17.1398 38.8499V38.8399C17.1398 38.7899 17.1298 38.7399 17.1298 38.6899C17.1298 38.6799 17.1298 38.6699 17.1298 38.6599C17.1298 38.6099 17.1198 38.5599 17.1198 38.5099C17.1198 38.4699 17.1197 38.4299 17.1097 38.3799C17.0997 38.2599 17.0998 38.1499 17.0898 38.0299C17.0898 38.0199 17.0898 38.0099 17.0898 37.9899C17.0798 37.8799 17.0798 37.7599 17.0798 37.6399C17.0798 37.6299 17.0798 37.6099 17.0798 37.5999C17.0798 37.4499 17.0798 37.3099 17.0798 37.1599C17.0798 36.9499 17.0798 36.7499 17.0898 36.5399C17.0898 36.4899 17.0897 36.4399 17.0997 36.3899C17.0997 36.3099 17.0997 36.2399 17.1097 36.1599C17.1197 36.0499 17.1198 35.9399 17.1298 35.8299C17.1398 35.7199 17.1398 35.6099 17.1498 35.4999C17.1798 35.1699 17.2098 34.8499 17.2498 34.5299C17.3398 34.5299 17.4298 34.5399 17.5198 34.5399C19.1998 34.6399 20.8497 35.0099 22.4097 35.6599C22.5697 35.7299 22.7298 35.7999 22.8898 35.8699C22.8698 36.0799 22.8597 36.2899 22.8497 36.4999C22.8497 36.5799 22.8398 36.6699 22.8398 36.7499C22.8398 36.7799 22.8398 36.7999 22.8398 36.8299C22.8398 36.9299 22.8398 37.0399 22.8398 37.1399C22.8398 37.2499 22.8398 37.3499 22.8398 37.4499C22.8398 37.5499 22.8397 37.6499 22.8497 37.7399C22.8497 37.7499 22.8497 37.7599 22.8497 37.7699C22.8497 37.7799 22.8497 37.7999 22.8497 37.8099C22.8497 37.8299 22.8497 37.8499 22.8497 37.8699C22.8497 37.9399 22.8597 37.9999 22.8597 38.0599C22.8597 38.0699 22.8597 38.0899 22.8597 38.0999C22.8597 38.1599 22.8698 38.2199 22.8698 38.2799C22.8698 38.2999 22.8698 38.3199 22.8698 38.3299C22.8698 38.3399 22.8698 38.3599 22.8698 38.3699C22.8698 38.3899 22.8698 38.4099 22.8798 38.4299C22.8898 38.4999 22.8898 38.5699 22.8998 38.6499C22.8998 38.6599 22.8998 38.6699 22.8998 38.6899C22.9098 38.7599 22.9097 38.8299 22.9197 38.8999C22.9197 38.9199 22.9297 38.9399 22.9297 38.9699C22.9297 38.9899 22.9298 38.9999 22.9398 39.0199C22.9398 39.0299 22.9398 39.0399 22.9398 39.0399C22.9398 39.0499 22.9398 39.0699 22.9498 39.0799C22.9498 39.0799 22.9498 39.0799 22.9498 39.0899C22.9598 39.1599 22.9697 39.2399 22.9797 39.3099C22.9897 39.3699 22.9998 39.4399 23.0098 39.4999C23.0098 39.5099 23.0098 39.5299 23.0198 39.5399C23.0198 39.5499 23.0198 39.5599 23.0198 39.5699C23.0198 39.5799 23.0198 39.5799 23.0198 39.5899C23.0198 39.5999 23.0198 39.6099 23.0298 39.6199C23.0498 39.7299 23.0698 39.8299 23.0898 39.9399C23.0998 39.9899 23.1098 40.0499 23.1198 40.0999C23.1198 40.1099 23.1298 40.1299 23.1298 40.1499C23.1298 40.1599 23.1298 40.1799 23.1398 40.1899C23.1598 40.2899 23.1798 40.3899 23.2098 40.4799C23.2098 40.4999 23.2197 40.5099 23.2197 40.5299C23.2197 40.5399 23.2297 40.5599 23.2297 40.5699C23.2497 40.6399 23.2598 40.7099 23.2798 40.7799C23.2898 40.8199 23.2998 40.8499 23.3098 40.8899C23.3198 40.9199 23.3198 40.9499 23.3298 40.9799C23.3498 41.0599 23.3698 41.1499 23.3998 41.2299C23.4198 41.2799 23.4298 41.3399 23.4498 41.3899C23.4798 41.4999 23.5197 41.5999 23.5497 41.7099C23.5697 41.7799 23.5998 41.8599 23.6198 41.9299C23.6498 42.0199 23.6897 42.1199 23.7197 42.2099C23.7297 42.2499 23.7498 42.2899 23.7598 42.3299C23.7698 42.3699 23.7897 42.4099 23.7997 42.4499C23.7997 42.4599 23.8098 42.4699 23.8098 42.4799C23.8198 42.5199 23.8397 42.5599 23.8597 42.5999C23.8697 42.6399 23.8898 42.6699 23.8998 42.7099C23.9098 42.7299 23.9197 42.7499 23.9297 42.7699C23.9397 42.7899 23.9498 42.8199 23.9598 42.8399C23.9698 42.8699 23.9797 42.8899 23.9897 42.9199C24.0097 42.9699 24.0398 43.0299 24.0598 43.0799C24.0898 43.1399 24.1098 43.1999 24.1398 43.2599C24.1698 43.3199 24.1897 43.3699 24.2197 43.4299C24.2397 43.4699 24.2598 43.5099 24.2798 43.5599L24.2997 43.5999C24.3397 43.6799 24.3797 43.7699 24.4297 43.8499C24.4297 43.8599 24.4398 43.8599 24.4398 43.8699C24.4498 43.8999 24.4697 43.9199 24.4797 43.9499C24.4897 43.9699 24.4998 43.9899 24.5098 43.9999C24.5198 44.0199 24.5297 44.0399 24.5397 44.0499C24.5497 44.0699 24.5598 44.0799 24.5698 44.0999C24.6098 44.1699 24.6397 44.2399 24.6797 44.3099C24.6997 44.3499 24.7198 44.3899 24.7498 44.4299C24.7598 44.4399 24.7598 44.4599 24.7698 44.4699C24.7798 44.4899 24.7897 44.5099 24.7997 44.5199C24.8197 44.5499 24.8397 44.5799 24.8597 44.6099C24.8997 44.6799 24.9397 44.7499 24.9897 44.8199C25.0097 44.8499 25.0197 44.8699 25.0397 44.8999C25.0797 44.9699 25.1297 45.0399 25.1697 45.1099C25.2097 45.1699 25.2398 45.2299 25.2798 45.2799C25.3498 45.3799 25.4197 45.4899 25.4897 45.5899C25.4997 45.6099 25.5098 45.6199 25.5298 45.6399C25.5598 45.6799 25.5797 45.7199 25.6097 45.7599C25.6397 45.8099 25.6797 45.8599 25.7197 45.9099C25.7397 45.9399 25.7598 45.9699 25.7798 45.9899C25.7898 45.9999 25.7897 46.0099 25.7997 46.0199C25.8097 46.0399 25.8298 46.0599 25.8398 46.0799C25.8498 46.0899 25.8598 46.0999 25.8698 46.1099C25.9198 46.1799 25.9698 46.2399 26.0298 46.3099C26.0698 46.3699 26.1197 46.4199 26.1697 46.4799C26.1997 46.5199 26.2298 46.5499 26.2598 46.5899C26.2998 46.6399 26.3398 46.6899 26.3798 46.7399C26.3898 46.7499 26.4097 46.7699 26.4197 46.7799C26.4797 46.8499 26.5397 46.9199 26.5997 46.9799C26.6497 47.0299 26.6897 47.0799 26.7397 47.1299C26.7897 47.1799 26.8398 47.2399 26.8898 47.2899C26.9298 47.3299 26.9598 47.3699 26.9998 47.4099L27.0298 47.4399C27.0598 47.4699 27.0898 47.4999 27.1198 47.5299C27.1998 47.6099 27.2798 47.6999 27.3698 47.7799C27.4198 47.8299 27.4698 47.8699 27.5098 47.9199C27.5298 47.9399 27.5498 47.9499 27.5598 47.9699C27.6198 48.0299 27.6797 48.0799 27.7297 48.1299C27.7897 48.1799 27.8497 48.2399 27.9097 48.2899C27.9097 48.2999 27.9197 48.2999 27.9197 48.2999C27.9297 48.3099 27.9398 48.3199 27.9498 48.3199C27.9798 48.3499 28.0097 48.3699 28.0397 48.3999C28.0697 48.4199 28.0898 48.4399 28.1198 48.4699C28.2198 48.5499 28.3197 48.6399 28.4197 48.7199C28.4497 48.7499 28.4898 48.7799 28.5198 48.7999C28.5898 48.8499 28.6597 48.9099 28.7197 48.9599C28.7397 48.9799 28.7598 48.9899 28.7798 49.0099C28.8098 49.0399 28.8498 49.0599 28.8798 49.0799C28.8898 49.0899 28.8997 49.0999 28.9097 49.0999L28.9197 49.1099C28.9197 49.1099 28.9197 49.1099 28.9297 49.1099C28.9897 49.1499 29.0397 49.1899 29.0997 49.2299C29.1097 49.2399 29.1198 49.2499 29.1298 49.2499C29.1798 49.2899 29.2397 49.3299 29.2897 49.3599C29.3097 49.3799 29.3397 49.3899 29.3597 49.4099C29.4297 49.4499 29.4898 49.4999 29.5598 49.5399C29.6198 49.5799 29.6898 49.6199 29.7498 49.6599C29.7598 49.6699 29.7698 49.6699 29.7798 49.6799C29.8498 49.7299 29.9198 49.7699 29.9998 49.8099C30.1498 49.8999 30.2998 49.9899 30.4498 50.0699C30.5198 50.1099 30.5997 50.1499 30.6697 50.1899C30.6697 50.1899 30.6697 50.1899 30.6797 50.1899C30.7297 50.2199 30.7898 50.2499 30.8398 50.2799C30.8598 50.2899 30.8797 50.3099 30.9097 50.3199C30.9897 50.3599 31.0698 50.3999 31.1398 50.4399C31.1798 50.4599 31.2098 50.4799 31.2498 50.4999C31.2698 50.5099 31.2998 50.5199 31.3198 50.5299C31.2798 50.5899 31.2898 50.5999 31.3098 50.6099ZM58.2698 36.5399C58.2698 36.4899 58.2698 36.4399 58.2598 36.3899C58.2598 36.3099 58.2598 36.2399 58.2498 36.1599C58.2398 36.0499 58.2397 35.9399 58.2297 35.8299C58.2197 35.7199 58.2198 35.6099 58.2098 35.4999C58.1898 35.2799 58.1698 35.0699 58.1498 34.8499C58.1398 34.7399 58.1197 34.6399 58.1097 34.5299C58.0197 34.5299 57.9298 34.5399 57.8398 34.5399C56.1598 34.6399 54.5098 35.0099 52.9498 35.6599C52.7898 35.7299 52.6297 35.7999 52.4697 35.8699C52.4897 36.0799 52.4998 36.2899 52.5098 36.4999C52.5098 36.5399 52.5098 36.5799 52.5098 36.6199C52.5098 36.6599 52.5098 36.6999 52.5098 36.7399C52.5098 36.7699 52.5098 36.7899 52.5098 36.8099C52.5098 36.9099 52.5098 37.0199 52.5098 37.1199C52.5098 37.2299 52.5098 37.3299 52.5098 37.4299C52.5098 37.5099 52.5098 37.5899 52.4998 37.6699V37.6799C52.4998 37.6899 52.4998 37.6999 52.4998 37.7099V37.7199C52.4998 37.7299 52.4998 37.7399 52.4998 37.7499C52.4998 37.7699 52.4998 37.7899 52.4998 37.7999C52.4998 37.8099 52.4998 37.8199 52.4998 37.8299C52.4998 37.8399 52.4998 37.8499 52.4998 37.8599C52.4998 37.9299 52.4897 37.9899 52.4897 38.0499C52.4897 38.0799 52.4897 38.0999 52.4897 38.1299C52.4897 38.1799 52.4797 38.2199 52.4797 38.2699C52.4797 38.2799 52.4797 38.2899 52.4797 38.3099C52.4797 38.3199 52.4797 38.3199 52.4797 38.3299C52.4797 38.3399 52.4797 38.3599 52.4797 38.3699C52.4797 38.3899 52.4797 38.4099 52.4697 38.4299C52.4597 38.4999 52.4598 38.5699 52.4498 38.6499C52.4498 38.6699 52.4498 38.6899 52.4398 38.7099C52.4398 38.7399 52.4297 38.7599 52.4297 38.7899C52.4297 38.7999 52.4297 38.7999 52.4297 38.8099C52.4297 38.8399 52.4197 38.8699 52.4197 38.8899C52.4197 38.8999 52.4197 38.9199 52.4097 38.9299C52.4097 38.9399 52.4097 38.9399 52.4097 38.9499C52.4097 38.9699 52.4098 38.9899 52.3998 38.9999C52.3998 39.0399 52.3898 39.0699 52.3898 39.1099C52.3798 39.1499 52.3798 39.1899 52.3698 39.2399C52.3598 39.3099 52.3498 39.3799 52.3398 39.4599C52.3298 39.4999 52.3298 39.5399 52.3198 39.5799C52.3198 39.5899 52.3198 39.6099 52.3098 39.6199C52.2998 39.6799 52.2898 39.7299 52.2798 39.7799C52.2798 39.7899 52.2798 39.7999 52.2798 39.7999C52.2798 39.8099 52.2798 39.8099 52.2798 39.8199C52.2798 39.8299 52.2798 39.8499 52.2698 39.8599C52.2698 39.8699 52.2698 39.8699 52.2698 39.8799C52.2698 39.8999 52.2598 39.9099 52.2598 39.9299C52.2498 39.9699 52.2397 40.0199 52.2297 40.0599C52.2297 40.0699 52.2297 40.0799 52.2197 40.0899C52.2197 40.0999 52.2098 40.1199 52.2098 40.1399C52.2098 40.1499 52.2098 40.1699 52.1998 40.1799C52.1998 40.1899 52.1998 40.1899 52.1998 40.1999C52.1798 40.3099 52.1498 40.4099 52.1298 40.5099C52.1098 40.5999 52.0898 40.6799 52.0698 40.7699C52.0598 40.7899 52.0597 40.8199 52.0497 40.8399C52.0297 40.9099 52.0198 40.9699 51.9998 41.0399C51.9998 41.0499 51.9897 41.0699 51.9897 41.0799C51.9797 41.1299 51.9598 41.1799 51.9498 41.2199C51.9398 41.2699 51.9198 41.3299 51.8998 41.3799C51.8898 41.4099 51.8798 41.4499 51.8698 41.4799C51.8498 41.5299 51.8398 41.5799 51.8198 41.6299C51.8098 41.6499 51.8097 41.6699 51.7997 41.6799C51.7897 41.7199 51.7798 41.7499 51.7598 41.7899C51.7298 41.8699 51.7097 41.9499 51.6797 42.0299C51.6797 42.0399 51.6797 42.0399 51.6697 42.0499C51.6597 42.0799 51.6498 42.1099 51.6398 42.1399C51.6398 42.1499 51.6298 42.1599 51.6298 42.1799C51.6298 42.1899 51.6198 42.1899 51.6198 42.1999C51.6098 42.2199 51.6097 42.2399 51.5997 42.2599C51.5697 42.3599 51.5297 42.4499 51.4897 42.5399C51.4897 42.5499 51.4797 42.5699 51.4697 42.5799C51.4597 42.5899 51.4598 42.6099 51.4498 42.6199C51.4498 42.6299 51.4397 42.6399 51.4297 42.6499C51.4197 42.6699 51.4197 42.6799 51.4097 42.6999C51.3997 42.7299 51.3798 42.7599 51.3698 42.7999C51.3298 42.8899 51.2998 42.9799 51.2598 43.0599C51.2498 43.0699 51.2497 43.0899 51.2397 43.1099C51.2297 43.1399 51.2098 43.1699 51.1998 43.1999C51.1898 43.2299 51.1797 43.2499 51.1697 43.2699C51.1597 43.2899 51.1498 43.3199 51.1398 43.3399C51.1298 43.3599 51.1298 43.3699 51.1198 43.3899C51.0998 43.4299 51.0798 43.4799 51.0598 43.5199C51.0498 43.5499 51.0298 43.5799 51.0198 43.5999C50.9898 43.6699 50.9497 43.7399 50.9197 43.8099C50.9097 43.8399 50.8898 43.8699 50.8798 43.8899C50.8698 43.9199 50.8498 43.9499 50.8398 43.9699C50.8198 43.9999 50.8097 44.0299 50.7897 44.0599C50.7897 44.0699 50.7798 44.0799 50.7798 44.0799C50.7798 44.0899 50.7698 44.0899 50.7698 44.0999C50.7398 44.1499 50.7097 44.2099 50.6797 44.2599C50.6597 44.2999 50.6398 44.3299 50.6198 44.3699C50.6098 44.3999 50.5898 44.4199 50.5798 44.4399C50.5698 44.4599 50.5597 44.4799 50.5497 44.4899C50.5297 44.5199 50.5097 44.5599 50.4897 44.5899C50.4497 44.6499 50.4198 44.7099 50.3798 44.7699C50.3798 44.7799 50.3698 44.7799 50.3698 44.7899C50.3498 44.8299 50.3297 44.8599 50.2997 44.8999C50.2897 44.9099 50.2898 44.9199 50.2798 44.9299C50.2698 44.9399 50.2698 44.9499 50.2598 44.9599C50.2598 44.9699 50.2498 44.9699 50.2498 44.9699C50.2398 44.9799 50.2397 44.9899 50.2297 45.0099C50.2097 45.0399 50.1897 45.0699 50.1797 45.0899C50.1497 45.1399 50.1098 45.1899 50.0798 45.2399C50.0498 45.2799 50.0298 45.3199 49.9998 45.3599C49.8998 45.4999 49.7998 45.6399 49.6998 45.7799C49.6798 45.8099 49.6598 45.8399 49.6298 45.8699C49.5898 45.9299 49.5398 45.9899 49.4998 46.0499C49.4898 46.0599 49.4897 46.0699 49.4797 46.0699C49.4697 46.0899 49.4498 46.1099 49.4398 46.1199C49.4098 46.1599 49.3797 46.1899 49.3497 46.2299C49.2897 46.3099 49.2197 46.3899 49.1597 46.4699C49.1297 46.5099 49.0898 46.5499 49.0598 46.5899C48.9998 46.6599 48.9498 46.7199 48.8898 46.7899C48.7798 46.9199 48.6597 47.0499 48.5397 47.1799C48.4197 47.3099 48.2997 47.4299 48.1797 47.5499C48.1197 47.6099 48.0598 47.6699 47.9998 47.7299C47.9398 47.7899 47.8798 47.8499 47.8098 47.9099C47.6798 48.0299 47.5597 48.1399 47.4297 48.2599C47.3597 48.3199 47.2798 48.3899 47.2098 48.4499C47.1998 48.4599 47.1998 48.4599 47.1898 48.4599C47.1398 48.4999 47.0897 48.5399 47.0397 48.5899C46.9097 48.6999 46.7698 48.8099 46.6298 48.9099C46.5698 48.9599 46.5098 48.9999 46.4498 49.0499C46.4198 49.0699 46.3897 49.0899 46.3597 49.1099C46.3097 49.1499 46.2598 49.1799 46.2098 49.2199C46.1498 49.2699 46.0798 49.3099 46.0198 49.3499C45.9998 49.3699 45.9698 49.3799 45.9498 49.3999C45.9098 49.4299 45.8798 49.4499 45.8398 49.4699C45.8198 49.4799 45.7998 49.4999 45.7798 49.5099C45.7398 49.5299 45.7097 49.5599 45.6697 49.5799C45.6297 49.6099 45.5998 49.6299 45.5598 49.6499C45.4898 49.6999 45.4098 49.7399 45.3398 49.7899C45.3298 49.7999 45.3097 49.8099 45.2997 49.8199C45.2397 49.8599 45.1798 49.8899 45.1298 49.9199C45.1198 49.9299 45.1097 49.9299 45.0997 49.9399C45.0297 49.9799 44.9598 50.0199 44.8998 50.0499C44.8198 50.0899 44.7497 50.1299 44.6697 50.1799C44.5897 50.2199 44.5198 50.2599 44.4398 50.2999C44.3598 50.3399 44.2798 50.3799 44.2098 50.4199C44.1298 50.4599 44.0497 50.4999 43.9697 50.5299C43.9897 50.7099 43.9998 50.8799 44.0298 51.0499C44.2398 52.7199 44.7398 54.3299 45.4998 55.8399C45.5398 55.9199 45.5798 55.9999 45.6298 56.0799C45.6398 56.0799 45.6597 56.0699 45.6697 56.0599C45.6997 56.0499 45.7298 56.0399 45.7498 56.0199C45.8198 55.9899 45.8997 55.9599 45.9697 55.9299C45.9997 55.9199 46.0197 55.9099 46.0497 55.8999C46.0697 55.8899 46.0797 55.8899 46.0997 55.8799C46.1097 55.8799 46.1198 55.8699 46.1298 55.8699C46.1498 55.8599 46.1798 55.8499 46.1998 55.8399C46.2098 55.8399 46.2197 55.8299 46.2297 55.8299C46.2497 55.8199 46.2797 55.8099 46.2997 55.7999C46.4397 55.7399 46.5698 55.6699 46.7098 55.6099C46.7298 55.5999 46.7398 55.5999 46.7598 55.5899C46.8098 55.5699 46.8597 55.5399 46.9097 55.5199C46.9397 55.5099 46.9697 55.4899 46.9897 55.4799C47.0297 55.4599 47.0697 55.4399 47.1097 55.4199C47.1497 55.3999 47.1897 55.3799 47.2397 55.3499C47.2697 55.3299 47.2998 55.3199 47.3298 55.2999C47.4098 55.2599 47.4898 55.2099 47.5698 55.1699C47.5998 55.1599 47.6297 55.1399 47.6597 55.1199C47.7197 55.0899 47.7698 55.0599 47.8198 55.0299C47.8698 54.9999 47.9297 54.9699 47.9797 54.9399C48.0297 54.9099 48.0898 54.8799 48.1398 54.8499C48.1898 54.8199 48.2497 54.7899 48.2997 54.7499C48.4097 54.6899 48.5098 54.6199 48.6198 54.5499C48.7298 54.4799 48.8298 54.4199 48.9398 54.3499C49.0398 54.2799 49.1498 54.2099 49.2498 54.1399C49.3498 54.0699 49.4598 53.9999 49.5598 53.9299C49.5698 53.9299 49.5798 53.9199 49.5898 53.9099C49.5898 53.9099 49.5997 53.9099 49.5997 53.8999C49.6297 53.8799 49.6497 53.8599 49.6797 53.8499C49.6897 53.8499 49.6898 53.8399 49.6998 53.8299L49.7098 53.8199C49.7598 53.7799 49.8097 53.7499 49.8597 53.7099C49.8697 53.7099 49.8698 53.6999 49.8798 53.6899C49.9698 53.6299 50.0498 53.5599 50.1398 53.4999C50.1498 53.4899 50.1597 53.4899 50.1697 53.4799C50.1797 53.4699 50.1997 53.4599 50.2197 53.4499C50.2397 53.4299 50.2697 53.4099 50.2897 53.3999C50.3397 53.3599 50.3898 53.3199 50.4398 53.2799C50.4498 53.2699 50.4498 53.2699 50.4598 53.2599C50.5498 53.1899 50.6397 53.1099 50.7297 53.0399L50.7397 53.0299C50.7497 53.0299 50.7498 53.0199 50.7498 53.0199L50.7598 53.0099L50.7698 52.9999L50.7798 52.9899C50.7998 52.9699 50.8297 52.9499 50.8497 52.9299C50.8897 52.8899 50.9397 52.8599 50.9797 52.8199C51.0197 52.7899 51.0597 52.7499 51.0997 52.7199C51.1497 52.6699 51.2098 52.6299 51.2598 52.5799C51.2698 52.5699 51.2797 52.5599 51.2897 52.5499C51.3797 52.4699 51.4798 52.3799 51.5698 52.2999C51.6598 52.2199 51.7498 52.1299 51.8398 52.0499C51.9098 51.9899 51.9697 51.9199 52.0397 51.8599C52.0597 51.8399 52.0897 51.8099 52.1097 51.7899C52.1897 51.7099 52.2598 51.6399 52.3398 51.5599C52.3698 51.5299 52.4098 51.4899 52.4398 51.4599L52.5098 51.3899C52.5498 51.3499 52.5898 51.3099 52.6298 51.2699C52.7098 51.1799 52.7998 51.0899 52.8798 51.0099C52.8998 50.9899 52.9198 50.9699 52.9398 50.9499C53.0098 50.8799 53.0698 50.7999 53.1398 50.7199C53.1998 50.6499 53.2598 50.5799 53.3198 50.5099C53.3798 50.4399 53.4398 50.3699 53.4998 50.2999C53.5598 50.2299 53.6097 50.1699 53.6697 50.0999C53.8097 49.9299 53.9498 49.7499 54.0798 49.5699C54.1298 49.5099 54.1697 49.4499 54.2197 49.3899C54.2297 49.3799 54.2397 49.3699 54.2397 49.3599C54.2397 49.3599 54.2398 49.3599 54.2498 49.3499C54.2698 49.3199 54.2898 49.2999 54.3098 49.2699C54.3698 49.1899 54.4197 49.1099 54.4797 49.0399L54.4897 49.0299C54.4997 49.0099 54.5198 48.9999 54.5298 48.9799C54.5298 48.9799 54.5397 48.9699 54.5397 48.9599C54.5897 48.8899 54.6397 48.8199 54.6797 48.7499L54.6898 48.7399L54.6998 48.7299C54.7098 48.7199 54.7197 48.6999 54.7297 48.6899C54.7397 48.6799 54.7498 48.6599 54.7598 48.6499C54.7698 48.6299 54.7897 48.6099 54.7997 48.5999C54.8397 48.5499 54.8698 48.4999 54.8998 48.4499C54.9198 48.4199 54.9398 48.3899 54.9598 48.3599C55.0198 48.2699 55.0698 48.1899 55.1298 48.0999C55.1498 48.0699 55.1698 48.0299 55.1898 47.9999C55.1998 47.9899 55.2098 47.9699 55.2098 47.9599C55.2498 47.8999 55.2898 47.8299 55.3298 47.7699C55.3598 47.7199 55.3897 47.6799 55.4097 47.6299C55.4397 47.5799 55.4698 47.5299 55.4998 47.4799C55.5298 47.4299 55.5598 47.3899 55.5798 47.3399C55.6298 47.2599 55.6797 47.1699 55.7197 47.0799C55.7497 47.0299 55.7798 46.9699 55.8098 46.9199C55.8398 46.8699 55.8598 46.8299 55.8898 46.7799C55.8998 46.7699 55.8997 46.7599 55.9097 46.7499C55.9597 46.6499 56.0098 46.5499 56.0598 46.4599C56.1198 46.3399 56.1797 46.2199 56.2397 46.0899C56.2697 46.0299 56.2898 45.9799 56.3198 45.9199C56.3498 45.8599 56.3698 45.8099 56.3998 45.7499C56.4398 45.6599 56.4798 45.5699 56.5198 45.4799C56.5298 45.4499 56.5397 45.4299 56.5497 45.3999C56.5697 45.3499 56.5898 45.2999 56.6198 45.2499C56.6598 45.1699 56.6897 45.0799 56.7297 44.9899C56.7397 44.9699 56.7498 44.9499 56.7498 44.9299C56.7798 44.8599 56.8098 44.7899 56.8298 44.7299C56.8398 44.7099 56.8497 44.6899 56.8597 44.6699C56.8697 44.6499 56.8798 44.6199 56.8898 44.5999C56.8998 44.5799 56.9097 44.5599 56.9197 44.5299C56.9497 44.4599 56.9798 44.3899 56.9998 44.3099C57.0298 44.2299 57.0598 44.1499 57.0898 44.0699C57.0898 44.0699 57.0898 44.0699 57.0898 44.0599V44.0499C57.1098 44.0099 57.1198 43.9599 57.1398 43.9099C57.1498 43.8699 57.1697 43.8299 57.1797 43.7799C57.1897 43.7399 57.2097 43.6999 57.2197 43.6599C57.2297 43.6399 57.2297 43.6099 57.2397 43.5899C57.2497 43.5699 57.2498 43.5499 57.2598 43.5199C57.2798 43.4699 57.2898 43.4199 57.3098 43.3699C57.3198 43.3599 57.3198 43.3399 57.3198 43.3199C57.3398 43.2699 57.3498 43.2199 57.3698 43.1699C57.3898 43.1099 57.3997 43.0599 57.4197 42.9999C57.4497 42.9199 57.4697 42.8299 57.4897 42.7499C57.4897 42.7399 57.4998 42.7299 57.4998 42.7199C57.5198 42.6699 57.5297 42.6099 57.5397 42.5599C57.5397 42.5499 57.5497 42.5399 57.5497 42.5299C57.5497 42.5199 57.5498 42.5199 57.5598 42.5099C57.5598 42.4999 57.5698 42.4899 57.5698 42.4799C57.5898 42.4199 57.5997 42.3699 57.6097 42.3099C57.6197 42.2699 57.6298 42.2299 57.6398 42.1999C57.6498 42.1499 57.6597 42.1099 57.6697 42.0599V42.0499C57.6797 42.0299 57.6798 41.9999 57.6898 41.9799C57.7098 41.9199 57.7197 41.8599 57.7297 41.7899C57.7497 41.7199 57.7598 41.6599 57.7698 41.5899C57.7798 41.5699 57.7798 41.5399 57.7798 41.5199C57.7798 41.5099 57.7897 41.4899 57.7897 41.4799C57.7997 41.4499 57.7998 41.4199 57.8098 41.3799C57.8098 41.3699 57.8098 41.3699 57.8098 41.3599C57.8398 41.2399 57.8598 41.1199 57.8798 40.9999C57.8898 40.9599 57.8898 40.9299 57.8998 40.8899C57.9098 40.8199 57.9298 40.7399 57.9398 40.6699C57.9398 40.6499 57.9498 40.6399 57.9498 40.6199C57.9598 40.5799 57.9597 40.5299 57.9697 40.4899V40.4799C57.9697 40.4599 57.9797 40.4499 57.9797 40.4299C57.9897 40.3799 57.9998 40.3199 58.0098 40.2699C58.0098 40.2599 58.0098 40.2399 58.0198 40.2299C58.0198 40.2199 58.0198 40.2099 58.0198 40.1999C58.0198 40.1799 58.0298 40.1599 58.0298 40.1399C58.0298 40.1099 58.0397 40.0799 58.0397 40.0499C58.0497 40.0099 58.0498 39.9699 58.0598 39.9199C58.0598 39.9099 58.0598 39.8899 58.0698 39.8799C58.0798 39.8399 58.0798 39.7999 58.0898 39.7599C58.0898 39.7399 58.0897 39.7199 58.0997 39.6999C58.0997 39.6699 58.1097 39.6499 58.1097 39.6199C58.1197 39.5499 58.1298 39.4699 58.1398 39.3999C58.1398 39.3899 58.1398 39.3699 58.1398 39.3599C58.1398 39.3299 58.1498 39.2899 58.1498 39.2599V39.2499C58.1498 39.2399 58.1498 39.2299 58.1498 39.2199V39.2099C58.1498 39.1999 58.1498 39.1799 58.1498 39.1699C58.1498 39.1499 58.1597 39.1299 58.1597 39.1099C58.1597 39.0799 58.1697 39.0399 58.1697 39.0099V38.9999C58.1697 38.9899 58.1697 38.9899 58.1697 38.9799C58.1697 38.9699 58.1697 38.9699 58.1697 38.9599V38.9499C58.1697 38.9399 58.1697 38.9299 58.1697 38.9199C58.1697 38.8899 58.1797 38.8599 58.1797 38.8299C58.1797 38.7999 58.1898 38.7799 58.1898 38.7499C58.1898 38.7299 58.1898 38.7199 58.1898 38.6999C58.1898 38.6899 58.1898 38.6799 58.1898 38.6699C58.1898 38.6499 58.1898 38.6299 58.1898 38.6099C58.1998 38.5399 58.1998 38.4599 58.1998 38.3899C58.1998 38.3799 58.1998 38.3599 58.1998 38.3499C58.1998 38.2699 58.2098 38.1999 58.2098 38.1199C58.2098 38.0899 58.2098 38.0499 58.2098 38.0199C58.2098 37.9999 58.2098 37.9799 58.2098 37.9599C58.2098 37.9299 58.2098 37.8999 58.2098 37.8699C58.2098 37.8599 58.2098 37.8499 58.2098 37.8399C58.2098 37.7699 58.2097 37.6999 58.2197 37.6299C58.2197 37.6099 58.2197 37.5999 58.2197 37.5799C58.2197 37.5499 58.2197 37.5299 58.2197 37.5099V37.4899C58.2197 37.4799 58.2197 37.4699 58.2197 37.4699C58.2197 37.3599 58.2197 37.2599 58.2197 37.1499C58.2797 36.9499 58.2698 36.7499 58.2698 36.5399ZM49.4697 20.2899C49.3597 20.2099 49.2498 20.1399 49.1398 20.0599L49.1298 20.0499C49.0198 19.9799 48.9097 19.8999 48.7997 19.8299C48.5697 19.6799 48.3397 19.5399 48.0997 19.3999C47.9797 19.3299 47.8597 19.2599 47.7397 19.1899C47.4997 19.0599 47.2598 18.9299 47.0098 18.7999C46.8898 18.7399 46.7598 18.6799 46.6398 18.6199C46.5198 18.5599 46.3998 18.5099 46.2798 18.4499C46.2798 18.4499 46.2698 18.4499 46.2698 18.4399C46.1598 18.3899 46.0497 18.3399 45.9297 18.2899C45.8997 18.2799 45.8698 18.2599 45.8398 18.2499C45.7298 18.1999 45.6198 18.1599 45.5098 18.1099C45.3798 18.0599 45.2498 18.0099 45.1198 17.9599C44.8598 17.8599 44.5998 17.7599 44.3398 17.6699C44.2098 17.6299 44.0798 17.5799 43.9398 17.5399C43.8698 17.5199 43.8097 17.4999 43.7397 17.4799C43.6697 17.4599 43.6097 17.4399 43.5397 17.4199C43.2097 17.3199 42.8698 17.2299 42.5298 17.1399C42.3898 17.1099 42.2598 17.0699 42.1198 17.0399C41.9798 17.0099 41.8498 16.9799 41.7098 16.9499C41.5598 16.9199 41.4098 16.8899 41.2498 16.8599C41.1998 16.8499 41.1498 16.8399 41.0898 16.8299C40.8698 16.7899 40.6598 16.7599 40.4398 16.7299C40.3098 16.7099 40.1797 16.6999 40.0497 16.6799C39.9697 16.6699 39.8897 16.6599 39.7997 16.6499C39.7297 16.6399 39.6598 16.6399 39.5798 16.6299C39.2098 16.5999 38.8397 16.5699 38.4697 16.5599C38.4097 16.5599 38.3498 16.5599 38.2798 16.5499C38.2098 16.5499 38.1298 16.5499 38.0598 16.5399C37.9098 16.5399 37.7698 16.5399 37.6198 16.5399C37.4698 16.5399 37.3297 16.5399 37.1797 16.5399C37.1097 16.5399 37.0298 16.5399 36.9598 16.5499C36.8998 16.5499 36.8398 16.5499 36.7698 16.5599C36.3998 16.5699 36.0197 16.5999 35.6597 16.6299C35.5897 16.6399 35.5198 16.6399 35.4398 16.6499C35.3598 16.6599 35.2798 16.6699 35.1898 16.6799C35.0598 16.6999 34.9297 16.7099 34.7997 16.7299C34.5797 16.7599 34.3698 16.7899 34.1498 16.8299C34.0998 16.8399 34.0497 16.8499 33.9897 16.8599C33.8397 16.8899 33.6898 16.9199 33.5298 16.9499C33.3898 16.9799 33.2498 17.0099 33.1198 17.0399C32.9798 17.0699 32.8498 17.0999 32.7098 17.1399C32.3698 17.2199 32.0298 17.3199 31.6998 17.4199C31.6298 17.4399 31.5698 17.4599 31.4998 17.4799C31.4298 17.4999 31.3697 17.5199 31.2997 17.5399C31.1697 17.5799 31.0398 17.6299 30.8998 17.6699C30.6398 17.7599 30.3798 17.8599 30.1198 17.9599C29.9898 18.0099 29.8597 18.0599 29.7297 18.1099C29.6197 18.1599 29.5098 18.1999 29.3998 18.2499C29.3698 18.2599 29.3398 18.2799 29.3098 18.2899C29.1998 18.3399 29.0797 18.3899 28.9697 18.4399C28.9697 18.4399 28.9598 18.4399 28.9598 18.4499C28.8398 18.5099 28.7197 18.5599 28.5997 18.6199C28.4797 18.6799 28.3497 18.7399 28.2297 18.7999C27.9797 18.9299 27.7398 19.0499 27.4998 19.1899C27.3798 19.2599 27.2598 19.3299 27.1398 19.3999C26.8998 19.5399 26.6698 19.6799 26.4398 19.8299C26.3298 19.8999 26.2197 19.9799 26.1097 20.0499L26.0997 20.0599C25.9897 20.1399 25.8798 20.2099 25.7698 20.2899C25.5498 20.4499 25.3297 20.6099 25.1097 20.7699C25.1597 20.8499 25.2098 20.9199 25.2498 20.9999C26.1798 22.4099 27.3297 23.6399 28.6697 24.6499C28.8097 24.7599 28.9497 24.8599 29.0997 24.9599C29.1697 24.9099 29.2498 24.8599 29.3198 24.8099C29.3298 24.8099 29.3298 24.7999 29.3398 24.7999C29.4098 24.7499 29.4798 24.6999 29.5598 24.6599C29.6398 24.6099 29.7197 24.5599 29.7897 24.5099C29.8697 24.4599 29.9498 24.4099 30.0298 24.3699C30.0998 24.3299 30.1798 24.2799 30.2498 24.2399C30.2598 24.2399 30.2698 24.2299 30.2798 24.2299C30.3598 24.1899 30.4298 24.1399 30.5098 24.0999C30.6698 24.0099 30.8398 23.9299 30.9998 23.8399C31.0798 23.7999 31.1698 23.7599 31.2498 23.7199C31.3298 23.6799 31.4198 23.6399 31.4998 23.5999C31.8398 23.4499 32.1797 23.3099 32.5397 23.1799C32.6297 23.1499 32.7198 23.1199 32.8098 23.0899C32.8998 23.0599 32.9898 23.0299 33.0798 22.9999C33.2598 22.9399 33.4398 22.8899 33.6198 22.8399C33.6998 22.8199 33.7797 22.7999 33.8497 22.7799C33.8697 22.7699 33.8897 22.7699 33.9097 22.7599C33.9897 22.7399 34.0797 22.7199 34.1597 22.6999C34.2497 22.6799 34.3398 22.6599 34.4398 22.6399C34.6298 22.5999 34.8198 22.5599 35.0198 22.5299C35.0798 22.5199 35.1398 22.5099 35.1998 22.4999C35.2398 22.4899 35.2798 22.4899 35.3198 22.4799C35.3798 22.4699 35.4297 22.4599 35.4897 22.4499C35.5797 22.4399 35.6798 22.4199 35.7698 22.4099C35.8898 22.3999 36.0098 22.3799 36.1298 22.3699C36.2298 22.3599 36.3297 22.3499 36.4297 22.3399C36.4997 22.3299 36.5797 22.3299 36.6597 22.3199C36.6997 22.3199 36.7298 22.3199 36.7698 22.3099C36.8198 22.3099 36.8697 22.2999 36.9197 22.2999C36.9897 22.2999 37.0698 22.2899 37.1398 22.2899C37.1898 22.2899 37.2397 22.2899 37.2897 22.2899C37.3897 22.2899 37.4997 22.2899 37.5997 22.2899C37.6997 22.2899 37.8097 22.2899 37.9097 22.2899C37.9597 22.2899 38.0098 22.2899 38.0598 22.2899C38.1298 22.2899 38.2098 22.2899 38.2798 22.2999C38.3298 22.2999 38.3797 22.2999 38.4297 22.3099C38.4697 22.3099 38.4997 22.3099 38.5397 22.3199C38.6197 22.3199 38.6898 22.3299 38.7698 22.3399C38.8698 22.3499 38.9698 22.3599 39.0698 22.3699C39.1898 22.3799 39.3097 22.3999 39.4297 22.4099C39.5297 22.4199 39.6198 22.4299 39.7098 22.4499C39.7698 22.4599 39.8198 22.4699 39.8798 22.4799C39.9198 22.4899 39.9598 22.4899 39.9998 22.4999C40.0598 22.5099 40.1197 22.5199 40.1797 22.5299C40.3697 22.5599 40.5698 22.5999 40.7598 22.6399C40.8498 22.6599 40.9497 22.6799 41.0397 22.6999C41.1197 22.7199 41.2097 22.7399 41.2897 22.7599C41.3097 22.7599 41.3297 22.7699 41.3497 22.7799C41.4297 22.7999 41.5098 22.8199 41.5798 22.8399C41.7598 22.8899 41.9398 22.9399 42.1198 22.9999C42.2098 23.0299 42.2998 23.0599 42.3898 23.0899C42.4798 23.1199 42.5697 23.1499 42.6597 23.1799C43.0097 23.3099 43.3598 23.4499 43.6998 23.5999C43.7898 23.6399 43.8698 23.6799 43.9498 23.7199C44.0298 23.7599 44.1198 23.7999 44.1998 23.8399C44.3698 23.9199 44.5298 24.0099 44.6898 24.0999C44.7698 24.1399 44.8497 24.1799 44.9197 24.2299C44.9297 24.2399 44.9398 24.2399 44.9498 24.2399C45.0198 24.2799 45.0997 24.3299 45.1697 24.3699C45.2497 24.4199 45.3297 24.4699 45.4097 24.5099C45.4897 24.5599 45.5698 24.6099 45.6398 24.6599C45.7098 24.7099 45.7797 24.7499 45.8597 24.7999C45.8697 24.7999 45.8698 24.8099 45.8798 24.8099C45.9498 24.8599 46.0297 24.9099 46.0997 24.9599L50.0898 20.7599C49.9198 20.6099 49.6997 20.4499 49.4697 20.2899ZM75.2297 45.6699C74.2497 41.1799 71.4498 37.0999 67.1398 34.6199C64.1698 32.9099 60.8998 32.1999 57.7098 32.3799C55.7798 32.4899 53.8797 32.9299 52.0997 33.6699C48.7897 35.0499 45.8997 37.4799 43.9697 40.8199C42.0397 44.1499 41.3798 47.8699 41.8298 51.4199C42.0798 53.3299 42.6398 55.1899 43.5098 56.9099C44.9498 59.7499 47.1997 62.2199 50.1697 63.9399C54.4797 66.4199 59.4198 66.7999 63.8198 65.3999C58.0198 68.1599 50.9998 68.1199 45.0098 64.6799C41.9898 62.9399 39.5898 60.5399 37.8898 57.7699C37.7998 57.6199 37.7098 57.4699 37.6198 57.3199C37.5298 57.4699 37.4397 57.6199 37.3497 57.7699C35.6497 60.5399 33.2497 62.9399 30.2297 64.6799C24.2397 68.1299 17.2197 68.1699 11.4197 65.3999C15.8097 66.7999 20.7598 66.4199 25.0698 63.9399C28.0398 62.2299 30.2997 59.7599 31.7297 56.9099C32.5997 55.1899 33.1697 53.3299 33.4097 51.4199C33.8697 47.8699 33.1998 44.1599 31.2698 40.8199C29.3398 37.4799 26.4398 35.0499 23.1398 33.6699C21.3598 32.9299 19.4598 32.4899 17.5298 32.3799C14.3398 32.1999 11.0697 32.9099 8.09973 34.6199C3.78973 37.0999 0.989766 41.1799 0.00976562 45.6699C0.509766 39.2799 4.05973 33.2299 10.0397 29.7899C13.0597 28.0499 16.3397 27.1799 19.5997 27.0999C19.7697 27.0999 19.9498 27.0899 20.1198 27.0899C20.0298 26.9399 19.9497 26.7899 19.8597 26.6299C18.2997 23.7699 17.4197 20.4999 17.4197 17.0199C17.4197 10.1199 20.8898 4.03991 26.1898 0.409912C22.7798 3.49991 20.6398 7.9699 20.6398 12.9299C20.6398 16.3599 21.6597 19.5399 23.4097 22.2099C24.4697 23.8199 25.7998 25.2399 27.3298 26.3999C30.1798 28.5599 33.7298 29.8499 37.5898 29.8499C41.4498 29.8499 44.9997 28.5699 47.8497 26.3999C49.3797 25.2399 50.7098 23.8199 51.7698 22.2099C53.5198 19.5499 54.5397 16.3599 54.5397 12.9299C54.5397 7.9699 52.3997 3.50991 48.9897 0.409912C54.2897 4.03991 57.7598 10.1199 57.7598 17.0199C57.7598 20.4999 56.8798 23.7699 55.3198 26.6299C55.2398 26.7799 55.1498 26.9299 55.0598 27.0799C55.2298 27.0799 55.4098 27.0799 55.5798 27.0899C58.8398 27.1699 62.1198 28.0399 65.1398 29.7799C71.1898 33.2299 74.7297 39.2799 75.2297 45.6699ZM42.5298 37.1599C42.5298 36.9599 42.5197 36.7599 42.4897 36.5699C42.3297 35.2199 41.6098 34.0299 40.5698 33.2499C39.7498 32.6299 38.7298 32.2699 37.6298 32.2699C36.5298 32.2699 35.5098 32.6399 34.6898 33.2499C33.6498 34.0299 32.9298 35.2099 32.7698 36.5699C32.7498 36.7599 32.7297 36.9599 32.7297 37.1599C32.7297 39.1799 33.9598 40.9099 35.7098 41.6599C36.2998 41.9099 36.9498 42.0499 37.6298 42.0499C38.3098 42.0499 38.9597 41.9099 39.5497 41.6599C41.2997 40.9099 42.5298 39.1799 42.5298 37.1599Z" fill="black"/>
</svg>
