<svg width="69" height="76" viewBox="0 0 69 76" fill="none" xmlns="http://www.w3.org/2000/svg">
<path d="M34.5 16.93C24.47 16.93 16.33 25.04 16.33 35.05C16.33 45.06 24.46 53.17 34.5 53.17C44.54 53.17 52.67 45.06 52.67 35.05C52.67 25.04 44.53 16.93 34.5 16.93ZM34.5 49.81C26.34 49.81 19.7 43.19 19.7 35.05C19.7 26.91 26.34 20.29 34.5 20.29C42.66 20.29 49.3 26.91 49.3 35.05C49.3 43.19 42.66 49.81 34.5 49.81Z" fill="black"/>
<path d="M34.5 56.54C28.87 56.54 23.75 54.37 19.91 50.84L5.48001 59.15L34.51 75.87L63.54 59.15L49.11 50.84C45.25 54.37 40.13 56.54 34.5 56.54ZM56.79 59.15L34.5 71.99L12.21 59.15L19.56 54.92C23.86 58.15 29.08 59.9 34.5 59.9C39.92 59.9 45.14 58.15 49.44 54.92L56.79 59.15Z" fill="black"/>
<path d="M39.22 14.09C48.83 16.24 56.04 24.82 56.04 35.05C56.04 37.88 55.48 40.58 54.48 43.06L68.25 50.99V17.55L39.22 0.830017V14.09ZM42.59 6.65997L64.88 19.5V45.18L58.55 41.53C59.12 39.43 59.41 37.26 59.41 35.06C59.41 24.46 52.48 14.98 42.59 11.57V6.65997Z" fill="black"/>
<path d="M12.97 35.05C12.97 24.82 20.18 16.24 29.79 14.09V0.830017L0.76001 17.55V51L14.53 43.07C13.52 40.59 12.97 37.88 12.97 35.05ZM4.12001 45.18V19.5L26.41 6.65997V11.56C16.52 14.97 9.59001 24.45 9.59001 35.05C9.59001 37.25 9.88001 39.42 10.45 41.52L4.12001 45.18Z" fill="black"/>
</svg>
