<svg width="77" height="71" viewBox="0 0 77 71" fill="none" xmlns="http://www.w3.org/2000/svg">
<path d="M66.88 38.11H48.97C48.84 34.56 46.93 31.46 44.09 29.68L53.04 14.2C61.22 19.08 66.74 27.96 66.88 38.11Z" fill="#00ff3c"/>
<path d="M32.96 29.68C30.13 31.46 28.2 34.56 28.07 38.11H10.16C10.3 27.96 15.83 19.08 24 14.2L32.96 29.68Z" fill="#00ff3c"/>
<path d="M52.35 63.2C48.26 65.5 43.54 66.8 38.52 66.8C33.49 66.8 28.78 65.5 24.68 63.2L33.63 47.73C35.1 48.51 36.75 48.94 38.52 48.94C40.29 48.94 41.94 48.5 43.4 47.73L52.35 63.2Z" fill="#00ff3c"/>
<path d="M56.07 68.04L57.67 70.8C68.61 64.33 75.98 52.48 76.12 38.9H72.94C72.8 51.28 66.06 62.11 56.07 68.04Z" fill="#00ff3c"/>
<path d="M38.52 4.15999C44.64 4.15999 50.4 5.76999 55.38 8.56999L56.98 5.80998C51.53 2.73998 45.23 0.97998 38.52 0.97998C31.81 0.97998 25.51 2.73998 20.06 5.80998L21.66 8.56999C26.64 5.75999 32.4 4.15999 38.52 4.15999Z" fill="#00ff3c"/>
<path d="M4.09998 38.9H0.919983C1.05998 52.48 8.43 64.33 19.37 70.8L20.97 68.04C10.98 62.11 4.23998 51.28 4.09998 38.9Z" fill="#00ff3c"/>
<path d="M45.62 38.5C45.62 41.26 44.04 43.65 41.72 44.82C40.77 45.31 39.68 45.58 38.52 45.58C37.36 45.58 36.28 45.3 35.32 44.82C33 43.66 31.42 41.27 31.42 38.5C31.42 38.37 31.42 38.24 31.45 38.11C31.56 35.8 32.8 33.77 34.63 32.58C35.75 31.84 37.07 31.42 38.52 31.42C39.96 31.42 41.29 31.85 42.41 32.58C44.24 33.78 45.48 35.79 45.59 38.11C45.62 38.24 45.62 38.37 45.62 38.5Z" fill="#00ff3c"/>
</svg>
