<svg width="76" height="76" viewBox="0 0 76 76" fill="none" xmlns="http://www.w3.org/2000/svg">
<path d="M43.91 60.92C43.9 60.73 43.9 60.52 43.91 60.31C43.92 60.1 43.95 59.88 43.99 59.68L44.14 58.86L44.27 58.03L44.39 57.2C44.54 56.1 44.64 54.98 44.7 53.87C44.82 51.64 44.78 49.41 44.59 47.19L44.57 46.91L44.79 46.73C45.52 46.13 46.17 45.44 46.72 44.68C47.26 43.91 47.7 43.07 48.03 42.19C48.35 41.31 48.54 40.38 48.61 39.44C48.68 38.5 48.63 37.56 48.44 36.64L48.35 36.18L48.81 36.01C52.46 34.69 56.31 33.86 60.22 33.52C62.18 33.35 64.15 33.31 66.12 33.39C68.09 33.47 70.07 33.68 72.03 34.02L70.05 35.56C70.17 33.13 70.02 30.69 69.58 28.29C69.15 25.89 68.43 23.54 67.46 21.29C66.97 20.17 66.43 19.07 65.8 18.01C65.18 16.95 64.51 15.92 63.78 14.93C63.05 13.94 62.25 13 61.41 12.1C60.99 11.65 60.55 11.21 60.11 10.78L59.43 10.15C59.2 9.94003 58.96 9.73998 58.73 9.53998C54.97 6.31998 50.43 3.99003 45.59 2.78003C40.75 1.56003 35.6 1.46 30.68 2.5V1.45002C33.37 2.07002 35.97 3.02002 38.43 4.27002C40.89 5.52002 43.19 7.07 45.27 8.87C47.35 10.67 49.22 12.72 50.81 14.97C52.4 17.21 53.72 19.65 54.72 22.22L54.93 22.75L54.38 22.93C50.14 24.32 46.11 26.36 42.45 28.92L42.21 29.09L41.94 28.99C41.06 28.65 40.14 28.44 39.2 28.35C38.26 28.26 37.31 28.3 36.39 28.47C35.46 28.63 34.56 28.93 33.71 29.33C33.29 29.54 32.88 29.77 32.48 30.02C32.09 30.28 31.71 30.57 31.36 30.87L31 31.17L30.63 30.86C29.15 29.61 27.74 28.26 26.43 26.82C25.12 25.38 23.89 23.85 22.77 22.25C21.65 20.64 20.62 18.96 19.7 17.22C18.78 15.47 17.98 13.66 17.29 11.8V11.79L19.62 12.73C17.46 13.84 15.41 15.19 13.54 16.77C11.67 18.34 9.99001 20.14 8.53001 22.1C7.81001 23.09 7.11999 24.1 6.50999 25.17C5.89999 26.23 5.33996 27.33 4.84996 28.46C4.35996 29.59 3.93999 30.75 3.56999 31.93C3.37999 32.52 3.23 33.12 3.08 33.71L2.86998 34.61C2.79998 34.91 2.74999 35.22 2.68999 35.52C1.77999 40.38 2.02 45.46 3.39 50.25C4.75 55.04 7.23996 59.54 10.6 63.27L10.61 63.28L9.68999 63.81C8.88999 61.18 8.40999 58.45 8.25999 55.7C8.11999 52.95 8.31 50.19 8.83 47.49C9.35 44.79 10.2 42.15 11.35 39.66C12.5 37.16 13.96 34.8 15.68 32.66L16.04 32.21L16.47 32.59C19.8 35.56 23.58 38.02 27.64 39.9L27.9 40.02L27.95 40.3C28.1 41.23 28.37 42.13 28.76 42.99C29.15 43.84 29.66 44.64 30.27 45.36C31.48 46.8 33.09 47.9 34.87 48.5H34.88L35.32 48.67L35.24 49.14C34.57 52.95 33.38 56.7 31.73 60.25C30.9 62.03 29.96 63.76 28.9 65.42C27.85 67.09 26.68 68.69 25.41 70.22L25.4 70.23L25.04 67.67C27.09 68.99 29.28 70.08 31.57 70.9C33.87 71.73 36.26 72.29 38.7 72.57C39.92 72.7 41.14 72.79 42.37 72.78C43.6 72.78 44.83 72.71 46.05 72.58C47.27 72.44 48.49 72.23 49.69 71.95C50.29 71.82 50.89 71.65 51.48 71.49L52.37 71.22C52.67 71.13 52.95 71.02 53.25 70.92C57.92 69.28 62.21 66.54 65.69 62.97C69.17 59.4 71.83 55.01 73.4 50.24V50.23L74.32 50.76C72.44 52.77 70.31 54.55 68 56.05C65.69 57.55 63.19 58.76 60.59 59.66C57.99 60.56 55.27 61.15 52.53 61.4C51.16 61.53 49.78 61.57 48.4 61.53L47.37 61.48L46.34 61.4L45.31 61.29C45.08 61.26 44.83 61.21 44.59 61.15C44.34 61.08 44.12 61 43.91 60.92ZM44.8 60.31C44.93 60.28 45.04 60.24 45.14 60.22C45.24 60.2 45.33 60.2 45.43 60.21L46.42 60.31L47.42 60.38L48.42 60.42C49.75 60.46 51.09 60.42 52.42 60.29C55.08 60.05 57.71 59.48 60.23 58.61C62.75 57.74 65.17 56.56 67.41 55.11C69.65 53.66 71.71 51.94 73.53 49.99L75.09 48.32L74.44 50.52V50.53C73.01 55.52 70.42 60.19 66.9 64.07C63.39 67.95 58.96 71.04 54.04 72.97C53.73 73.09 53.43 73.21 53.11 73.32L52.17 73.65C51.54 73.85 50.91 74.05 50.27 74.22C48.99 74.56 47.69 74.84 46.38 75.04C45.07 75.23 43.74 75.36 42.41 75.41C41.08 75.47 39.75 75.42 38.42 75.32C35.76 75.11 33.12 74.6 30.57 73.79C28.02 72.98 25.56 71.87 23.26 70.5L21.43 69.42L22.9 67.94L22.91 67.93C24.22 66.64 25.45 65.26 26.59 63.79C27.73 62.33 28.78 60.79 29.73 59.18C31.63 55.97 33.13 52.5 34.16 48.86L34.51 49.49H34.5C32.53 48.82 30.76 47.61 29.42 46.02C28.75 45.23 28.19 44.35 27.76 43.4C27.33 42.46 27.02 41.46 26.86 40.43L27.17 40.84C23.03 38.91 19.15 36.4 15.74 33.36L16.53 33.29C14.86 35.37 13.45 37.65 12.34 40.07C11.22 42.49 10.4 45.04 9.90001 47.66C9.40001 50.27 9.20996 52.95 9.34996 55.61C9.48996 58.27 9.94996 60.91 10.73 63.46L11.4 65.65L9.80998 63.98L9.79997 63.97C6.18997 60.24 3.42999 55.66 1.81999 50.68C0.209992 45.7 -0.250038 40.33 0.539962 35.12C0.589962 34.79 0.639996 34.47 0.699996 34.14L0.889999 33.17C1.03 32.53 1.16996 31.88 1.34996 31.25C1.68996 29.98 2.10001 28.72 2.59001 27.49C3.08001 26.26 3.62998 25.06 4.24998 23.88C4.86998 22.71 5.56999 21.58 6.31999 20.48C7.82999 18.29 9.59999 16.27 11.57 14.48C13.55 12.69 15.74 11.12 18.08 9.81L19.87 8.81L20.41 10.75V10.76C20.88 12.54 21.47 14.3 22.17 16.01C22.87 17.73 23.69 19.4 24.61 21.03C26.45 24.28 28.73 27.31 31.38 30L30.65 29.99C31.04 29.65 31.46 29.34 31.89 29.05C32.32 28.76 32.78 28.51 33.24 28.28C34.18 27.83 35.18 27.51 36.2 27.33C37.22 27.15 38.27 27.1 39.3 27.2C40.33 27.3 41.36 27.53 42.33 27.91L41.82 27.97C45.56 25.35 49.68 23.26 54.03 21.84L53.69 22.55C52.72 20.07 51.44 17.71 49.9 15.54C48.36 13.37 46.55 11.38 44.54 9.64002C42.52 7.90002 40.29 6.40001 37.92 5.19001C35.54 3.98001 33.02 3.06003 30.42 2.46003L28.17 1.94001L30.42 1.40998C35.47 0.149977 40.82 0.0599769 45.94 1.15998C51.06 2.25998 55.96 4.55002 60.09 7.83002C60.35 8.04002 60.61 8.24002 60.86 8.45002L61.61 9.09998C62.1 9.53998 62.59 9.99003 63.05 10.46C63.98 11.39 64.88 12.37 65.7 13.41C66.52 14.45 67.29 15.53 68 16.65C68.71 17.77 69.34 18.94 69.92 20.14C71.06 22.54 71.93 25.07 72.5 27.68C73.07 30.29 73.33 32.96 73.3 35.64L73.27 37.66L71.32 37.17C69.54 36.69 67.72 36.32 65.88 36.07C64.04 35.82 62.17 35.68 60.3 35.67C56.56 35.64 52.79 36.09 49.12 37.03L49.49 36.41C49.69 37.43 49.75 38.47 49.67 39.5C49.59 40.53 49.38 41.56 49.02 42.53C48.66 43.5 48.18 44.43 47.58 45.28C46.97 46.12 46.26 46.88 45.45 47.54L45.65 47.07C45.85 49.34 45.89 51.63 45.76 53.91C45.7 55.05 45.59 56.19 45.44 57.32L45.32 58.17L45.18 59.02L45.03 59.86C45.01 59.94 44.99 60 44.94 60.06C44.93 60.15 44.87 60.22 44.8 60.31Z" fill="black"/>
</svg>
