<svg width="77" height="77" viewBox="0 0 77 77" fill="none" xmlns="http://www.w3.org/2000/svg">
<path d="M51.6403 44.19C51.4503 44.64 76.1603 42.49 76.1603 42.49C76.0303 43.76 75.8403 45.01 75.5903 46.25C75.3403 47.48 75.0303 48.69 74.6603 49.87C74.6603 49.87 48.7803 48.54 48.4403 48.87C48.1103 49.19 71.7903 56.66 71.7903 56.66C71.2103 57.73 70.5703 58.77 69.8903 59.78C69.2103 60.79 68.4803 61.76 67.7103 62.69C67.7103 62.69 44.2703 51.69 43.8503 51.86C43.4303 52.03 62.5803 67.82 62.5803 67.82C61.6403 68.59 60.6703 69.32 59.6603 70C58.6503 70.68 57.6103 71.31 56.5403 71.89C56.5403 71.89 38.9403 52.91 38.4703 52.91C38.0003 52.91 49.7503 74.76 49.7503 74.76C48.5603 75.13 47.3503 75.44 46.1203 75.69C44.8903 75.94 43.6303 76.13 42.3603 76.26C42.3603 76.26 33.3703 51.97 32.9203 51.77C32.4703 51.57 34.6203 76.26 34.6203 76.26C33.3503 76.13 32.0903 75.94 30.8603 75.69C29.6303 75.44 28.4203 75.13 27.2303 74.76C27.2303 74.76 28.5603 48.91 28.2403 48.58C27.9203 48.25 20.4403 71.9 20.4403 71.9C19.3703 71.32 18.3203 70.69 17.3203 70.01C16.3103 69.33 15.3403 68.6 14.4003 67.83C14.4003 67.83 25.4203 44.42 25.2503 44C25.0803 43.58 9.27031 62.7 9.27031 62.7C8.50031 61.77 7.77031 60.79 7.09031 59.79C6.41031 58.79 5.78031 57.74 5.19031 56.67C5.19031 56.67 24.2003 39.09 24.2003 38.63C24.2003 38.17 2.32031 49.89 2.32031 49.89C1.95031 48.71 1.64031 47.5 1.39031 46.27C1.14031 45.04 0.950312 43.79 0.820312 42.51C0.820312 42.51 25.1503 33.53 25.3403 33.08C25.5303 32.63 0.820312 34.78 0.820312 34.78C0.950312 33.51 1.14031 32.26 1.39031 31.02C1.64031 29.78 1.95031 28.58 2.32031 27.4C2.32031 27.4 28.2003 28.73 28.5403 28.4C28.8703 28.08 5.19031 20.61 5.19031 20.61C5.77031 19.54 6.41031 18.5 7.09031 17.49C7.77031 16.48 8.50031 15.51 9.27031 14.58C9.27031 14.58 32.7103 25.58 33.1303 25.41C33.5503 25.24 14.4003 9.45 14.4003 9.45C15.3403 8.68 16.3103 7.95 17.3203 7.27C18.3303 6.59 19.3703 5.96 20.4403 5.38C20.4403 5.38 38.0403 24.36 38.5103 24.36C38.9703 24.36 27.2303 2.51 27.2303 2.51C28.4203 2.14 29.6303 1.83 30.8603 1.58C32.0903 1.33 33.3503 1.14 34.6203 1.01C34.6203 1.01 43.6103 25.3 44.0603 25.5C44.5103 25.68 42.3603 1 42.3603 1C43.6303 1.13 44.8903 1.32 46.1203 1.57C47.3503 1.82 48.5603 2.13 49.7503 2.5C49.7503 2.5 48.4203 28.35 48.7403 28.68C49.0603 29.01 56.5403 5.36 56.5403 5.36C57.6103 5.94 58.6603 6.57 59.6603 7.25C60.6703 7.93 61.6403 8.66 62.5803 9.43C62.5803 9.43 51.5603 32.84 51.7303 33.26C51.9003 33.68 67.7103 14.56 67.7103 14.56C68.4803 15.49 69.2103 16.47 69.8903 17.47C70.5703 18.47 71.2003 19.52 71.7903 20.59C71.7903 20.59 52.7803 38.17 52.7803 38.63C52.7803 39.09 74.6603 27.37 74.6603 27.37C75.0303 28.55 75.3403 29.76 75.5903 30.99C75.8403 32.22 76.0303 33.47 76.1603 34.75C76.1603 34.76 51.8303 43.74 51.6403 44.19Z" stroke="black" stroke-width="0.5" stroke-miterlimit="10"/>
</svg>
