<svg width="76" height="76" viewBox="0 0 76 76" fill="none" xmlns="http://www.w3.org/2000/svg">
<path d="M65.8403 56.5202C56.4703 56.5202 46.9903 47.0602 46.9903 37.7102C46.9903 28.3602 56.4703 18.9002 65.8403 18.9002C71.0203 18.9002 75.2103 14.7102 75.2103 9.55017C75.2103 4.38017 71.0103 0.200195 65.8403 0.200195C60.6603 0.200195 56.4703 4.39017 56.4703 9.55017C56.4703 18.9002 46.9903 28.3602 37.6203 28.3602C28.2503 28.3602 18.7703 18.9002 18.7703 9.55017C18.7703 4.38017 14.5703 0.200195 9.40027 0.200195C4.22027 0.200195 0.0302734 4.39017 0.0302734 9.55017C0.0302734 14.7202 4.23027 18.9002 9.40027 18.9002C18.7703 18.9002 28.2503 28.3602 28.2503 37.7102C28.2503 47.0602 18.7703 56.5202 9.40027 56.5202C4.22027 56.5202 0.0302734 60.7102 0.0302734 65.8702C0.0302734 71.0402 4.23027 75.2202 9.40027 75.2202C14.5803 75.2202 18.7703 71.0302 18.7703 65.8702C18.7703 56.5202 28.2503 47.0602 37.6203 47.0602C46.9903 47.0602 56.4703 56.5202 56.4703 65.8702C56.4703 71.0402 60.6703 75.2202 65.8403 75.2202C71.0203 75.2202 75.2103 71.0302 75.2103 65.8702C75.2103 60.7102 71.0203 56.5202 65.8403 56.5202Z" fill="black"/>
</svg>
