<svg width="76" height="76" viewBox="0 0 76 76" fill="none" xmlns="http://www.w3.org/2000/svg">
<path d="M62.6801 37.9399C62.6801 33.2999 66.4501 29.5499 71.0901 29.5499C72.8301 29.5499 74.4401 30.0799 75.7801 30.9799C74.7901 25.6199 72.6901 20.65 69.7101 16.33C69.4001 17.92 68.6301 19.4299 67.4001 20.6599C64.1101 23.9399 58.7901 23.9399 55.5001 20.6599C52.2101 17.3799 52.2101 12.0699 55.5001 8.78992C56.7301 7.55992 58.2501 6.78992 59.8401 6.47992C55.5101 3.49992 50.5301 1.40992 45.1601 0.419922C46.0601 1.75992 46.5901 3.36991 46.5901 5.09991C46.5901 9.73991 42.8201 13.4899 38.1801 13.4899C33.5401 13.4899 29.7701 9.72991 29.7701 5.09991C29.7701 3.36991 30.3001 1.75992 31.2001 0.419922C25.8301 1.40992 20.8501 3.49992 16.5201 6.47992C18.1101 6.78992 19.6301 7.55992 20.8601 8.78992C24.1501 12.0699 24.1501 17.3799 20.8601 20.6599C17.5701 23.9399 12.2501 23.9399 8.96008 20.6599C7.73008 19.4299 6.96009 17.91 6.65009 16.33C3.67009 20.65 1.57008 25.6199 0.580078 30.9799C1.92008 30.0799 3.53008 29.5499 5.27008 29.5499C9.92008 29.5499 13.6801 33.3099 13.6801 37.9399C13.6801 42.5799 9.91008 46.33 5.27008 46.33C3.53008 46.33 1.92008 45.8 0.580078 44.9C1.57008 50.26 3.67009 55.2299 6.65009 59.5499C6.96009 57.9599 7.73008 56.4499 8.96008 55.2199C12.2501 51.9399 17.5701 51.9399 20.8601 55.2199C24.1501 58.4999 24.1501 63.81 20.8601 67.09C19.6301 68.32 18.1101 69.09 16.5201 69.4C20.8501 72.38 25.8301 74.47 31.2001 75.46C30.3001 74.12 29.7701 72.51 29.7701 70.78C29.7701 66.14 33.5401 62.39 38.1801 62.39C42.8201 62.39 46.5901 66.15 46.5901 70.78C46.5901 72.51 46.0601 74.12 45.1601 75.46C50.5301 74.47 55.5101 72.38 59.8401 69.4C58.2501 69.09 56.7301 68.32 55.5001 67.09C52.2101 63.81 52.2101 58.4999 55.5001 55.2199C58.7901 51.9399 64.1101 51.9399 67.4001 55.2199C68.6301 56.4499 69.4001 57.9699 69.7101 59.5499C72.6901 55.2299 74.7901 50.26 75.7801 44.9C74.4401 45.8 72.8301 46.33 71.0901 46.33C66.4501 46.34 62.6801 42.5799 62.6801 37.9399ZM51.2901 41.28C51.9801 41.28 52.6201 41.07 53.1601 40.71C52.7701 42.84 51.9301 44.8199 50.7401 46.5399C50.6201 45.9099 50.3101 45.2999 49.8201 44.8099C48.5101 43.4999 46.3901 43.4999 45.0801 44.8099C43.7701 46.1199 43.7701 48.2299 45.0801 49.5399C45.5701 50.0299 46.1801 50.34 46.8101 50.46C45.0901 51.64 43.1001 52.4799 40.9601 52.8699C41.3201 52.3399 41.5301 51.6999 41.5301 51.0099C41.5301 49.1599 40.0301 47.6699 38.1801 47.6699C36.3301 47.6699 34.8301 49.1699 34.8301 51.0099C34.8301 51.6999 35.0401 52.3399 35.4001 52.8699C33.2601 52.4799 31.2801 51.64 29.5501 50.46C30.1801 50.34 30.7901 50.0299 31.2801 49.5399C32.5901 48.2299 32.5901 46.1199 31.2801 44.8099C29.9701 43.4999 27.8501 43.4999 26.5401 44.8099C26.0501 45.2999 25.7401 45.8999 25.6201 46.5399C24.4301 44.8199 23.6001 42.84 23.2001 40.71C23.7301 41.07 24.3801 41.28 25.0701 41.28C26.9201 41.28 28.4201 39.7799 28.4201 37.9399C28.4201 36.0899 26.9201 34.5999 25.0701 34.5999C24.3801 34.5999 23.7401 34.8099 23.2001 35.1699C23.5901 33.0399 24.4301 31.06 25.6201 29.34C25.7401 29.97 26.0501 30.5799 26.5401 31.0699C27.8501 32.3799 29.9701 32.3799 31.2801 31.0699C32.5901 29.7599 32.5901 27.65 31.2801 26.34C30.7901 25.85 30.1801 25.5399 29.5501 25.4199C31.2801 24.2399 33.2601 23.3999 35.4001 23.0099C35.0401 23.5399 34.8301 24.1799 34.8301 24.8699C34.8301 26.7199 36.3301 28.21 38.1801 28.21C40.0301 28.21 41.5301 26.7099 41.5301 24.8699C41.5301 24.1799 41.3201 23.5399 40.9601 23.0099C43.1001 23.3999 45.0801 24.2399 46.8101 25.4199C46.1801 25.5399 45.5701 25.85 45.0801 26.34C43.7701 27.65 43.7701 29.7599 45.0801 31.0699C46.3901 32.3799 48.5101 32.3799 49.8201 31.0699C50.3101 30.5799 50.6201 29.98 50.7401 29.34C51.9301 31.06 52.7601 33.0399 53.1601 35.1699C52.6301 34.8099 51.9801 34.5999 51.2901 34.5999C49.4401 34.5999 47.9401 36.0999 47.9401 37.9399C47.9401 39.7899 49.4401 41.28 51.2901 41.28Z" fill="black"/>
</svg>
