<svg width="78" height="77" viewBox="0 0 78 77" fill="none" xmlns="http://www.w3.org/2000/svg">
<path d="M76.55 38.71L68.44 36.95L60.33 35.2L52.23 36.95L44.12 38.71L52.23 40.46L60.33 42.22L68.44 40.46L76.55 38.71Z" stroke="black" stroke-width="0.25" stroke-miterlimit="10"/>
<path d="M49.67 38.71L60.33 36.4L71 38.71L60.33 41.02L49.67 38.71Z" stroke="black" stroke-width="0.25" stroke-miterlimit="10"/>
<path d="M65.53 12.18L58.56 16.66L51.58 21.14L47.09 28.1L42.6 35.06L49.58 30.58L56.56 26.1L61.05 19.14L65.53 12.18Z" stroke="black" stroke-width="0.25" stroke-miterlimit="10"/>
<path d="M46.53 31.15L52.43 21.98L61.61 16.09L55.71 25.25L46.53 31.15Z" stroke="black" stroke-width="0.25" stroke-miterlimit="10"/>
<path d="M38.94 1.19L37.18 9.28L35.42 17.37L37.18 25.46L38.94 33.54L40.7 25.46L42.47 17.37L40.7 9.28L38.94 1.19Z" stroke="black" stroke-width="0.25" stroke-miterlimit="10"/>
<path d="M38.94 28.01L36.63 17.37L38.94 6.73001L41.26 17.37L38.94 28.01Z" stroke="black" stroke-width="0.25" stroke-miterlimit="10"/>
<path d="M12.36 12.18L16.84 19.14L21.33 26.1L28.31 30.58L35.28 35.06L30.8 28.1L26.31 21.14L19.33 16.66L12.36 12.18Z" stroke="black" stroke-width="0.25" stroke-miterlimit="10"/>
<path d="M31.36 31.14L22.18 25.25L16.28 16.09L25.46 21.98L31.36 31.14Z" stroke="black" stroke-width="0.25" stroke-miterlimit="10"/>
<path d="M1.34003 38.71L9.45001 40.46L17.55 42.22L25.66 40.46L33.77 38.71L25.66 36.95L17.55 35.2L9.45001 36.95L1.34003 38.71Z" stroke="black" stroke-width="0.25" stroke-miterlimit="10"/>
<path d="M28.22 38.71L17.55 41.02L6.89001 38.71L17.55 36.4L28.22 38.71Z" stroke="black" stroke-width="0.25" stroke-miterlimit="10"/>
<path d="M12.36 65.24L19.33 60.76L26.31 56.28L30.8 49.32L35.28 42.36L28.31 46.84L21.33 51.31L16.84 58.28L12.36 65.24Z" stroke="black" stroke-width="0.25" stroke-miterlimit="10"/>
<path d="M31.36 46.27L25.46 55.43L16.28 61.32L22.18 52.16L31.36 46.27Z" stroke="black" stroke-width="0.25" stroke-miterlimit="10"/>
<path d="M38.94 76.22L40.7 68.14L42.47 60.05L40.7 51.96L38.94 43.87L37.18 51.96L35.42 60.05L37.18 68.14L38.94 76.22Z" stroke="black" stroke-width="0.25" stroke-miterlimit="10"/>
<path d="M38.94 49.41L41.26 60.05L38.94 70.69L36.63 60.05L38.94 49.41Z" stroke="black" stroke-width="0.25" stroke-miterlimit="10"/>
<path d="M65.53 65.24L61.05 58.28L56.56 51.31L49.58 46.84L42.6 42.36L47.09 49.32L51.58 56.28L58.56 60.76L65.53 65.24Z" stroke="black" stroke-width="0.25" stroke-miterlimit="10"/>
<path d="M46.53 46.27L55.71 52.16L61.61 61.32L52.43 55.43L46.53 46.27Z" stroke="black" stroke-width="0.25" stroke-miterlimit="10"/>
</svg>
