<svg width="83" height="83" viewBox="0 0 83 83" fill="none" xmlns="http://www.w3.org/2000/svg">
<path d="M79.2104 79.25L47.2504 61.12L60.3704 79.25L39.6304 58.27L41.5304 79.25L32.0104 55.42L22.6904 79.25L24.3904 52.56L3.86035 79.25L22.0104 47.33L3.86035 60.43L24.8704 39.73L3.86035 41.62L27.7204 32.12L3.86035 22.81L30.5804 24.51L3.86035 4L35.8104 22.13L22.6904 4L43.4304 24.98L41.5304 4L51.0504 27.83L60.3704 4L58.6704 30.68L79.2104 4L61.0504 35.91L79.2104 22.81L58.2004 43.52L79.2104 41.62L55.3404 51.13L79.2104 60.43L52.4904 58.74L79.2104 79.25Z" stroke="#00ff3c" strokeWidth="0.5" strokemitterlimit="50"/>
</svg>
