<svg width="77" height="76" viewBox="0 0 77 76" fill="none" xmlns="http://www.w3.org/2000/svg">
<path d="M36.56 31.13C37.2 30.96 37.86 30.87 38.52 30.88C37.8 33.12 37.68 35.47 38.19 37.69C37.12 35.71 36.56 33.41 36.56 31.13Z" fill="black"/>
<path d="M41.11 31.4C41.77 31.65 42.38 31.99 42.93 32.41C41.2 33.69 39.77 35.3 38.68 37.17C39.05 35.09 39.9 33.08 41.11 31.4Z" fill="black"/>
<path d="M44.62 34.28C44.97 34.82 45.25 35.41 45.45 36.03C43.21 36.06 40.95 36.67 38.94 37.86C40.59 36.19 42.55 34.97 44.62 34.28Z" fill="black"/>
<path d="M45.79 38.8C45.79 38.85 45.78 38.89 45.78 38.94C45.7 39.53 45.56 40.1 45.38 40.64C44.4 39.96 43.31 39.39 42.02 38.87C41.42 38.61 40.81 38.53 40.23 38.44C40.14 38.43 40.04 38.41 39.94 38.4C39.72 38.34 39.49 38.28 39.27 38.22C41.67 37.89 43.88 38.15 45.79 38.8Z" fill="black"/>
<path d="M44.09 42.98C43.66 43.51 43.16 43.98 42.61 44.36C41.88 42.12 40.57 40.12 38.82 38.62C40.89 39.6 42.73 41.14 44.09 42.98Z" fill="black"/>
<path d="M38.7 39.26C39.69 41.22 40.18 43.33 40.17 45.43C39.5 45.6 38.84 45.68 38.18 45.68C38.83 43.62 39.03 41.37 38.7 39.26Z" fill="black"/>
<path d="M38.24 38.85C37.81 40.96 36.93 43.22 35.52 45.16C34.92 44.91 34.36 44.58 33.85 44.16C35.61 42.84 37.1 41.05 38.24 38.85Z" fill="black"/>
<path d="M37.65 38.82C36.1 40.35 34.15 41.53 32.08 42.22C31.73 41.65 31.46 41.03 31.27 40.37C33.28 40.31 35.44 39.79 37.65 38.82Z" fill="black"/>
<path d="M37.2 38.21C37.37 38.24 37.54 38.27 37.72 38.29C35.9 38.5 33.43 38.54 31 37.84C31.01 37.55 31.04 37.25 31.09 36.95C31.16 36.59 31.26 36.24 31.38 35.9C32.09 36.39 32.85 36.81 33.67 37.18C34.01 37.35 34.4 37.48 34.78 37.6C35.15 37.72 35.53 37.85 35.87 38.02L35.89 38.03C36.32 38.11 36.7 38.16 37.08 38.2C37.11 38.2 37.15 38.2 37.2 38.21Z" fill="black"/>
<path d="M34.14 32.28C34.88 34.39 36.18 36.34 37.96 37.98C35.87 37 34.04 35.47 32.69 33.6C33.12 33.1 33.6 32.66 34.14 32.28Z" fill="black"/>
<path d="M38.76 23.28C38.8 23.28 38.83 23.28 38.87 23.28C37.01 25.41 36.17 28.1 36.15 30.79C35.49 30.98 34.87 31.25 34.28 31.62C33.96 30.52 33.77 29.4 33.75 28.28C33.72 26.66 34.02 25.16 34.63 23.82C34.83 23.77 35.03 23.73 35.24 23.7C36.4 23.5 37.58 23.28 38.76 23.28Z" fill="black"/>
<path d="M43.76 24.48C45.1 24.94 46.35 25.63 47.48 26.49C45.13 27.1 42.86 28.59 41.07 30.82L41.06 30.84C41.04 30.88 41.02 30.92 40.99 30.96C40.3 30.72 39.59 30.58 38.89 30.53C39.42 28.96 40.25 27.56 41.36 26.4C42.12 25.71 42.91 25.03 43.76 24.48Z" fill="black"/>
<path d="M50.92 30.26C51.68 31.44 52.29 32.75 52.73 34.15C51.67 33.75 50.51 33.52 49.26 33.48C48.85 33.45 48.44 33.45 48.03 33.47C46.91 33.5 45.81 33.68 44.74 33.99C44.35 33.39 43.9 32.85 43.41 32.39C44.18 31.84 45 31.35 45.88 30.94C47.36 30.36 49.05 30.13 50.92 30.26Z" fill="black"/>
<path d="M53.3 39.1C53.21 40.55 52.91 41.99 52.4 43.37C51.73 42.25 50.86 41.25 49.8 40.4C48.64 39.59 47.41 38.96 46.14 38.52C46.16 37.87 46.1 37.22 45.95 36.57C45.94 36.53 45.92 36.5 45.91 36.46C46.84 36.5 47.78 36.62 48.71 36.84C50.2 37.25 51.91 37.84 53.3 39.1Z" fill="black"/>
<path d="M47.65 43.22C48.8 44.61 49.55 46.16 49.89 47.73C48.96 48.85 47.88 49.83 46.68 50.64C46.69 50.45 46.69 50.26 46.68 50.08C46.71 48.97 46.55 47.82 46.19 46.67C45.83 45.38 45.24 44.15 44.48 43.04C44.57 42.93 44.66 42.83 44.75 42.71C45.08 42.2 45.34 41.69 45.55 41.17C46.31 41.73 47.02 42.41 47.65 43.22Z" fill="black"/>
<path d="M42.4 44.85C43.07 47.02 43.15 49.29 42.57 51.39C42.4 51.84 42.23 52.29 42.02 52.74C40.63 53.09 39.18 53.24 37.72 53.17C37.88 52.98 38.04 52.78 38.19 52.57C38.3 52.43 38.4 52.29 38.5 52.14C38.53 52.09 38.55 52.05 38.58 52.01C39.27 50.93 39.79 49.7 40.11 48.37C40.32 47.5 40.44 46.62 40.47 45.73C41.15 45.52 41.79 45.23 42.4 44.85Z" fill="black"/>
<path d="M76.01 38.47C76.01 42.37 75.38 46.21 74.1 49.86L73.18 50.32C72.33 50.49 71.64 50.84 70.99 51.16C69.27 51.7 67.41 51.86 65.63 51.67C66.82 49.27 67.69 46.71 68.21 44.06C68.29 43.67 68.35 43.28 68.41 42.88C71.18 42.3 73.85 40.79 76.01 38.47Z" fill="black"/>
<path d="M70.1 18.12C71.79 20.9 73.12 23.79 74.08 26.73C72.49 29.6 70.55 31.72 68.29 33.07C67.78 30.23 66.85 27.48 65.52 24.94L65.5 24.92C65.44 24.86 65.44 24.75 65.44 24.64C65.44 24.57 65.44 24.5 65.43 24.43C65.46 24.4 65.48 24.38 65.51 24.35C66.62 23.09 67.48 21.63 68.22 19.78C68.48 19.26 68.57 18.66 68.65 18.07C68.72 17.58 68.79 17.09 68.96 16.65C69.17 16.96 69.39 17.28 69.59 17.6L70.1 18.12Z" fill="black"/>
<path d="M68.13 33.57C68.62 36.58 68.62 39.64 68.12 42.65C67.96 42.68 67.79 42.71 67.63 42.73C65.67 42.93 63.12 42.83 60.86 41.63C61.23 39.42 61.1 37.13 60.97 34.89L60.96 34.87C60.95 34.85 60.95 34.83 60.94 34.81C62.19 35.05 63.48 35.06 64.78 34.81C65.97 34.55 67.09 34.13 68.13 33.57Z" fill="black"/>
<path d="M68.52 60.64C68.32 60.92 68.12 61.19 67.9 61.47C65.98 63.95 64.32 65.66 62.35 67.18C61.69 67.62 61.05 68.06 60.44 68.5C57.4 68.16 54.61 66.96 52.47 65.09C54.62 63.96 56.67 62.56 58.58 60.91C59.03 60.52 59.46 60.11 59.88 59.69C61.62 60.45 63.6 60.85 65.75 60.85C66.64 60.86 67.57 60.78 68.52 60.64Z" fill="black"/>
<path d="M64.94 51.91C64.93 51.97 64.93 52.03 64.93 52.1C64.93 52.21 64.93 52.32 64.87 52.38L64.85 52.4C63.48 54.95 61.81 57.24 59.88 59.22C59.13 58.88 58.43 58.47 57.79 58C56.36 56.96 55.3 55.7 54.64 54.26C55.25 53.65 55.84 53 56.39 52.31C56.73 51.8 57.03 51.33 57.32 50.88C57.61 50.43 57.91 49.95 58.25 49.45C58.38 49.24 58.5 49.02 58.62 48.8C59.46 49.61 60.53 50.34 61.86 51C62.85 51.44 63.88 51.74 64.94 51.91Z" fill="black"/>
<path d="M64.99 24.37C64.64 24.74 64.27 25.09 63.87 25.42C62.29 26.77 60.51 27.58 58.61 27.82C57.99 26.66 57.26 25.5 56.39 24.25C55.85 23.57 55.28 22.93 54.68 22.32C55.9 21.76 56.93 20.97 57.75 19.97C57.92 19.72 58.13 19.47 58.33 19.22C58.54 18.97 58.76 18.71 58.93 18.45C59.18 18.02 59.41 17.58 59.62 17.13C60.51 18.02 61.36 18.96 62.16 19.96C62.41 20.38 62.67 20.73 62.92 21.06C63.17 21.39 63.42 21.73 63.68 22.15C64.15 22.88 64.59 23.62 64.99 24.37Z" fill="black"/>
<path d="M60.48 7.95001C60.95 11.39 60.64 14.25 59.51 16.64C57.27 14.47 54.74 12.66 52.02 11.26C52.39 8.24001 51.75 5.18001 50.12 2.73001C53.92 3.96001 57.39 5.72001 60.48 7.95001Z" fill="black"/>
<path d="M60.46 33.92C60.49 34.09 60.52 34.27 60.54 34.44C58.58 34.01 56.78 33 55.37 31.49L55.35 31.47C54.02 30.69 52.59 30.21 51.14 30.01C50.4 28.87 49.5 27.83 48.44 26.93C48.37 26.85 48.33 26.78 48.29 26.7V26.69C50.36 26.35 52.46 26.91 53.93 27.4C55.39 27.98 56.89 28.22 58.33 28.12C58.43 28.36 58.52 28.6 58.61 28.85C58.62 28.98 58.74 29.04 58.83 29.08C58.9 29.12 58.95 29.14 58.95 29.17L58.96 29.2C59.11 29.65 59.28 30.11 59.44 30.56C59.82 31.64 60.23 32.74 60.46 33.92Z" fill="black"/>
<path d="M60.59 41.8C60.51 42.3 60.42 42.79 60.31 43.28C60.31 43.29 60.31 43.29 60.3 43.3V43.32C60.16 43.93 59.99 44.53 59.8 45.14C59.75 45.25 59.67 45.36 59.6 45.47C59.45 45.7 59.29 45.94 59.29 46.18C59.19 46.91 58.88 47.58 58.55 48.22C57.8 47.33 57.26 46.3 56.93 45.16C56.32 43.1 55.45 40.83 53.63 39.08C53.7 37.59 53.55 36.09 53.18 34.65C54.58 35.29 55.6 36.17 56.27 37.32C57.34 38.94 58.68 40.66 60.59 41.8Z" fill="black"/>
<path d="M54.06 53.99C54.1 54.04 54.13 54.09 54.16 54.14C53.98 54.3 53.8 54.46 53.61 54.61C53.24 54.93 52.88 55.23 52.55 55.56C51.39 56.56 50.19 57.4 48.89 58.1C48.73 56.42 48.97 54.72 49.64 53.13C50.34 51.44 50.52 49.63 50.23 47.88C51.11 46.78 51.85 45.55 52.44 44.19C53.69 46.48 53.52 48.98 53.36 51.41C53.36 51.93 53.55 52.45 53.73 52.95C53.85 53.28 53.97 53.62 54.04 53.95L54.06 53.99Z" fill="black"/>
<path d="M54.09 22.19C53.29 22.54 52.46 22.77 51.59 22.86C50.92 22.91 50.22 22.9 49.54 22.9C47.66 22.89 45.71 22.88 43.95 23.89C43.91 23.92 43.86 23.95 43.82 23.98C43.57 23.86 43.3 23.77 43.01 23.71C41.91 23.36 40.8 23.13 39.69 23.02C40.41 22.33 41.24 21.77 42.18 21.34C42.92 21 43.69 20.75 44.44 20.51C45.92 20.03 47.32 19.58 48.45 18.46C48.51 18.4 48.58 18.33 48.64 18.27C50.56 19.24 52.38 20.55 54.09 22.19Z" fill="black"/>
<path d="M51.54 64.61C51.66 64.73 51.79 64.86 51.92 64.98C50.16 65.83 48.3 66.51 46.35 67C46.24 67.01 46.14 67.1 46.05 67.19C45.99 67.25 45.9 67.33 45.84 67.33L45.1 67.46C44.49 67.57 43.89 67.68 43.29 67.78C43.21 67.64 43.13 67.51 43.06 67.37C41.97 65.19 41.62 62.88 42.02 60.73C44.3 60.35 46.52 59.62 48.61 58.58C48.83 60.16 49.42 61.7 50.35 63.09C50.86 63.6 51.2 64.11 51.54 64.61Z" fill="black"/>
<path d="M51.75 11.46C51.73 11.64 51.71 11.82 51.68 12C51.68 12.14 51.6 12.26 51.52 12.37C51.44 12.5 51.34 12.64 51.34 12.83C51.19 14.67 50.18 15.95 49.1 17.31C49.01 17.43 48.91 17.55 48.82 17.66C48.74 17.75 48.66 17.83 48.58 17.9C48.03 17.63 47.47 17.37 46.89 17.13C45.7 16.62 44.33 16.28 42.99 15.95C42.68 15.88 42.37 15.82 42.07 15.77C42.11 15.7 42.15 15.63 42.2 15.56C43.22 13.52 43.52 11.11 43.08 8.67999C44.55 8.91999 46.02 9.26001 47.5 9.70001C48.98 10.2 50.39 10.78 51.75 11.46Z" fill="black"/>
<path d="M49.73 74C47.79 74.61 45.72 75.08 43.48 75.42C41.79 75.67 40.12 75.8 38.45 75.81L38.48 75.77C36.25 73.85 34.65 71.1 34.03 68.23C35.54 68.44 37.1 68.55 38.76 68.55C39.37 68.55 39.99 68.54 40.62 68.51C41.47 68.44 42.31 68.34 43.15 68.21C44.62 70.71 46.87 72.7 49.73 74Z" fill="black"/>
<path d="M46.39 51.31C46.21 52.38 45.84 53.42 45.28 54.41C44.9 55.03 44.45 55.63 44.01 56.2C43.01 57.52 42.06 58.78 41.79 60.43C39.54 60.76 37.29 60.77 35.11 60.46C35.56 59.71 36.12 59.01 36.79 58.38C37.37 57.87 38 57.45 38.61 57.05C39.64 56.36 40.62 55.72 41.37 54.66C41.75 54.09 42.06 53.55 42.32 53.01H42.33C43.78 52.65 45.14 52.08 46.39 51.31Z" fill="black"/>
<path d="M41.61 16.09C41.59 16.12 41.58 16.14 41.57 16.17C40.81 17.46 39.66 18.25 38.44 19.09C37.79 19.53 37.12 19.99 36.52 20.54C35.6 21.45 34.9 22.43 34.41 23.46C33.02 23.83 31.68 24.4 30.43 25.16C30.58 24.19 30.88 23.18 31.41 22.16C33.42 20.03 34.44 17.99 34.86 16.14C36.04 15.95 37.23 15.86 38.41 15.86C39.48 15.86 40.55 15.94 41.61 16.09Z" fill="black"/>
<path d="M42.6 8.25C42 8.16 41.4 8.10001 40.8 8.04001C38.34 7.84001 35.87 7.94001 33.47 8.32001C32.08 5.91001 29.88 3.86999 27.16 2.48999C30.82 1.37999 34.54 0.800004 38.2 0.770004C40.43 2.72 41.95 5.33 42.6 8.25Z" fill="black"/>
<path d="M37.81 45.97C37.39 47.16 36.81 48.27 36.09 49.24C35.16 50.5 34.05 51.47 32.79 52.14C32.54 52.05 32.29 51.95 32.05 51.84C30.98 51.33 29.98 50.7 29.08 49.99C30.66 49.62 32.21 48.87 33.59 47.77C34.41 47.1 35.13 46.34 35.76 45.51C35.85 45.54 35.95 45.57 36.04 45.6C36.65 45.78 37.23 45.91 37.81 45.97Z" fill="black"/>
<path d="M37.18 53.45C36.43 54.17 35.55 54.76 34.51 55.22C33.84 55.56 33.16 55.77 32.5 55.97C31.83 56.18 31.14 56.39 30.47 56.73C29.58 57.12 28.78 57.63 28.07 58.24C26.63 57.51 25.25 56.61 23.97 55.56C23.51 55.17 23.06 54.76 22.64 54.34C24.22 53.66 25.86 53.62 27.57 53.59C28.14 53.58 28.74 53.57 29.32 53.53C30.64 53.44 31.88 53.07 33 52.46C33.22 52.54 33.45 52.62 33.68 52.69C34.9 53.08 36.07 53.34 37.18 53.45Z" fill="black"/>
<path d="M34.3 11.02C34.8 12.59 34.88 14.2 34.55 15.77C34.49 15.78 34.43 15.78 34.37 15.79L34.35 15.8C33.94 15.97 33.47 16.05 33.02 16.13C32.56 16.21 32.08 16.3 31.66 16.47C30.45 16.86 29.28 17.35 28.17 17.91C28.1 17.23 27.95 16.54 27.71 15.85C27.07 14.22 26.04 12.75 24.72 11.52C24.88 11.47 25.14 11.56 25.31 11.4C27.79 10.07 30.49 9.17 33.31 8.69C33.72 9.43 34.05 10.21 34.3 11.02Z" fill="black"/>
<path d="M33.45 66.42C33.52 66.89 33.61 67.36 33.7 67.81C31.3 67.47 28.99 66.83 26.65 65.83C26.22 65.57 25.79 65.4 25.37 65.24C25.25 65.19 25.12 65.14 25 65.09C25.35 62.6 26.42 60.43 27.84 58.89C27.93 58.8 28.03 58.7 28.13 58.62C29.2 59.15 30.32 59.59 31.47 59.93C32.49 60.28 33.54 60.55 34.6 60.74C33.75 62.43 33.34 64.4 33.45 66.42Z" fill="black"/>
<path d="M31.94 42.53C32.35 43.14 32.81 43.67 33.31 44.11C32.77 44.48 32.22 44.81 31.64 45.1C29.77 46.03 27.97 46.42 26.28 46.27C26.07 46.26 25.87 46.23 25.66 46.21C24.93 45.05 24.36 43.79 23.99 42.46C23.98 42.43 23.98 42.4 23.97 42.37C24.31 42.51 24.68 42.63 25.07 42.73C26.07 43 27.09 43.13 28.12 43.13C29.4 43.14 30.69 42.93 31.94 42.53Z" fill="black"/>
<path d="M32.23 33.54C31.8 34.12 31.46 34.73 31.21 35.35C30.11 34.5 29.14 33.49 28.39 32.37C27.76 31.43 27.14 30.18 26.87 28.71C27.71 27.71 28.72 26.87 29.7 26.06C29.78 26.01 29.87 25.95 29.96 25.9C29.82 27.52 30.07 29.18 30.72 30.81C31.09 31.77 31.61 32.68 32.23 33.54Z" fill="black"/>
<path d="M30.75 38.28C30.75 38.82 30.75 39.44 30.84 40.05C28.86 40.03 26.98 39.58 25.3 38.71C24.62 38.37 24.01 37.87 23.43 37.32C23.51 35.87 23.8 34.48 24.31 33.15C24.81 33.93 25.44 34.7 26.22 35.48L26.24 35.5C26.4 35.58 26.52 35.66 26.65 35.75C26.69 35.78 26.73 35.8 26.77 35.83C27.2 36.19 27.67 36.52 28.16 36.81C28.95 37.33 29.81 37.74 30.74 38.05C30.74 38.12 30.74 38.2 30.75 38.28Z" fill="black"/>
<path d="M27.9 18.37C27.96 18.97 27.95 19.59 27.88 20.25C27.71 21.25 27.41 22.15 27.12 23.02C26.83 23.89 26.53 24.8 26.36 25.82C26.25 26.79 26.28 27.74 26.44 28.65C25.51 29.79 24.76 31.03 24.2 32.35C23.7 31.37 23.4 30.36 23.32 29.36C23.32 28.98 23.33 28.6 23.33 28.21C23.36 26.23 23.39 24.19 22.52 22.3C24.11 20.72 25.92 19.39 27.9 18.37Z" fill="black"/>
<path d="M28.46 49.82C26.22 50.17 24 49.55 21.92 48.81H21.91C20.77 48.35 19.53 48.19 18.26 48.32C17.28 46.35 16.58 44.24 16.2 42.04C16.8 42.16 17.39 42.34 17.96 42.56C19.12 43.2 20.07 43.94 21.08 44.71C21.38 44.94 21.69 45.18 22.01 45.42C23.15 46.03 24.35 46.42 25.58 46.58C26.39 47.8 27.36 48.89 28.46 49.82Z" fill="black"/>
<path d="M24.71 65.26C24.3 68.52 24.94 71.45 26.57 73.82C24.61 73.13 22.67 72.27 20.76 71.22C20.56 71.03 20.22 71.19 20.09 71.06L20.07 71.04C18.73 70.32 17.45 69.51 16.2 68.58L16.23 68.57C15.68 65.18 16.19 62.31 17.23 60.02C19.38 62.11 21.86 63.84 24.71 65.26Z" fill="black"/>
<path d="M23.15 39.97C23.22 40.6 23.34 41.22 23.49 41.84C22.73 41.45 22.02 40.95 21.38 40.35C21 39.97 20.64 39.55 20.29 39.13C20.03 38.8 19.78 38.46 19.54 38.12C18.65 36.9 17.73 35.64 16.36 34.84C16.29 34.8 16.22 34.77 16.15 34.73C16.51 32.51 17.21 30.35 18.22 28.32C18.92 29.1 19.52 30.05 19.96 31.24C20.16 31.77 20.31 32.32 20.46 32.85C20.68 33.65 20.91 34.48 21.32 35.29C21.76 36.09 22.34 36.8 23.08 37.44C23.02 38.27 23.05 39.12 23.15 39.97Z" fill="black"/>
<path d="M22.15 54.25C21.25 54.68 20.44 55.21 19.63 55.9C18.58 56.9 17.72 58.11 17.09 59.46C15 57.37 13.21 54.93 11.74 52.17C12.38 51.49 13.08 50.88 13.84 50.37C14.9 49.65 16.36 48.92 18.11 48.69C19.19 50.75 20.55 52.63 22.15 54.25Z" fill="black"/>
<path d="M16.28 7.91C19.53 8.55 22.13 9.69 24.14 11.38C21.4 12.82 18.92 14.68 16.79 16.89C14.1 15.59 11.02 15.25 8.09998 16.05C10.44 12.9 13.2 10.16 16.28 7.91Z" fill="black"/>
<path d="M18.29 18.14C19.78 19.18 21.41 20.43 22.17 22.26C20.55 23.89 19.19 25.75 18.16 27.78C16.77 26.35 14.99 25.34 12.89 24.84C12.49 24.75 12.09 24.67 11.69 24.62C13.05 21.92 14.63 19.64 16.55 17.62C16.65 17.51 16.75 17.41 16.86 17.3C17.35 17.55 17.83 17.82 18.29 18.14Z" fill="black"/>
<path d="M15.84 34.83C15.44 37.4 15.46 39.65 15.87 41.73C14.33 41.49 12.7 41.6 11.08 42.07C10.75 42.16 10.43 42.27 10.12 42.39C9.65999 42.57 9.20999 42.77 8.76999 42.99C8.56999 41.56 8.46999 40.05 8.46999 38.45C8.39999 36.99 8.47999 35.47 8.71999 33.86C9.16999 33.77 9.62999 33.69 10.08 33.65C12.25 33.51 14.23 33.93 15.84 34.83Z" fill="black"/>
<path d="M2.60999 26.68C5.12999 25.23 8.27999 24.64 11.23 24.97C9.67999 27.68 8.99999 30.4 8.48999 33.6C5.58999 34.2 2.87999 35.72 0.769989 37.99C0.779989 37.14 0.809989 36.29 0.869989 35.42C1.07999 32.45 1.66999 29.51 2.60999 26.68Z" fill="black"/>
<path d="M8.62999 44.53C9.20999 47.25 10.08 49.68 11.35 52.08C9.42999 54.17 8.17999 56.83 7.65999 59.93C5.66999 57.1 4.02999 53.81 2.60999 49.84C2.89999 49.42 3.14999 48.97 3.40999 48.49C3.86999 47.66 4.33999 46.81 5.05999 46.08C5.99999 45.25 7.16999 44.27 8.44999 43.46C8.50999 43.82 8.56999 44.17 8.62999 44.53Z" fill="black"/>
</svg>
