<svg width="76" height="76" viewBox="0 0 76 76" fill="none" xmlns="http://www.w3.org/2000/svg">
<path d="M73.2995 38.2501L75.6095 37.1401L72.9895 37.0201L56.1395 36.2501C55.8295 32.3001 54.2595 28.69 51.8295 25.85L61.9995 14.9501L62.6995 26.5801L63.5795 12.9301L63.7095 10.85L62.1295 12.3201L49.7895 23.8C46.9395 21.37 43.3295 19.8001 39.3695 19.4901L38.7095 5.22003L44.7595 15.2501L38.5195 2.36005L37.3995 0.0600586L37.2795 2.68005L36.5095 19.5001C32.5495 19.8101 28.9395 21.3701 26.0895 23.8101L15.1795 13.66L26.8195 12.9601L13.1495 12.0901L11.0695 11.9601L12.5495 13.54L24.0495 25.86C21.6095 28.71 20.0395 32.3101 19.7395 36.2601L5.44952 36.91L15.4895 30.8701L2.57953 37.1L0.269531 38.2101L2.88953 38.3301L19.7395 39.1C20.0495 43.05 21.6195 46.6601 24.0495 49.5001L13.8795 60.4001L13.1795 48.7701L12.2995 62.42L12.1695 64.5001L13.7495 63.0301L26.0895 51.55C28.9395 53.98 32.5495 55.55 36.5095 55.86L37.1695 70.1301L31.1195 60.1L37.3595 73.0001L38.4795 75.3L38.5995 72.6801L39.3695 55.85C43.3295 55.54 46.9395 53.98 49.7895 51.54L60.6995 61.6901L49.0595 62.3901L62.7295 63.2601L64.8095 63.3901L63.3295 61.8101L51.8295 49.4901C54.2695 46.6401 55.8395 43.0401 56.1395 39.0901L70.4295 38.4401L60.3895 44.48L73.2995 38.2501ZM37.9295 52.9401C29.4995 52.9401 22.6395 46.09 22.6395 37.67C22.6395 29.25 29.4995 22.4001 37.9295 22.4001C46.3595 22.4001 53.2195 29.25 53.2195 37.67C53.2195 46.09 46.3595 52.9401 37.9295 52.9401Z" fill="black"/>
</svg>
