<svg width="81" height="42" viewBox="0 0 81 42" fill="none" xmlns="http://www.w3.org/2000/svg">
<path d="M40.76 41.79C19.4 41.79 2.47001 23.34 1.76001 22.55L0.619995 21.29L1.76001 20.03C2.47001 19.24 19.4 0.790009 40.76 0.790009C62.12 0.790009 79.05 19.24 79.76 20.03L80.9 21.29L79.76 22.55C79.05 23.34 62.12 41.79 40.76 41.79ZM5.79001 21.3C9.96001 25.39 24.2 38.04 40.77 38.04C57.34 38.04 71.58 25.39 75.75 21.3C71.58 17.21 57.35 4.56 40.77 4.56C24.19 4.55 9.95001 17.21 5.79001 21.3Z" fill="#00ff3c"/>
<path d="M52.05 21.3C52.05 27.52 46.99 32.56 40.76 32.56C34.53 32.56 29.47 27.51 29.47 21.3C29.47 15.07 34.53 10.04 40.76 10.04C41.92 10.04 43.04 10.21 44.09 10.55C42.12 11.42 40.76 13.38 40.76 15.67C40.76 18.78 43.29 21.3 46.41 21.3C48.7 21.3 50.68 19.93 51.56 17.97C51.88 19.03 52.05 20.15 52.05 21.3Z" fill="#00ff3c"/>
</svg>
