<svg width="76" height="36" viewBox="0 0 76 36" fill="none" xmlns="http://www.w3.org/2000/svg">
<path d="M64.61 17H64.6C64.58 17 64.56 17 64.55 17.01L64.29 18.37C64.51 18.04 64.73 17.71 64.92 17.34L64.61 17Z" fill="#00ff3c"/>
<path d="M61.24 16.61C61.22 16.6 61.21 16.59 61.19 16.58L56.14 20.01C53.37 22.2 50.16 24.01 46.85 25.59C40.19 28.72 33 30.93 25.67 32.23C22.01 32.86 18.29 33.25 14.58 33.2C12.73 33.17 10.88 33.05 9.08001 32.72C7.29001 32.39 5.50001 31.88 4.02001 30.95C3.29001 30.48 2.66001 29.88 2.26001 29.16C1.85001 28.44 1.73001 27.59 1.84001 26.75C1.96001 25.9 2.29001 25.06 2.77001 24.28C3.23001 23.5 3.80001 22.77 4.43001 22.08C6.97001 19.35 10.17 17.25 13.46 15.4C10.07 17.06 6.75001 18.97 3.97001 21.64C3.28001 22.31 2.64001 23.04 2.10001 23.86C1.54001 24.66 1.10001 25.58 0.900014 26.59C0.700014 27.59 0.790014 28.71 1.26001 29.67C1.72001 30.63 2.47001 31.41 3.29001 32C4.96001 33.18 6.86001 33.82 8.75001 34.28C10.65 34.74 12.58 34.97 14.5 35.11C18.36 35.37 22.21 35.19 26.03 34.75C33.66 33.83 41.18 31.99 48.39 29.09C51.98 27.62 55.52 25.9 58.82 23.58C59.55 23.06 60.27 22.51 60.97 21.91L61.24 16.61Z" fill="#00ff3c"/>
<path d="M64.88 0.170013L64.44 9.07001C64.6 9.76001 65.31 10.16 65.98 9.92999L73.36 4.91L66.74 10.89C66.36 11.49 66.59 12.28 67.22 12.59L76 14.25L67.08 13.81C66.39 13.97 65.99 14.68 66.21 15.35L71.24 22.72L65.24 16.11C64.64 15.73 63.85 15.96 63.54 16.59L61.87 25.35L62.31 16.45C62.15 15.76 61.44 15.36 60.77 15.59L53.39 20.61L60.01 14.63C60.39 14.03 60.16 13.24 59.53 12.93L50.75 11.27L59.67 11.71C60.36 11.55 60.76 10.84 60.54 10.17L55.51 2.79999L61.51 9.41C62.11 9.79 62.9 9.55999 63.21 8.92999L64.88 0.170013Z" fill="#00ff3c"/>
</svg>
