<svg width="76" height="76" viewBox="0 0 76 76" fill="none" xmlns="http://www.w3.org/2000/svg">
<path d="M38.23 37.68C35.05 33.61 31.88 29.52 25.64 28.51C23.13 32.01 22.32 35.89 22.84 39.82C27.97 36.51 33.1 37 38.23 37.68Z" fill="black"/>
<path d="M38.23 37.68C41.41 41.75 44.57 45.83 50.81 46.85C53.32 43.35 54.13 39.48 53.62 35.54C48.49 38.84 43.36 38.36 38.23 37.68Z" fill="black"/>
<path d="M38.23 37.68C42.31 34.51 46.39 31.35 47.41 25.12C43.91 22.62 40.04 21.81 36.09 22.32C39.4 27.43 38.91 32.55 38.23 37.68Z" fill="black"/>
<path d="M40.37 53.04C37.07 47.92 37.55 42.79 38.23 37.67C34.15 40.84 30.07 44 29.05 50.23C32.55 52.74 36.43 53.56 40.37 53.04Z" fill="black"/>
<path d="M69.05 16.06C62.65 6.96 52.63 1.18002 41.57 0.210022C40.51 0.110022 39.38 0.0599976 38.22 0.0599976C30.41 0.0599976 22.92 2.43002 16.56 6.90002C7.45 13.31 1.67001 23.31 0.700012 34.34C0.600012 35.4 0.549988 36.52 0.549988 37.68C0.549988 45.47 2.92002 52.95 7.40002 59.3C13.81 68.41 23.82 74.18 34.87 75.15C35.93 75.25 37.05 75.3 38.22 75.3C46.03 75.3 53.52 72.93 59.88 68.46C68.99 62.06 74.77 52.05 75.74 41.02C75.84 39.96 75.89 38.84 75.89 37.68C75.9 29.88 73.53 22.41 69.05 16.06ZM34.99 74C34.88 73.99 34.77 73.97 34.66 73.96C29.48 62.75 28.2 55.42 29.05 50.24C25.56 47.72 23.35 43.74 22.85 39.81C17.96 42.75 13.09 49.46 8.20001 58.39C3.96001 52.29 1.71997 45.13 1.71997 37.68C1.71997 36.56 1.77 35.47 1.87 34.44C1.88 34.33 1.89997 34.22 1.90997 34.11C13.12 28.95 20.47 27.66 25.65 28.51C28.17 25.01 32.17 22.82 36.11 22.31C33.16 17.43 26.42 12.56 17.49 7.67999C23.6 3.44999 30.77 1.20001 38.24 1.20001C39.36 1.20001 40.45 1.24998 41.48 1.34998C41.59 1.35998 41.7 1.38001 41.81 1.39001C46.99 12.6 48.27 19.93 47.42 25.11C50.91 27.63 53.12 31.61 53.62 35.54C58.51 32.6 63.38 25.89 68.27 16.96C72.51 23.06 74.75 30.22 74.75 37.67C74.75 38.79 74.7 39.88 74.6 40.91C74.59 41.02 74.57 41.13 74.56 41.24C63.34 46.41 55.99 47.69 50.81 46.84C48.29 50.34 44.29 52.53 40.37 53.04C43.31 57.92 50.04 62.8 58.98 67.67C52.87 71.9 45.7 74.15 38.23 74.15C37.1 74.15 36.01 74.1 34.99 74Z" fill="black"/>
</svg>
