<svg width="78" height="46" viewBox="0 0 78 46" fill="none" xmlns="http://www.w3.org/2000/svg">
<path d="M13.51 1.69001L31.67 6.57001C32.71 6.85001 33.48 7.71998 33.62 8.78998L35.91 25.83C36.26 28.4 33.09 29.9 31.32 28L10.87 6.08002C9.04 4.12002 10.92 1.00001 13.51 1.69001Z" stroke="#00ff3c" strokeWidth="1.7" strokemitterlimit="10"/>
<path d="M11.69 17.4L18.55 31.28C18.8 31.78 18.62 32.38 18.14 32.67L2.03 42.28C0.959999 42.92 1.67 44.56 2.87 44.22L30.24 36.51C31.01 36.29 31.27 35.34 30.73 34.76L13.42 16.2C12.59 15.31 11.14 16.3 11.69 17.4Z" stroke="#00ff3c" strokeWidth="1.7" strokemitterlimit="10"/>
<path d="M64.86 1.69001L46.7 6.57001C45.66 6.85001 44.89 7.71998 44.75 8.78998L42.46 25.83C42.11 28.4 45.28 29.9 47.05 28L67.5 6.08002C69.33 4.12002 67.45 1.00001 64.86 1.69001Z" stroke="#00ff3c" strokeWidth="1.7" strokemitterlimit="10"/>
<path d="M66.68 17.4L59.82 31.28C59.57 31.78 59.75 32.38 60.23 32.67L76.34 42.28C77.41 42.92 76.7 44.56 75.5 44.22L48.13 36.51C47.36 36.29 47.1 35.34 47.64 34.76L64.95 16.2C65.78 15.31 67.22 16.3 66.68 17.4Z" stroke="#00ff3c" strokeWidth="1.7" strokemitterlimit="10"/>
</svg>
