<svg width="79" height="81" viewBox="0 0 79 81" fill="none" xmlns="http://www.w3.org/2000/svg">
<path d="M38.2995 3.38989C30.9495 11.0099 25.5795 22.4999 31.7195 32.4499C30.9495 20.9699 40.1595 9.47989 51.6695 6.41989C41.6895 10.2499 34.7895 19.4399 35.5495 30.1499C39.3895 17.8999 53.1995 11.7799 65.4795 14.0699C53.9695 13.2999 42.4595 18.6599 39.3895 30.1499C47.8295 20.1999 63.1795 18.6699 73.9195 25.5599C64.7095 20.9699 51.6695 20.9699 44.7595 30.1499C56.2695 26.3199 70.0795 30.1499 76.9895 40.0999C69.3195 32.4399 57.7995 27.0799 47.8295 33.2099C59.3395 32.4399 70.8495 41.6299 73.9195 53.1199C70.8495 43.1699 60.1095 34.7499 49.3595 37.0399C61.6395 40.8699 69.3095 54.6499 66.2395 66.8999C67.0095 55.4199 61.6395 43.9299 50.1195 40.8699C60.0995 49.2899 61.6295 64.5999 54.7195 75.3199C57.7895 66.1299 59.3195 52.3499 49.3495 46.2299C54.7195 57.7099 50.1195 71.4999 40.1395 78.3899C47.8095 70.7299 53.1895 59.2499 47.0495 49.2999C47.8195 60.7799 38.6095 72.2699 27.0995 75.3299C37.0795 72.2699 45.5195 61.5499 43.2195 50.8299C39.3795 63.0799 25.5695 70.7399 13.2895 67.6699C24.0295 68.4399 35.5395 63.0799 38.6095 52.3599C30.1695 61.5499 14.8195 62.3099 4.83953 56.1899C14.0495 59.2499 27.8595 60.7799 33.9995 50.8299C22.4895 56.1899 8.67953 51.5999 1.76953 41.6399C9.43953 49.2999 20.9595 54.6599 30.9295 48.5299C18.6495 48.5299 7.90953 40.1099 4.83953 27.8599C7.91953 38.5699 17.8995 46.9999 29.4095 44.6999C16.3595 41.6399 10.9895 28.6199 11.7595 16.3699C12.5295 26.3199 17.1295 37.0399 27.8795 40.0999C18.6695 31.6799 18.6695 17.1299 24.0395 6.4099C20.9695 15.5999 19.4395 29.3799 29.4095 35.4999C24.8095 26.3099 27.8795 15.5899 33.4495 8.02989C36.1895 5.16989 38.2995 3.38989 38.2995 3.38989Z" stroke="#00ff3c" strokeWidth="0.5" strokemitterlimit="50"/>
</svg>
