<svg width="76" height="76" viewBox="0 0 76 76" fill="none" xmlns="http://www.w3.org/2000/svg">
<path d="M23.14 68.43H11.7C7.73003 68.43 4.17002 66.38 2.19002 62.95C0.200016 59.52 0.210016 55.42 2.19002 51.99L15.36 29.23L23.61 33.98L10.44 56.75C10.07 57.38 10.28 57.93 10.44 58.2C10.6 58.47 10.97 58.93 11.7 58.93H23.15V68.43H23.14Z" fill="black"/>
<path d="M28.73 38.72L8.67999 27.17L24.49 22.95L28.73 38.72Z" fill="black"/>
<path d="M52.73 33.54L39.56 10.78C39.19 10.15 38.61 10.05 38.3 10.05C37.99 10.05 37.4 10.14 37.04 10.78L31.32 20.67L23.07 15.92L28.79 6.02998C30.78 2.59998 34.33 0.549988 38.3 0.549988C42.27 0.549988 45.83 2.59998 47.81 6.02998L60.98 28.79L52.73 33.54Z" fill="black"/>
<path d="M46.06 35.6L66.11 24.05L61.87 39.82L46.06 35.6Z" fill="black"/>
<path d="M64.9 68.43H38.55V58.92H64.9C65.63 58.92 66 58.47 66.16 58.19C66.32 57.92 66.53 57.37 66.16 56.74L60.44 46.85L68.69 42.1L74.41 51.99C76.4 55.42 76.4 59.52 74.41 62.95C72.43 66.38 68.87 68.43 64.9 68.43Z" fill="black"/>
<path d="M40.1 52.13V75.23L28.53 63.68L40.1 52.13Z" fill="black"/>
</svg>
