<svg width="77" height="51" viewBox="0 0 77 51" fill="none" xmlns="http://www.w3.org/2000/svg">
<path d="M76.1 12.92C76.1 19.51 70.73 24.86 64.14 24.86C56.6 24.86 50.47 30.98 50.47 38.49C50.47 45.08 45.1 50.43 38.5 50.43C31.91 50.43 26.54 45.07 26.54 38.49C26.54 31.91 31.91 26.56 38.5 26.56C46.04 26.56 52.17 20.44 52.17 12.92C52.17 6.34003 57.54 0.990004 64.14 0.990004C70.73 0.980004 76.1 6.34003 76.1 12.92Z" fill="#00ff3c"/>
<path d="M76.1 12.92C76.1 19.51 70.73 24.86 64.14 24.86C56.6 24.86 50.47 30.98 50.47 38.49C50.47 45.08 45.1 50.43 38.5 50.43C31.91 50.43 26.54 45.07 26.54 38.49C26.54 31.91 31.91 26.56 38.5 26.56C46.04 26.56 52.17 20.44 52.17 12.92C52.17 6.34003 57.54 0.990004 64.14 0.990004C70.73 0.980004 76.1 6.34003 76.1 12.92Z" fill="#00ff3c"/>
<path d="M50.47 12.92C50.47 19.51 45.1 24.86 38.5 24.86C30.96 24.86 24.84 30.98 24.84 38.49C24.84 45.08 19.47 50.43 12.87 50.43C6.27999 50.43 0.910004 45.07 0.910004 38.49C0.910004 31.91 6.27999 26.56 12.87 26.56C20.41 26.56 26.54 20.44 26.54 12.92C26.54 6.34003 31.91 0.990004 38.5 0.990004C45.1 0.980004 50.47 6.34003 50.47 12.92Z" fill="#00ff3c"/>
<path d="M50.47 12.92C50.47 19.51 45.1 24.86 38.5 24.86C30.96 24.86 24.84 30.98 24.84 38.49C24.84 45.08 19.47 50.43 12.87 50.43C6.27999 50.43 0.910004 45.07 0.910004 38.49C0.910004 31.91 6.27999 26.56 12.87 26.56C20.41 26.56 26.54 20.44 26.54 12.92C26.54 6.34003 31.91 0.990004 38.5 0.990004C45.1 0.980004 50.47 6.34003 50.47 12.92Z" fill="#00ff3c"/>
</svg>
