<svg width="77" height="77" viewBox="0 0 77 77" fill="none" xmlns="http://www.w3.org/2000/svg">
<path d="M38.23 0.99999C18.43 1.18999 0.589973 18.69 0.559973 38.62C0.529973 57.76 19.2 76.04 38.23 76.24C58.59 76.46 75.93 58.74 75.9 38.62C75.88 17.67 59.34 0.79999 38.23 0.99999Z" stroke="#00ff3c" strokeWidth="0.5" strokemitterlimit="50"/>
<path d="M70.64 37.75C70.68 54.22 55.39 68.74 39.24 69.1C23.3 69.46 7.86003 52.66 7.84003 37.75C7.83003 22.23 22.46 5.99998 39.24 6.39998C56.25 6.79998 70.6 20.64 70.64 37.75Z" stroke="#00ff3c" strokeWidth="0.5" strokemitterlimit="50"/>
<path d="M41.64 10.63C28.11 10.62 16.52 22.62 16.52 35.71C16.52 48.44 28.8 60.78 41.64 60.79C54.92 60.8 66.77 49.25 66.76 35.71C66.75 21.8 55.6 10.64 41.64 10.63Z" stroke="#00ff3c" strokeWidth="0.5" strokemitterlimit="50"/>
<path d="M63.55 33.09C63.56 42.94 54.75 52.1 44.71 51.9C35.09 51.71 25.86 42.8 25.87 33.09C25.88 23.3 34.98 14.46 44.71 14.28C54.85 14.08 63.54 23.15 63.55 33.09Z" stroke="#00ff3c" strokeWidth="0.5" strokemitterlimit="50"/>
<path d="M47.77 17.94C41.17 17.9 35.24 23.59 35.21 30.48C35.18 37.42 40.8 43.06 47.77 43.02C54.68 42.98 60.36 37.03 60.33 30.48C60.3 23.96 54.34 17.98 47.77 17.94Z" stroke="#00ff3c" strokeWidth="0.5" strokemitterlimit="50"/>
<path d="M56.4 28.48C56.4 31.93 53.7 34.66 50.12 34.75C46.54 34.84 43.84 31.93 43.84 28.48C43.84 25.21 46.54 22.3 50.12 22.21C53.7 22.11 56.39 25.21 56.4 28.48Z" stroke="#00ff3c" strokeWidth="0.5" strokemitterlimit="50"/>
<path d="M51.05 27.68C48.71 17.25 40.75 11.38 38.23 1" stroke="#00ff3c" strokeWidth="0.5" strokemitterlimit="50"/>
<path d="M51.05 27.68C52.77 19.35 51.28 12.06 52.86 3.67999" stroke="#00ff3c" strokeWidth="0.5" strokemitterlimit="50"/>
<path d="M51.05 27.68C55.85 22.54 60.26 17.11 65.04 11.95" stroke="#00ff3c" strokeWidth="0.5" strokemitterlimit="50"/>
<path d="M51.05 27.68C58.58 25.68 65.68 25.95 73.25 24.04" stroke="#00ff3c" strokeWidth="0.5" strokemitterlimit="50"/>
<path d="M51.05 27.68C60.72 29.6 66.26 36.56 75.9 38.62" stroke="#00ff3c" strokeWidth="0.5" strokemitterlimit="50"/>
<path d="M51.05 27.68C60.24 34.69 64.14 45.22 73.04 52.67" stroke="#00ff3c" strokeWidth="0.5" strokemitterlimit="50"/>
<path d="M51.05 27.68C58.1 39.15 58.67 52.68 65.21 64.54" stroke="#00ff3c" strokeWidth="0.5" strokemitterlimit="50"/>
<path d="M51.05 27.68C55.71 42.29 49.29 58.24 52.86 73.2" stroke="#00ff3c" strokeWidth="0.5" strokemitterlimit="50"/>
<path d="M51.05 27.68C50.18 44.61 39.32 59.34 38.23 76.25" stroke="#00ff3c" strokeWidth="0.5" strokemitterlimit="50"/>
<path d="M51.05 27.68C43.73 43.63 32.05 57.22 24.17 72.91" stroke="#00ff3c" strokeWidth="0.5" strokemitterlimit="50"/>
<path d="M51.05 27.68C38.27 40.27 24.94 52.29 12.08 64.81" stroke="#00ff3c" strokeWidth="0.5" strokemitterlimit="50"/>
<path d="M51.05 27.68C34.69 34.94 19.84 45.23 3.63 52.84" stroke="#00ff3c" strokeWidth="0.5" strokemitterlimit="50"/>
<path d="M51.05 27.68C33.7 28.45 17.88 37.66 0.549988 38.62" stroke="#00ff3c" strokeWidth="0.5" strokemitterlimit="50"/>
<path d="M51.05 27.68C36.19 22.9 19.01 26.97 3.63 24.04" stroke="#00ff3c" strokeWidth="0.5" strokemitterlimit="50"/>
<path d="M51.05 27.68C40.37 18.76 24.22 19.59 12.51 11.89" stroke="#00ff3c" strokeWidth="0.5" strokemitterlimit="50"/>
<path d="M51.05 27.68C45.35 16.54 30.77 14.67 24.24 4.04999" stroke="#00ff3c" strokeWidth="0.5" strokemitterlimit="50"/>
</svg>
