<svg width="72" height="76" viewBox="0 0 72 76" fill="none" xmlns="http://www.w3.org/2000/svg">
<path d="M52.82 75.87C46.67 75.87 40.96 72.81 37.56 67.69C37.11 67.02 37.3 66.12 37.97 65.67C38.64 65.22 39.55 65.41 39.99 66.08C42.85 70.39 47.65 72.96 52.82 72.96C61.3 72.96 68.2 66.08 68.2 57.61C68.2 49.15 61.3 42.27 52.82 42.27C44.34 42.27 37.44 49.15 37.44 57.61C37.44 67.68 29.23 75.87 19.14 75.87C9.05001 75.87 0.840027 67.68 0.840027 57.61C0.840027 47.54 9.05001 39.35 19.14 39.35C25.29 39.35 31 42.41 34.4 47.53C34.85 48.2 34.66 49.1 33.99 49.55C33.32 50 32.41 49.81 31.97 49.14C29.11 44.83 24.31 42.26 19.14 42.26C10.66 42.26 3.76001 49.14 3.76001 57.6C3.76001 66.06 10.66 72.95 19.14 72.95C27.62 72.95 34.52 66.07 34.52 57.6C34.52 47.53 42.73 39.34 52.82 39.34C62.91 39.34 71.12 47.53 71.12 57.6C71.12 67.68 62.92 75.87 52.82 75.87Z" fill="black"/>
<path d="M52.82 69.7C46.14 69.7 40.7 64.27 40.7 57.61C40.7 50.94 46.14 45.52 52.82 45.52C59.5 45.52 64.94 50.95 64.94 57.61C64.95 64.28 59.51 69.7 52.82 69.7ZM52.82 48.43C47.74 48.43 43.62 52.55 43.62 57.61C43.62 62.67 47.75 66.79 52.82 66.79C57.89 66.79 62.02 62.67 62.02 57.61C62.03 52.55 57.9 48.43 52.82 48.43Z" fill="black"/>
<path d="M19.14 69.7C12.46 69.7 7.02002 64.27 7.02002 57.61C7.02002 50.94 12.46 45.52 19.14 45.52C25.82 45.52 31.26 50.95 31.26 57.61C31.27 64.28 25.83 69.7 19.14 69.7ZM19.14 48.43C14.06 48.43 9.94 52.55 9.94 57.61C9.94 62.67 14.07 66.79 19.14 66.79C24.21 66.79 28.34 62.67 28.34 57.61C28.35 52.55 24.22 48.43 19.14 48.43Z" fill="black"/>
<path d="M52.82 37.35C46.67 37.35 40.96 34.29 37.56 29.17C37.11 28.5 37.3 27.6 37.97 27.15C38.64 26.7 39.55 26.89 39.99 27.56C42.85 31.87 47.65 34.44 52.82 34.44C61.3 34.44 68.2 27.56 68.2 19.09C68.2 10.63 61.3 3.75 52.82 3.75C44.34 3.75 37.44 10.63 37.44 19.09C37.44 29.16 29.23 37.35 19.14 37.35C9.05001 37.35 0.840027 29.16 0.840027 19.09C0.840027 9.02003 9.05001 0.830017 19.14 0.830017C25.29 0.830017 31 3.89001 34.4 9.01001C34.85 9.68001 34.66 10.58 33.99 11.03C33.32 11.48 32.41 11.29 31.97 10.62C29.11 6.31 24.31 3.73999 19.14 3.73999C10.66 3.73999 3.76001 10.62 3.76001 19.08C3.76001 27.54 10.66 34.43 19.14 34.43C27.62 34.43 34.52 27.55 34.52 19.08C34.52 9.01002 42.73 0.820007 52.82 0.820007C62.91 0.820007 71.12 9.01002 71.12 19.08C71.12 29.16 62.92 37.35 52.82 37.35Z" fill="black"/>
<path d="M19.14 31.19C12.46 31.19 7.02002 25.76 7.02002 19.1C7.02002 12.43 12.46 7.01001 19.14 7.01001C25.82 7.01001 31.26 12.44 31.26 19.1C31.27 25.76 25.83 31.19 19.14 31.19ZM19.14 9.90997C14.06 9.90997 9.94 14.03 9.94 19.09C9.94 24.15 14.07 28.27 19.14 28.27C24.21 28.27 28.34 24.15 28.34 19.09C28.35 14.03 24.22 9.90997 19.14 9.90997Z" fill="black"/>
<path d="M52.82 31.19C46.14 31.19 40.7 25.76 40.7 19.1C40.7 12.43 46.14 7.01001 52.82 7.01001C59.5 7.01001 64.94 12.44 64.94 19.1C64.95 25.76 59.51 31.19 52.82 31.19ZM52.82 9.90997C47.74 9.90997 43.62 14.03 43.62 19.09C43.62 24.15 47.75 28.27 52.82 28.27C57.89 28.27 62.02 24.15 62.02 19.09C62.03 14.03 57.9 9.90997 52.82 9.90997Z" fill="black"/>
</svg>
